SplineFontDB: 3.2
FontName: DSETypewriter
FullName: DSE Typewriter
FamilyName: DSE Typewriter
Weight: Regular
Copyright: Copyright (c) 2020, Darren Embry\n\nSIL OFL 1.1\n
UComments: "2020-2-19: Created with FontForge (http://fontforge.org)"
Version: 001.000
StrokeWidth: 96
ItalicAngle: 0
UnderlinePosition: -192
UnderlineWidth: 96
Ascent: 1648
Descent: 400
InvalidEm: 0
LayerCount: 2
Layer: 0 0 "Back" 1
Layer: 1 0 "Fore" 0
XUID: [1021 633 -131660588 20145]
FSType: 0
OS2Version: 0
OS2_WeightWidthSlopeOnly: 0
OS2_UseTypoMetrics: 0
CreationTime: 1582156054
ModificationTime: 1588867550
PfmFamily: 17
TTFWeight: 400
TTFWidth: 5
LineGap: 0
VLineGap: 0
Panose: 2 7 5 9 0 2 5 2 4 3
OS2TypoAscent: 1648
OS2TypoAOffset: 0
OS2TypoDescent: -400
OS2TypoDOffset: 0
OS2TypoLinegap: 0
OS2WinAscent: 1648
OS2WinAOffset: 0
OS2WinDescent: 400
OS2WinDOffset: 0
HheadAscent: 1648
HheadAOffset: 0
HheadDescent: -400
HheadDOffset: 0
OS2CapHeight: 1248
OS2XHeight: 864
OS2Vendor: 'PfEd'
Lookup: 1 0 0 "'i'/'l' with bottom serif only to the right" { "'i'/'l' with bottom serif only to the right subtable"  } ['ss05' ('DFLT' <'dflt' > 'brai' <'dflt' > 'cyrl' <'SRB ' 'dflt' > 'grek' <'dflt' > 'latn' <'IPPH' 'ROM ' 'TRK ' 'dflt' > ) ]
Lookup: 1 0 0 "Lowercase L Styled One (cv03)" { "Lowercase L Styled One (cv03) subtable"  } ['cv03' ('DFLT' <'dflt' > 'brai' <'dflt' > 'cyrl' <'SRB ' 'dflt' > 'grek' <'dflt' > 'latn' <'IPPH' 'ROM ' 'TRK ' 'dflt' > ) ]
Lookup: 1 0 0 "Slashed Zero (zero)" { "Slashed Zero (zero) subtable"  } ['zero' ('DFLT' <'dflt' > 'cyrl' <'SRB ' 'dflt' > 'grek' <'dflt' > 'latn' <'IPPH' 'ROM ' 'TRK ' 'dflt' > ) ]
Lookup: 1 0 0 "Dotless Zero (cv01)" { "Dotless Zero (cv01) subtable"  } ['cv01' ('DFLT' <'dflt' > 'cyrl' <'SRB ' 'dflt' > 'grek' <'dflt' > 'latn' <'IPPH' 'ROM ' 'TRK ' 'dflt' > ) ]
Lookup: 1 0 0 "Fancy Dollar Sign (cv02)" { "Fancy Dollar Sign (cv02) subtable"  } ['cv02' ('DFLT' <'dflt' > 'cyrl' <'SRB ' 'dflt' > 'grek' <'dflt' > 'latn' <'IPPH' 'ROM ' 'TRK ' 'dflt' > ) ]

StartChar: H
Encoding: 72 72 1
Width: 1024
Flags: HW
AnchorPoint: "top" 512 1272 basechar 0
AnchorPoint: "ogonek" 769 49 basechar 0
AnchorPoint: "cedilla" 512 48 basechar 0
LayerCount: 2
Back
SplineSet
272 672 m 29
 752 672 l 1053
768 1184 m 29
 768 64 l 1053
256 1184 m 29
 256 64 l 1053
608 1200 m 29
 928 1200 l 1053
608 48 m 29
 928 48 l 1053
96 1200 m 29
 416 1200 l 1053
96 48 m 29
 416 48 l 1053
EndSplineSet
Fore
SplineSet
608 1152 m 2
 581.50808 1152 560 1173.50808 560 1200 c 0
 560 1226.49192 581.50808 1248 608 1248 c 2
 928 1248 l 2
 954.49192 1248 976 1226.49192 976 1200 c 0
 976 1173.50808 954.49192 1152 928 1152 c 2
 816 1152 l 1
 816 96 l 1
 928 96 l 2
 954.49192 96 976 74.49192 976 48 c 0
 976 21.50808 954.49192 0 928 0 c 2
 608 0 l 2
 581.50808 0 560 21.50808 560 48 c 0
 560 74.49192 581.50808 96 608 96 c 2
 720 96 l 1
 720 624 l 1
 304 624 l 1
 304 96 l 1
 416 96 l 2
 442.49192 96 464 74.49192 464 48 c 0
 464 21.50808 442.49192 0 416 0 c 2
 96 0 l 2
 69.50808 0 48 21.50808 48 48 c 0
 48 74.49192 69.50808 96 96 96 c 2
 208 96 l 1
 208 1152 l 1
 96 1152 l 2
 69.50808 1152 48 1173.50808 48 1200 c 0
 48 1226.49192 69.50808 1248 96 1248 c 2
 416 1248 l 2
 442.49192 1248 464 1226.49192 464 1200 c 0
 464 1173.50808 442.49192 1152 416 1152 c 2
 304 1152 l 1
 304 720 l 1
 720 720 l 1
 720 1152 l 1
 608 1152 l 2
EndSplineSet
EndChar

StartChar: O
Encoding: 79 79 2
Width: 1024
Flags: HW
AnchorPoint: "top" 512 1272 basechar 0
AnchorPoint: "ogonek" 513 33 basechar 0
AnchorPoint: "cedilla" 512 32 basechar 0
LayerCount: 2
Back
SplineSet
144 624 m 4
 144 951 288 1216 512 1216 c 4
 736 1216 880 951 880 624 c 4
 880 297 736 32 512 32 c 4
 288 32 144 297 144 624 c 4
EndSplineSet
Fore
SplineSet
96 624 m 0
 96 750.396919551 116.456600067 868.514864564 155.218078625 968.787919865 c 0
 186.205433935 1048.9498979 229.071655206 1118.23808024 284.133809497 1170.12069437 c 0
 346.183992317 1228.58781636 424.062958597 1264 512 1264 c 0
 599.937041403 1264 677.816007683 1228.58781636 739.866190503 1170.12069437 c 0
 794.928344794 1118.23808024 837.794566065 1048.9498979 868.781921375 968.787919865 c 0
 907.543399933 868.514864564 928 750.396919551 928 624 c 0
 928 497.603080449 907.543399933 379.485135436 868.781921375 279.212080135 c 0
 837.794566065 199.050102105 794.928344794 129.761919759 739.866190503 77.8793056281 c 0
 677.816007683 19.4121836367 599.937041403 -16 512 -16 c 0
 424.062958597 -16 346.183992317 19.4121836367 284.133809497 77.8793056281 c 0
 229.071655206 129.761919759 186.205433935 199.050102105 155.218078625 279.212080135 c 0
 116.456600067 379.485135436 96 497.603080449 96 624 c 0
192 624 m 0
 192 424.521732793 248.623782693 243.21632969 349.940264577 147.750324001 c 0
 396.927118794 103.476705252 450.60370807 80 512 80 c 0
 573.39629193 80 627.072881206 103.476705252 674.059735423 147.750324001 c 0
 775.320895192 243.164202127 832 424.592876281 832 624 c 0
 832 823.478267207 775.376217307 1004.78367031 674.059735423 1100.249676 c 0
 627.072881206 1144.52329475 573.39629193 1168 512 1168 c 0
 450.60370807 1168 396.927118794 1144.52329475 349.940264577 1100.249676 c 0
 248.679104808 1004.83579787 192 823.407123719 192 624 c 0
EndSplineSet
EndChar

StartChar: I
Encoding: 73 73 3
Width: 1024
Flags: HW
AnchorPoint: "top" 512 1272 basechar 0
AnchorPoint: "ogonek" 705 49 basechar 0
AnchorPoint: "cedilla" 512 48 basechar 0
LayerCount: 2
Back
SplineSet
208 48 m 29
 816 48 l 1053
512 1184 m 29
 512 64 l 1053
208 1200 m 29
 816 1200 l 1053
EndSplineSet
Fore
SplineSet
208 0 m 2
 181.50808 0 160 21.50808 160 48 c 0
 160 74.49192 181.50808 96 208 96 c 2
 464 96 l 1
 464 1152 l 1
 208 1152 l 2
 181.50808 1152 160 1173.50808 160 1200 c 0
 160 1226.49192 181.50808 1248 208 1248 c 2
 816 1248 l 2
 842.49192 1248 864 1226.49192 864 1200 c 0
 864 1173.50808 842.49192 1152 816 1152 c 2
 560 1152 l 1
 560 96 l 1
 816 96 l 2
 842.49192 96 864 74.49192 864 48 c 0
 864 21.50808 842.49192 0 816 0 c 2
 208 0 l 2
EndSplineSet
EndChar

StartChar: emdash
Encoding: 8212 8212 4
Width: 1024
Flags: HW
LayerCount: 2
Back
SplineSet
48 624 m 29
 976 624 l 1053
EndSplineSet
Fore
SplineSet
48 576 m 2
 21.50808 576 0 597.50808 0 624 c 0
 0 650.49192 21.50808 672 48 672 c 2
 976 672 l 2
 1002.49192 672 1024 650.49192 1024 624 c 0
 1024 597.50808 1002.49192 576 976 576 c 2
 48 576 l 2
EndSplineSet
EndChar

StartChar: endash
Encoding: 8211 8211 5
Width: 1024
Flags: HW
LayerCount: 2
Back
SplineSet
96 624 m 25
 928 624 l 1053
EndSplineSet
Fore
SplineSet
96 576 m 2
 69.50808 576 48 597.50808 48 624 c 0
 48 650.49192 69.50808 672 96 672 c 2
 928 672 l 2
 954.49192 672 976 650.49192 976 624 c 0
 976 597.50808 954.49192 576 928 576 c 2
 96 576 l 2
EndSplineSet
EndChar

StartChar: hyphen
Encoding: 45 45 6
Width: 1024
Flags: HW
LayerCount: 2
Back
SplineSet
144 624 m 25
 880 624 l 1053
EndSplineSet
Fore
SplineSet
144 576 m 2
 117.50808 576 96 597.50808 96 624 c 0
 96 650.49192 117.50808 672 144 672 c 2
 880 672 l 2
 906.49192 672 928 650.49192 928 624 c 0
 928 597.50808 906.49192 576 880 576 c 2
 144 576 l 2
EndSplineSet
EndChar

StartChar: period
Encoding: 46 46 7
Width: 1024
Flags: HW
LayerCount: 2
Back
SplineSet
416 128 m 4
 416 154 459 176 512 176 c 4
 565 176 608 154 608 128 c 4
 608 102 565 80 512 80 c 4
 459 80 416 102 416 128 c 4
368 128 m 4
 368 181 433 224 512 224 c 4
 591 224 656 181 656 128 c 4
 656 75 591 32 512 32 c 4
 433 32 368 75 368 128 c 4
EndSplineSet
Fore
SplineSet
320 128 m 0
 320 159.272740489 333.041701712 186.957143113 351.785514756 208.189072933 c 0
 385.765940725 246.680174915 443.486036831 272 512 272 c 0
 580.484446228 272 638.261641389 246.648931459 672.214485244 208.189072933 c 0
 690.958298288 186.957143113 704 159.272740489 704 128 c 0
 704 96.7272595112 690.958298288 69.042856887 672.214485244 47.8109270666 c 0
 638.234059275 9.31982508464 580.513963169 -16 512 -16 c 0
 443.515553772 -16 385.738358611 9.3510685409 351.785514756 47.8109270666 c 0
 333.041701712 69.042856887 320 96.7272595112 320 128 c 0
EndSplineSet
EndChar

StartChar: slash
Encoding: 47 47 8
Width: 1024
Flags: HW
LayerCount: 2
Back
SplineSet
128 -144 m 29
 896 1392 l 1053
EndSplineSet
Fore
SplineSet
128.003741327 -192.006045588 m 0
 101.509514209 -192.006045588 79.9995611217 -170.496092501 79.9995611217 -144.001865383 c 0
 79.9995611217 -136.305781586 81.8145607019 -129.030268454 85.0395040087 -122.58038184 c 2
 853.088007877 1413.5166259 l 2
 860.965124094 1429.27085833 877.254101875 1440.09932256 896.052245195 1440.09932256 c 0
 922.546472313 1440.09932256 944.0564254 1418.58936947 944.0564254 1392.09514235 c 0
 944.0564254 1384.39905856 942.24142582 1377.12354542 938.960495991 1370.58038184 c 2
 170.911992123 -165.516625897 l 2
 163.090862428 -181.177581359 146.801884647 -192.006045588 128.003741327 -192.006045588 c 0
EndSplineSet
EndChar

StartChar: one
Encoding: 49 49 9
Width: 1024
Flags: HW
LayerCount: 2
Back
SplineSet
512 64 m 29
 512 1200 l 29
 512 1200 384 992 208 992 c 1037
208 48 m 29
 816 48 l 1053
EndSplineSet
Fore
SplineSet
511.950221366 1247.9142904 m 0
 536.01590901 1247.9142904 560 1228.3819678 560 1200 c 2
 560 96 l 1
 816 96 l 2
 842.49192 96 864 74.49192 864 48 c 0
 864 21.50808 842.49192 0 816 0 c 2
 208 0 l 2
 181.50808 0 160 21.50808 160 48 c 0
 160 74.49192 181.50808 96 208 96 c 2
 464 96 l 1
 464 1065.98696663 l 1
 456.065161837 1058.19614573 447.646076907 1050.3505172 438.761864034 1042.58616309 c 0
 382.129766827 993.092565531 303.522281971 944 208 944 c 0
 181.50808 944 160 965.50808 160 992 c 0
 160 1018.49192 181.50808 1040 208 1040 c 0
 268.922162474 1040 327.796159099 1073.08027398 375.635941178 1114.88983142 c 0
 436.289970495 1167.89839486 471.118258463 1225.09759753 471.118258463 1225.09759753 c 2
 478.52760968 1237.13779325 493.552565161 1247.9142904 511.950221366 1247.9142904 c 0
EndSplineSet
Substitution2: "'onum' Oldstyle Figures lookup 16 subtable" one.oldstyle
Substitution2: "Lowercase L Styled One (cv03) subtable" one.cv03
EndChar

StartChar: backslash
Encoding: 92 92 10
Width: 1024
Flags: HW
LayerCount: 2
Back
SplineSet
896 -144 m 25
 128 1392 l 1049
EndSplineSet
Fore
SplineSet
944.0564254 -144.095142354 m 0
 944.0564254 -170.589369472 922.546472313 -192.099322559 896.052245195 -192.099322559 c 0
 877.254101875 -192.099322559 860.965124094 -181.27085833 853.088007877 -165.516625897 c 2
 85.0395040087 1370.58038184 l 2
 81.8145607019 1377.03026845 79.9995611217 1384.30578159 79.9995611217 1392.00186538 c 0
 79.9995611217 1418.4960925 101.509514209 1440.00604559 128.003741327 1440.00604559 c 0
 146.801884647 1440.00604559 163.083383106 1429.17384393 170.911992123 1413.5166259 c 2
 938.960495991 -122.58038184 l 2
 942.24142582 -129.123545424 944.0564254 -136.399058557 944.0564254 -144.095142354 c 0
EndSplineSet
EndChar

StartChar: asciitilde
Encoding: 126 126 11
Width: 1024
Flags: HW
LayerCount: 2
Back
SplineSet
144 432 m 0
 144 624 208 720 304 720 c 0
 408 720 460 672 512 624 c 1025
512 624 m 1
 564 576 616 528 720 528 c 0
 816 528 880 624 880 816 c 1024
EndSplineSet
Fore
SplineSet
192 432 m 0
 192 405.50808 170.49192 384 144 384 c 0
 117.50808 384 96 405.50808 96 432 c 0
 96 499.601698939 103.381513876 557.420206241 118.233900177 606.028015952 c 0
 131.408117426 649.143636042 150.672237393 685.627103047 177.414470282 713.631251257 c 0
 211.205063226 749.016358283 255.970204874 768 304 768 c 0
 356.960792946 768 400.853913334 756.767772533 437.411293736 738.940080494 c 0
 483.033575925 716.691768715 515.8132102 685.791294065 544.540555292 659.273744749 c 0
 573.590987978 632.457960731 598.589131481 610.025102048 628.577274532 595.400985843 c 0
 652.508234322 583.730735496 680.516348502 576 720 576 c 0
 743.081315985 576 760.648135929 583.353806843 777.158818197 600.643596936 c 0
 790.657605477 614.779366421 803.934866397 637.29178419 813.93760388 670.028015952 c 0
 825.159291654 706.753539574 832 755.601698939 832 816 c 0
 832 842.49192 853.50808 864 880 864 c 0
 906.49192 864 928 842.49192 928 816 c 0
 928 748.398301061 920.618486124 690.579793759 905.766099823 641.971984048 c 0
 892.591882574 598.856363958 873.327762607 562.372896953 846.585529718 534.368748743 c 0
 812.794936774 498.983641717 768.029795126 480 720 480 c 0
 667.039207054 480 623.146086666 491.232227467 586.588706264 509.059919506 c 0
 540.966424075 531.308231285 508.1867898 562.208705935 479.459444708 588.726255251 c 0
 450.409012022 615.542039269 425.410868519 637.974897952 395.422725468 652.599014157 c 0
 371.491765678 664.269264504 343.483651498 672 304 672 c 0
 280.918684015 672 263.351864071 664.646193157 246.841181803 647.356403064 c 0
 233.342394523 633.220633579 220.065133603 610.70821581 210.06239612 577.971984048 c 0
 198.840708346 541.246460426 192 492.398301061 192 432 c 0
EndSplineSet
EndChar

StartChar: bar
Encoding: 124 124 12
Width: 1024
Flags: HW
LayerCount: 2
Back
SplineSet
512 1392 m 25
 512 -144 l 1049
EndSplineSet
Fore
SplineSet
464 1392 m 2
 464 1418.49192 485.50808 1440 512 1440 c 0
 538.49192 1440 560 1418.49192 560 1392 c 2
 560 -144 l 2
 560 -170.49192 538.49192 -192 512 -192 c 0
 485.50808 -192 464 -170.49192 464 -144 c 2
 464 1392 l 2
EndSplineSet
EndChar

StartChar: plus
Encoding: 43 43 13
Width: 1024
Flags: HW
LayerCount: 2
Back
SplineSet
512 992 m 25
 512 256 l 1049
144 624 m 25
 880 624 l 1049
EndSplineSet
Fore
SplineSet
464 992 m 2
 464 1018.49192 485.50808 1040 512 1040 c 0
 538.49192 1040 560 1018.49192 560 992 c 2
 560 672 l 1
 880 672 l 2
 906.49192 672 928 650.49192 928 624 c 0
 928 597.50808 906.49192 576 880 576 c 2
 560 576 l 1
 560 256 l 2
 560 229.50808 538.49192 208 512 208 c 0
 485.50808 208 464 229.50808 464 256 c 2
 464 576 l 1
 144 576 l 2
 117.50808 576 96 597.50808 96 624 c 0
 96 650.49192 117.50808 672 144 672 c 2
 464 672 l 1
 464 992 l 2
EndSplineSet
EndChar

StartChar: zero
Encoding: 48 48 14
Width: 1024
Flags: HW
LayerCount: 2
Back
SplineSet
464 624 m 4
 464 650 486 672 512 672 c 4
 538 672 560 650 560 624 c 4
 560 598 538 576 512 576 c 4
 486 576 464 598 464 624 c 4
144 624 m 4
 144 951 309 1216 512 1216 c 4
 715 1216 880 951 880 624 c 4
 880 297 715 32 512 32 c 4
 309 32 144 297 144 624 c 4
EndSplineSet
Fore
SplineSet
96 624 m 0
 96 751.177734635 119.627517525 869.678530432 161.076125383 969.829542949 c 0
 194.221832682 1049.91850898 238.875372329 1118.68130192 293.46714283 1170.12069437 c 0
 354.818761956 1227.92959093 429.782469183 1264 512 1264 c 0
 594.217530817 1264 669.181238044 1227.92959093 730.53285717 1170.12069437 c 0
 785.124627671 1118.68130192 829.778167318 1049.91850898 862.923874617 969.829542949 c 0
 904.372482475 869.678530432 928 751.177734635 928 624 c 0
 928 496.822265365 904.372482475 378.321469568 862.923874617 278.170457051 c 0
 829.778167318 198.081491022 785.124627671 129.318698078 730.53285717 77.8793056281 c 0
 669.181238044 20.0704090748 594.217530817 -16 512 -16 c 0
 429.782469183 -16 354.818761956 20.0704090748 293.46714283 77.8793056281 c 0
 238.875372329 129.318698078 194.221832682 198.081491022 161.076125383 278.170457051 c 0
 119.627517525 378.321469568 96 496.822265365 96 624 c 0
192 624 m 0
 192 424.758961067 257.433844804 243.709384843 359.27359791 147.750324001 c 0
 406.959015822 102.818479814 458.884197484 80 512 80 c 0
 565.115802516 80 617.040984178 102.818479814 664.72640209 147.750324001 c 0
 766.513749222 243.660005029 832 424.823312289 832 624 c 0
 832 823.241038933 766.566155196 1004.29061516 664.72640209 1100.249676 c 0
 617.040984178 1145.18152019 565.115802516 1168 512 1168 c 0
 458.884197484 1168 406.959015822 1145.18152019 359.27359791 1100.249676 c 0
 257.486250778 1004.33999497 192 823.176687711 192 624 c 0
416 624 m 0
 416 676.839963567 459.160036433 720 512 720 c 0
 564.839963567 720 608 676.839963567 608 624 c 0
 608 571.160036433 564.839963567 528 512 528 c 0
 459.160036433 528 416 571.160036433 416 624 c 0
EndSplineSet
Substitution2: "Dotless Zero (cv01) subtable" zero.cv01
Substitution2: "Slashed Zero (zero) subtable" zero.zero
Substitution2: "'onum' Oldstyle Figures lookup 16 subtable" zero.oldstyle
EndChar

StartChar: comma
Encoding: 44 44 15
Width: 1024
Flags: HW
LayerCount: 2
Back
SplineSet
656 128 m 4
 656 -112 368 -352 368 -352 c 1028
416 128 m 4
 416 154 459 176 512 176 c 4
 565 176 608 154 608 128 c 4
 608 102 565 80 512 80 c 4
 459 80 416 102 416 128 c 4
368 128 m 4
 368 181 433 224 512 224 c 4
 591 224 656 181 656 128 c 4
 656 75 591 32 512 32 c 4
 433 32 368 75 368 128 c 4
EndSplineSet
Fore
SplineSet
320 128 m 0
 320 159.272740489 333.041701712 186.957143113 351.785514756 208.189072933 c 0
 385.765940725 246.680174915 443.486036831 272 512 272 c 0
 580.484446228 272 638.261641389 246.648931459 672.214485244 208.189072933 c 0
 690.958298288 186.957143113 704 159.272740489 704 128 c 0
 704 72.8609567877 691.063508799 19.7157941858 671.376822541 -30.0135955801 c 0
 646.753097174 -92.214151846 611.396899174 -149.489155007 574.537853593 -199.402445896 c 0
 491.681863781 -311.603265434 400.404101446 -387.468246574 398.699421043 -388.888813653 c 0
 390.37707912 -395.824098961 379.674683808 -399.998162501 368.00507688 -399.998162501 c 0
 341.51753795 -399.998162501 320.013014823 -378.493639374 320.013014823 -352.006100444 c 0
 320.013014823 -337.188168442 326.743119131 -323.929732362 337.300578957 -315.111186347 c 2
 337.300578957 -315.111186347 421.134767844 -245.5501385 497.264615542 -142.457636408 c 0
 527.815780221 -101.086267572 556.356626989 -54.9849591998 576.664504067 -7.82772574303 c 1
 556.317116299 -13.1827514459 534.590327459 -15.9999999984 512 -16 c 0
 443.515553772 -16 385.738358611 9.3510685409 351.785514756 47.8109270666 c 0
 333.041701712 69.042856887 320 96.7272595112 320 128 c 0
EndSplineSet
EndChar

StartChar: minus
Encoding: 8722 8722 16
Width: 1024
Flags: HW
LayerCount: 2
Back
SplineSet
144 624 m 25
 880 624 l 1053
EndSplineSet
Fore
SplineSet
144 576 m 2
 117.50808 576 96 597.50808 96 624 c 0
 96 650.49192 117.50808 672 144 672 c 2
 880 672 l 2
 906.49192 672 928 650.49192 928 624 c 0
 928 597.50808 906.49192 576 880 576 c 2
 144 576 l 2
EndSplineSet
EndChar

StartChar: equal
Encoding: 61 61 17
Width: 1024
Flags: HW
LayerCount: 2
Back
SplineSet
144 480 m 25
 880 480 l 1049
144 768 m 25
 880 768 l 1049
EndSplineSet
Fore
SplineSet
144 720 m 2
 117.50808 720 96 741.50808 96 768 c 0
 96 794.49192 117.50808 816 144 816 c 2
 880 816 l 2
 906.49192 816 928 794.49192 928 768 c 0
 928 741.50808 906.49192 720 880 720 c 2
 144 720 l 2
144 432 m 2
 117.50808 432 96 453.50808 96 480 c 0
 96 506.49192 117.50808 528 144 528 c 2
 880 528 l 2
 906.49192 528 928 506.49192 928 480 c 0
 928 453.50808 906.49192 432 880 432 c 2
 144 432 l 2
EndSplineSet
EndChar

StartChar: colon
Encoding: 58 58 18
Width: 1024
Flags: HW
LayerCount: 2
Back
SplineSet
416 688 m 4
 416 714 459 736 512 736 c 4
 565 736 608 714 608 688 c 4
 608 662 565 640 512 640 c 4
 459 640 416 662 416 688 c 4
416 128 m 0
 416 154 459 176 512 176 c 0
 565 176 608 154 608 128 c 0
 608 102 565 80 512 80 c 0
 459 80 416 102 416 128 c 0
368 128 m 0
 368 181 433 224 512 224 c 0
 591 224 656 181 656 128 c 0
 656 75 591 32 512 32 c 0
 433 32 368 75 368 128 c 0
368 688 m 0
 368 741 433 784 512 784 c 0
 591 784 656 741 656 688 c 0
 656 635 591 592 512 592 c 0
 433 592 368 635 368 688 c 0
EndSplineSet
Fore
SplineSet
320 688 m 0
 320 719.272740489 333.041701712 746.957143113 351.785514756 768.189072933 c 0
 385.765940725 806.680174915 443.486036831 832 512 832 c 0
 580.484446228 832 638.261641389 806.648931459 672.214485244 768.189072933 c 0
 690.958298288 746.957143113 704 719.272740489 704 688 c 0
 704 656.727259511 690.958298288 629.042856887 672.214485244 607.810927067 c 0
 638.234059275 569.319825085 580.513963169 544 512 544 c 0
 443.515553772 544 385.738358611 569.351068541 351.785514756 607.810927067 c 0
 333.041701712 629.042856887 320 656.727259511 320 688 c 0
320 128 m 0
 320 159.272740489 333.041701712 186.957143113 351.785514756 208.189072933 c 0
 385.765940725 246.680174915 443.486036831 272 512 272 c 0
 580.484446228 272 638.261641389 246.648931459 672.214485244 208.189072933 c 0
 690.958298288 186.957143113 704 159.272740489 704 128 c 0
 704 96.7272595112 690.958298288 69.042856887 672.214485244 47.8109270666 c 0
 638.234059275 9.31982508464 580.513963169 -16 512 -16 c 0
 443.515553772 -16 385.738358611 9.3510685409 351.785514756 47.8109270666 c 0
 333.041701712 69.042856887 320 96.7272595112 320 128 c 0
EndSplineSet
EndChar

StartChar: semicolon
Encoding: 59 59 19
Width: 1024
Flags: HW
LayerCount: 2
Back
SplineSet
416 688 m 4
 416 714 459 736 512 736 c 4
 565 736 608 714 608 688 c 4
 608 662 565 640 512 640 c 4
 459 640 416 662 416 688 c 4
368 688 m 4
 368 741 433 784 512 784 c 4
 591 784 656 741 656 688 c 4
 656 635 591 592 512 592 c 4
 433 592 368 635 368 688 c 4
656 128 m 4
 656 -112 368 -352 368 -352 c 1028
416 128 m 4
 416 154 459 176 512 176 c 4
 565 176 608 154 608 128 c 4
 608 102 565 80 512 80 c 4
 459 80 416 102 416 128 c 4
368 128 m 4
 368 181 433 224 512 224 c 4
 591 224 656 181 656 128 c 4
 656 75 591 32 512 32 c 4
 433 32 368 75 368 128 c 4
EndSplineSet
Fore
SplineSet
320 128 m 0
 320 159.272740489 333.041701712 186.957143113 351.785514756 208.189072933 c 0
 385.765940725 246.680174915 443.486036831 272 512 272 c 0
 580.484446228 272 638.261641389 246.648931459 672.214485244 208.189072933 c 0
 690.958298288 186.957143113 704 159.272740489 704 128 c 0
 704 72.8609567877 691.063508799 19.7157941858 671.376822541 -30.0135955801 c 0
 646.753097174 -92.214151846 611.396899174 -149.489155007 574.537853593 -199.402445896 c 0
 491.681863781 -311.603265434 400.404101446 -387.468246574 398.699421043 -388.888813653 c 0
 390.37707912 -395.824098961 379.674683808 -399.998162501 368.00507688 -399.998162501 c 0
 341.51753795 -399.998162501 320.013014823 -378.493639374 320.013014823 -352.006100444 c 0
 320.013014823 -337.188168442 326.743119131 -323.929732362 337.300578957 -315.111186347 c 2
 337.300578957 -315.111186347 421.134767844 -245.5501385 497.264615542 -142.457636408 c 0
 527.815780221 -101.086267572 556.356626989 -54.9849591998 576.664504067 -7.82772574303 c 1
 556.317116299 -13.1827514459 534.590327459 -15.9999999984 512 -16 c 0
 443.515553772 -16 385.738358611 9.3510685409 351.785514756 47.8109270666 c 0
 333.041701712 69.042856887 320 96.7272595112 320 128 c 0
320 688 m 0
 320 719.272740489 333.041701712 746.957143113 351.785514756 768.189072933 c 0
 385.765940725 806.680174915 443.486036831 832 512 832 c 0
 580.484446228 832 638.261641389 806.648931459 672.214485244 768.189072933 c 0
 690.958298288 746.957143113 704 719.272740489 704 688 c 0
 704 656.727259511 690.958298288 629.042856887 672.214485244 607.810927067 c 0
 638.234059275 569.319825085 580.513963169 544 512 544 c 0
 443.515553772 544 385.738358611 569.351068541 351.785514756 607.810927067 c 0
 333.041701712 629.042856887 320 656.727259511 320 688 c 0
EndSplineSet
EndChar

StartChar: less
Encoding: 60 60 20
Width: 1024
Flags: HW
LayerCount: 2
Back
SplineSet
880 1056 m 25
 128 624 l 25
 880 192 l 1053
EndSplineSet
Fore
SplineSet
880.103185108 1104.06110406 m 0
 906.595573522 1104.06110406 928.104033814 1082.55264376 928.104033814 1056.06025535 c 0
 928.104033814 1038.25003664 918.383153421 1022.69233479 903.962200349 1014.40795749 c 2
 224.363163237 624 l 1
 903.962200349 233.59204251 l 2
 918.383153421 225.307665214 928.104033814 209.749963355 928.104033814 191.939744651 c 0
 928.104033814 165.447356237 906.595573522 143.938895945 880.103185108 143.938895945 c 0
 871.421015399 143.938895945 863.274131936 146.248957943 856.141406612 150.348438597 c 2
 104.152754782 582.396029215 l 2
 91.3541573458 589.748414977 80.0713623997 604.223075873 80.0713623997 623.983485604 c 0
 80.0713623997 640.85256766 89.0140334744 656.961368324 104.141406612 665.651561403 c 2
 856.141406612 1097.6515614 l 2
 863.274131936 1101.75104206 871.421015399 1104.06110406 880.103185108 1104.06110406 c 0
EndSplineSet
EndChar

StartChar: eight
Encoding: 56 56 21
Width: 1024
Flags: HW
LayerCount: 2
Back
SplineSet
200 944 m 4
 200 1094 340 1216 512 1216 c 4
 684 1216 824 1094 824 944 c 4
 824 794 684 672 512 672 c 4
 340 672 200 794 200 944 c 4
144 352 m 0
 144 529 309 672 512 672 c 0
 715 672 880 529 880 352 c 0
 880 175 715 32 512 32 c 0
 309 32 144 175 144 352 c 0
EndSplineSet
Fore
SplineSet
192 352 m 0
 192 303.186843525 207.084118625 257.260842133 234.123705985 217.155776292 c 0
 288.207877619 136.938233196 391.506889339 80 512 80 c 0
 632.493110661 80 735.792122381 136.938233196 789.876294015 217.155776292 c 0
 816.915881375 257.260842133 832 303.186843525 832 352 c 0
 832 400.813156475 816.915881375 446.739157867 789.876294015 486.844223708 c 0
 735.792122381 567.061766804 632.493110661 624 512 624 c 0
 391.506889339 624 288.207877619 567.061766804 234.123705985 486.844223708 c 0
 207.084118625 446.739157867 192 400.813156475 192 352 c 0
152 944 m 0
 152 1004.19738408 170.803689656 1060.3549259 202.812903489 1107.93146231 c 0
 266.819534 1203.06700055 382.374803076 1264 512 1264 c 0
 641.625196924 1264 757.180466 1203.06700055 821.187096511 1107.93146231 c 0
 853.196310344 1060.3549259 872 1004.19738408 872 944 c 0
 872 883.802615915 853.196310344 827.6450741 821.187096511 780.068537693 c 0
 792.881609507 737.996994168 754.49500836 702.614273222 709.268611071 676.232138563 c 1
 775.097426818 644.894966324 830.631660631 598.110631767 869.531113392 540.415035551 c 0
 906.417451958 485.705286577 928 421.186843525 928 352 c 0
 928 282.813156475 906.417451958 218.294713423 869.531113392 163.584964449 c 0
 795.763433175 54.1728779151 662.173556005 -16 512 -16 c 0
 361.826443995 -16 228.236566825 54.1728779151 154.468886608 163.584964449 c 0
 117.582548042 218.294713423 96 282.813156475 96 352 c 0
 96 421.186843525 117.582548042 485.705286577 154.468886608 540.415035551 c 0
 193.368339369 598.110631767 248.902573182 644.894966324 314.731388929 676.232138563 c 1
 269.50499164 702.614273222 231.118390493 737.996994168 202.812903489 780.068537693 c 0
 170.803689656 827.6450741 152 883.802615915 152 944 c 0
248 944 m 0
 248 904.197384085 260.307421455 866.577148122 282.520429845 833.561091936 c 0
 326.958243778 767.511444997 412.29186359 720 512 720 c 0
 611.70813641 720 697.041756222 767.511444997 741.479570155 833.561091936 c 0
 763.692578545 866.577148122 776 904.197384085 776 944 c 0
 776 983.802615915 763.692578545 1021.42285188 741.479570155 1054.43890806 c 0
 697.041756222 1120.488555 611.70813641 1168 512 1168 c 0
 412.29186359 1168 326.958243778 1120.488555 282.520429845 1054.43890806 c 0
 260.307421455 1021.42285188 248 983.802615915 248 944 c 0
EndSplineSet
Substitution2: "'onum' Oldstyle Figures lookup 16 subtable" eight.oldstyle
EndChar

StartChar: greater
Encoding: 62 62 22
Width: 1024
Flags: HW
LayerCount: 2
Back
SplineSet
128 1056 m 25
 880 624 l 25
 128 192 l 1053
EndSplineSet
Fore
SplineSet
79.9987294411 1055.99926354 m 0
 79.9987294411 1082.49165196 101.507189734 1104.00011225 127.999578147 1104.00011225 c 0
 136.681747856 1104.00011225 144.828631319 1101.69005025 151.858593388 1097.6515614 c 2
 903.858593388 665.651561403 l 2
 916.560475705 658.354735391 927.913443927 642.755801566 927.913443927 624.086384358 c 0
 927.913443927 607.423443754 919.106366844 591.164032037 903.785292379 582.362563727 c 2
 151.858593388 150.348438597 l 2
 144.828631319 146.309949749 136.681747856 143.999887751 127.999578147 143.999887751 c 0
 101.507189734 143.999887751 79.9987294411 165.508348043 79.9987294411 192.000736457 c 0
 79.9987294411 209.810955162 89.7204552963 225.367185115 104.037799651 233.59204251 c 2
 783.636836763 624 l 1
 104.037799651 1014.40795749 l 2
 89.7196098344 1022.63134298 79.9987294411 1038.18904484 79.9987294411 1055.99926354 c 0
EndSplineSet
EndChar

StartChar: underscore
Encoding: 95 95 23
Width: 1024
Flags: HW
LayerCount: 2
Back
SplineSet
144 48 m 25
 880 48 l 1049
EndSplineSet
Fore
SplineSet
144 0 m 2
 117.50808 0 96 21.50808 96 48 c 0
 96 74.49192 117.50808 96 144 96 c 2
 880 96 l 2
 906.49192 96 928 74.49192 928 48 c 0
 928 21.50808 906.49192 0 880 0 c 2
 144 0 l 2
EndSplineSet
EndChar

StartChar: asciicircum
Encoding: 94 94 24
Width: 1024
Flags: HW
LayerCount: 2
Back
SplineSet
176 864 m 25
 512 1200 l 25
 848 864 l 1049
EndSplineSet
Fore
SplineSet
175.993345808 816.016066486 m 0
 149.506620594 816.016066486 128.002758102 837.519928978 128.002758102 864.006654192 c 0
 128.002758102 877.250016799 133.378723725 889.247663725 142.06553 897.93447 c 2
 478.06553 1233.93447 l 2
 486.752336275 1242.62127627 498.749983201 1247.9972419 511.993345808 1247.9972419 c 0
 525.236708415 1247.9972419 537.234355341 1242.62127627 545.921161616 1233.93447 c 2
 881.93447 897.93447 l 2
 890.621276275 889.247663725 895.997241898 877.250016799 895.997241898 864.006654192 c 0
 895.997241898 837.519928978 874.493379406 816.016066486 848.006654192 816.016066486 c 0
 834.763291585 816.016066486 822.765644659 821.392032109 814.06553 830.06553 c 2
 512 1132.13106 l 1
 209.93447 830.06553 l 2
 201.234355341 821.392032109 189.236708415 816.016066486 175.993345808 816.016066486 c 0
EndSplineSet
EndChar

StartChar: U
Encoding: 85 85 25
Width: 1024
Flags: HW
AnchorPoint: "top" 512 1272 basechar 0
AnchorPoint: "ogonek" 513 33 basechar 0
AnchorPoint: "cedilla" 512 32 basechar 0
LayerCount: 2
Back
SplineSet
768 288 m 25
 768 1184 l 1049
256 288 m 25
 256 1184 l 1049
768 288 m 0
 768 147 653 32 512 32 c 0
 371 32 256 147 256 288 c 1024
608 1200 m 25
 928 1200 l 1049
96 1200 m 25
 416 1200 l 1049
EndSplineSet
Fore
SplineSet
608 1152 m 2
 581.50808 1152 560 1173.50808 560 1200 c 0
 560 1226.49192 581.50808 1248 608 1248 c 2
 928 1248 l 2
 954.49192 1248 976 1226.49192 976 1200 c 0
 976 1173.50808 954.49192 1152 928 1152 c 2
 816 1152 l 1
 816 288 l 2
 816 120.469572763 679.530427237 -16 512 -16 c 0
 344.469572763 -16 208 120.469572763 208 288 c 2
 208 1152 l 1
 96 1152 l 2
 69.50808 1152 48 1173.50808 48 1200 c 0
 48 1226.49192 69.50808 1248 96 1248 c 2
 416 1248 l 2
 442.49192 1248 464 1226.49192 464 1200 c 0
 464 1173.50808 442.49192 1152 416 1152 c 2
 304 1152 l 1
 304 288 l 2
 304 173.530427237 397.530427237 80 512 80 c 0
 626.469572763 80 720 173.530427237 720 288 c 2
 720 1152 l 1
 608 1152 l 2
EndSplineSet
EndChar

StartChar: J
Encoding: 74 74 26
Width: 1024
Flags: HW
AnchorPoint: "top" 656 1272 basechar 0
AnchorPoint: "ogonek" 401 33 basechar 0
AnchorPoint: "cedilla" 400 32 basechar 0
LayerCount: 2
Back
SplineSet
656 288 m 25
 656 1184 l 1049
144 288 m 25
 144 336 l 1049
144 336 m 0
 144 362 166 384 192 384 c 0
 218 384 240 362 240 336 c 0
 240 310 218 288 192 288 c 0
 166 288 144 310 144 336 c 0
656 288 m 0
 656 147 541 32 400 32 c 0
 259 32 144 147 144 288 c 1024
384 1200 m 25
 928 1200 l 1049
EndSplineSet
Fore
SplineSet
384 1152 m 2
 357.50808 1152 336 1173.50808 336 1200 c 0
 336 1226.49192 357.50808 1248 384 1248 c 2
 928 1248 l 2
 954.49192 1248 976 1226.49192 976 1200 c 0
 976 1173.50808 954.49192 1152 928 1152 c 2
 704 1152 l 1
 704 288 l 2
 704 120.469572763 567.530427237 -16 400 -16 c 0
 232.469572763 -16 96 120.469572763 96 288 c 2
 96 336 l 2
 96 388.839963567 139.160036433 432 192 432 c 0
 244.839963567 432 288 388.839963567 288 336 c 0
 288 285.032548421 247.844723416 243.071116843 197.579577539 240.161112557 c 1
 219.315209853 148.579349732 301.980996219 80 400 80 c 0
 514.469572763 80 608 173.530427237 608 288 c 2
 608 1152 l 1
 384 1152 l 2
EndSplineSet
EndChar

StartChar: question
Encoding: 63 63 27
Width: 1024
Flags: HW
LayerCount: 2
Back
SplineSet
880 1008 m 4
 880 880 778.261505735 866.804702057 696 821 c 4
 608 772 512 721 512 481 c 1028
144 960 m 4
 144 986 166 1008 192 1008 c 4
 218 1008 240 986 240 960 c 4
 240 934 218 912 192 912 c 4
 166 912 144 934 144 960 c 4
144 1008 m 29
 144 960 l 1053
144 1008 m 4
 144 1123 309 1216 512 1216 c 4
 715 1216 880 1123 880 1008 c 1028
416 128 m 4
 416 154 459 176 512 176 c 4
 565 176 608 154 608 128 c 4
 608 102 565 80 512 80 c 4
 459 80 416 102 416 128 c 4
368 128 m 4
 368 181 433 224 512 224 c 4
 591 224 656 181 656 128 c 4
 656 75 591 32 512 32 c 4
 433 32 368 75 368 128 c 4
EndSplineSet
Fore
SplineSet
96 960 m 2
 96 1008 l 2
 96 1062.44902151 122.349788535 1110.33613882 160.992818802 1147.59106487 c 0
 195.462896145 1180.8229355 240.263674981 1206.97023119 291.673633986 1226.28586576 c 0
 355.978128815 1250.44620642 431.302623952 1264 512 1264 c 0
 592.697376048 1264 668.021871185 1250.44620642 732.326366014 1226.28586576 c 0
 783.736325019 1206.97023119 828.537103855 1180.8229355 863.007181198 1147.59106487 c 0
 901.650211465 1110.33613882 928 1062.44902151 928 1008 c 0
 928 953.440972048 911.486707579 909.544381887 883.448847492 877.314933439 c 0
 852.946510467 842.252575055 809.988282047 821.733875857 767.732456818 802.564392262 c 0
 749.167058647 794.142142933 732.263024896 786.246679042 716.645393989 777.554856633 c 0
 667.638105555 750.280383935 628.49452791 727.819693138 600.348023704 679.75273854 c 0
 577.646303481 640.984067758 560 581.102229016 560 481 c 0
 560 454.50808 538.49192 433 512 433 c 0
 485.50808 433 464 454.50808 464 481 c 0
 464 592.094711238 483.523819496 670.231133138 517.444843294 728.15947475 c 0
 560.829681644 802.249565655 623.242062219 835.42842524 672.699592526 862.967277343 c 0
 708.573573332 882.94256211 750.957747506 897.803505105 782.770559149 917.391692433 c 0
 794.724944743 924.752398146 803.991820148 932.218469417 811.000682686 940.275138975 c 0
 823.095290712 954.177859962 832 972.078939415 832 1008 c 0
 832 1030.21764516 821.683121869 1054.10830562 796.40022621 1078.4830092 c 0
 738.729941603 1134.08170768 628.563982365 1168 512 1168 c 0
 395.357462193 1168 285.343444892 1134.15245805 227.59977379 1078.4830092 c 0
 219.327674353 1070.50805354 212.657654615 1062.58491365 207.426882723 1054.75523219 c 1
 252.988522014 1047.33006879 288 1007.59121917 288 960 c 0
 288 907.160036433 244.839963567 864 192 864 c 0
 139.160036433 864 96 907.160036433 96 960 c 2
320 128 m 0
 320 159.272740489 333.041701712 186.957143113 351.785514756 208.189072933 c 0
 385.765940725 246.680174915 443.486036831 272 512 272 c 0
 580.484446228 272 638.261641389 246.648931459 672.214485244 208.189072933 c 0
 690.958298288 186.957143113 704 159.272740489 704 128 c 0
 704 96.7272595112 690.958298288 69.042856887 672.214485244 47.8109270666 c 0
 638.234059275 9.31982508464 580.513963169 -16 512 -16 c 0
 443.515553772 -16 385.738358611 9.3510685409 351.785514756 47.8109270666 c 0
 333.041701712 69.042856887 320 96.7272595112 320 128 c 0
EndSplineSet
EndChar

StartChar: exclam
Encoding: 33 33 28
Width: 1024
Flags: HW
LayerCount: 2
Back
SplineSet
480 864 m 25
 544 864 l 25
 512 752 l 25
 480 864 l 25
432 896 m 25
 592 896 l 25
 512 624 l 25
 432 896 l 25
464 1072 m 0
 464 1098 486 1120 512 1120 c 0
 538 1120 560 1098 560 1072 c 0
 560 1046 538 1024 512 1024 c 0
 486 1024 464 1046 464 1072 c 0
416 1072 m 0
 416 1125 459 1168 512 1168 c 0
 565 1168 608 1125 608 1072 c 0
 608 1019 565 976 512 976 c 0
 459 976 416 1019 416 1072 c 0
656 1072 m 5
 656 960 512 592 512 592 c 29
 512 592 368 960 368 1072 c 1029
368 1072 m 0
 368 1151 433 1216 512 1216 c 0
 591 1216 656 1151 656 1072 c 0
 656 993 591 928 512 928 c 0
 433 928 368 993 368 1072 c 0
416 128 m 0
 416 154 459 176 512 176 c 0
 565 176 608 154 608 128 c 0
 608 102 565 80 512 80 c 0
 459 80 416 102 416 128 c 0
368 128 m 0
 368 181 433 224 512 224 c 0
 591 224 656 181 656 128 c 0
 656 75 591 32 512 32 c 0
 433 32 368 75 368 128 c 0
EndSplineSet
Fore
SplineSet
704 1072 m 0
 704 1042.17644993 697.477852006 1008.26965103 688.022302245 969.167012952 c 0
 676.254589219 920.502616377 659.363743034 864.908700673 641.561400532 810.759908895 c 0
 601.547668891 689.051475153 556.898667744 574.995047579 556.718436416 574.534456394 c 0
 554.378907853 568.555661 550.79605177 562.952686239 545.969809003 558.125013686 c 0
 536.599132701 548.751561298 524.304298595 544.064618573 512.009338344 544.064618573 c 0
 499.719154839 544.064618573 487.428845287 548.747920134 478.059034601 558.114955812 c 0
 473.22781677 562.944742808 469.641582452 568.55133995 467.300390943 574.534384918 c 0
 467.113820229 575.011176741 422.454389738 689.045213491 382.438599468 810.759908895 c 0
 364.636256966 864.908700673 347.745410781 920.502616377 335.977697755 969.167012952 c 0
 326.522147994 1008.26965103 320 1042.17644993 320 1072 c 0
 320 1177.60413187 406.395868134 1264 512 1264 c 0
 617.604131866 1264 704 1177.60413187 704 1072 c 0
320 128 m 0
 320 159.272740489 333.041701712 186.957143113 351.785514756 208.189072933 c 0
 385.765940725 246.680174915 443.486036831 272 512 272 c 0
 580.484446228 272 638.261641389 246.648931459 672.214485244 208.189072933 c 0
 690.958298288 186.957143113 704 159.272740489 704 128 c 0
 704 96.7272595112 690.958298288 69.042856887 672.214485244 47.8109270666 c 0
 638.234059275 9.31982508464 580.513963169 -16 512 -16 c 0
 443.515553772 -16 385.738358611 9.3510685409 351.785514756 47.8109270666 c 0
 333.041701712 69.042856887 320 96.7272595112 320 128 c 0
EndSplineSet
EndChar

StartChar: V
Encoding: 86 86 29
Width: 1024
Flags: HW
AnchorPoint: "top" 512 1272 basechar 0
AnchorPoint: "ogonek" 513 49 basechar 0
AnchorPoint: "cedilla" 512 48 basechar 0
LayerCount: 2
Back
SplineSet
208 1184 m 25
 480 48 l 25
 544 48 l 25
 816 1184 l 1049
640 1200 m 25
 960 1200 l 1049
64 1200 m 25
 384 1200 l 1049
EndSplineSet
Fore
SplineSet
640 1152 m 2
 613.50808 1152 592 1173.50808 592 1200 c 0
 592 1226.49192 613.50808 1248 640 1248 c 2
 960 1248 l 2
 986.49192 1248 1008 1226.49192 1008 1200 c 0
 1008 1173.50808 986.49192 1152 960 1152 c 2
 857.702885424 1152 l 1
 590.62627145 36.7530342114 l 2
 585.481090481 15.2643372252 566.116182352 7.1054273576e-15 544 0 c 2
 479.942680033 0.0451823112105 l 2
 457.826497681 0.0451823112105 438.461589552 15.3095195364 433.316408583 36.7982165226 c 2
 166.296263244 1152 l 1
 64 1152 l 2
 37.50808 1152 16 1173.50808 16 1200 c 0
 16 1226.49192 37.50808 1248 64 1248 c 2
 384 1248 l 2
 410.49192 1248 432 1226.49192 432 1200 c 0
 432 1173.50808 410.49192 1152 384 1152 c 2
 265.027680418 1152 l 1
 512 120.527371159 l 1
 758.972319582 1152 l 1
 640 1152 l 2
EndSplineSet
EndChar

StartChar: Y
Encoding: 89 89 30
Width: 1024
Flags: HW
AnchorPoint: "cedilla" 512 48 basechar 0
AnchorPoint: "ogonek" 705 49 basechar 0
AnchorPoint: "top" 512 1272 basechar 0
LayerCount: 2
Back
SplineSet
192 1184 m 25
 512 624 l 25
 816 1184 l 1049
512 64 m 25
 512 624 l 1049
272 48 m 1
 752 48 l 1029
640 1200 m 25
 960 1200 l 1049
64 1200 m 25
 384 1200 l 1049
EndSplineSet
Fore
SplineSet
272 0 m 2
 245.50808 0 224 21.50808 224 48 c 0
 224 74.49192 245.50808 96 272 96 c 2
 464 96 l 1
 464 611.250920995 l 1
 155.000526283 1152 l 1
 64 1152 l 2
 37.50808 1152 16 1173.50808 16 1200 c 0
 16 1226.49192 37.50808 1248 64 1248 c 2
 384 1248 l 2
 410.49192 1248 432 1226.49192 432 1200 c 0
 432 1173.50808 410.49192 1152 384 1152 c 2
 265.570902289 1152 l 1
 510.923961345 722.632146651 l 1
 744.009367449 1152 l 1
 640 1152 l 2
 613.50808 1152 592 1173.50808 592 1200 c 0
 592 1226.49192 613.50808 1248 640 1248 c 2
 960 1248 l 2
 986.49192 1248 1008 1226.49192 1008 1200 c 0
 1008 1173.50808 986.49192 1152 960 1152 c 2
 853.248146752 1152 l 1
 560 611.76565685 l 1
 560 96 l 1
 752 96 l 2
 778.49192 96 800 74.49192 800 48 c 0
 800 21.50808 778.49192 0 752 0 c 2
 272 0 l 2
EndSplineSet
EndChar

StartChar: quoteright
Encoding: 8217 8217 31
Width: 1024
Flags: HW
LayerCount: 2
Back
SplineSet
656 1104 m 4
 656 864 368 624 368 624 c 1028
416 1104 m 4
 416 1130 459 1152 512 1152 c 4
 565 1152 608 1130 608 1104 c 4
 608 1078 565 1056 512 1056 c 4
 459 1056 416 1078 416 1104 c 4
368 1104 m 4
 368 1157 433 1200 512 1200 c 4
 591 1200 656 1157 656 1104 c 4
 656 1051 591 1008 512 1008 c 4
 433 1008 368 1051 368 1104 c 4
EndSplineSet
Fore
SplineSet
320 1104 m 0
 320 1135.27274049 333.041701712 1162.95714311 351.785514756 1184.18907293 c 0
 385.765940725 1222.68017492 443.486036831 1248 512 1248 c 0
 580.484446228 1248 638.261641389 1222.64893146 672.214485244 1184.18907293 c 0
 690.958298288 1162.95714311 704 1135.27274049 704 1104 c 0
 704 1048.86095679 691.063508799 995.715794186 671.376822541 945.98640442 c 0
 646.753097174 883.785848154 611.396899174 826.510844993 574.537853593 776.597554104 c 0
 491.681863781 664.396734566 400.404101446 588.531753426 398.699421043 587.111186347 c 0
 390.37707912 580.175901039 379.674683808 576.001837499 368.00507688 576.001837499 c 0
 341.51753795 576.001837499 320.013014823 597.506360626 320.013014823 623.993899556 c 0
 320.013014823 638.811831558 326.743119131 652.070267638 337.300578957 660.888813653 c 2
 337.300578957 660.888813653 421.134767844 730.4498615 497.264615542 833.542363592 c 0
 527.815780221 874.913732428 556.356626989 921.0150408 576.664504067 968.172274257 c 1
 556.317116299 962.817248554 534.590327459 960.000000002 512 960 c 0
 443.515553772 960 385.738358611 985.351068541 351.785514756 1023.81092707 c 0
 333.041701712 1045.04285689 320 1072.72725951 320 1104 c 0
EndSplineSet
EndChar

StartChar: quoteleft
Encoding: 8216 8216 32
Width: 1024
Flags: HW
LayerCount: 2
Back
SplineSet
368 720 m 4
 368 960 656 1200 656 1200 c 1028
608 720 m 4
 608 694 565 672 512 672 c 4
 459 672 416 694 416 720 c 4
 416 746 459 768 512 768 c 4
 565 768 608 746 608 720 c 4
656 720 m 4
 656 667 591 624 512 624 c 4
 433 624 368 667 368 720 c 4
 368 773 433 816 512 816 c 4
 591 816 656 773 656 720 c 4
EndSplineSet
Fore
SplineSet
704 720 m 0
 704 688.727259511 690.958298288 661.042856887 672.214485244 639.810927067 c 0
 638.234059275 601.319825085 580.513963169 576 512 576 c 0
 443.515553772 576 385.738358611 601.351068541 351.785514756 639.810927067 c 0
 333.041701712 661.042856887 320 688.727259511 320 720 c 0
 320 775.139043212 332.936491201 828.284205814 352.623177459 878.01359558 c 0
 377.246902826 940.214151846 412.603100826 997.489155007 449.462146407 1047.4024459 c 0
 532.318136219 1159.60326543 623.595898554 1235.46824657 625.300578957 1236.88881365 c 0
 633.62292088 1243.82409896 644.325316192 1247.9981625 655.99492312 1247.9981625 c 0
 682.48246205 1247.9981625 703.986985177 1226.49363937 703.986985177 1200.00610044 c 0
 703.986985177 1185.18816844 697.256880869 1171.92973236 686.699421043 1163.11118635 c 2
 686.699421043 1163.11118635 602.865232156 1093.5501385 526.735384458 990.457636408 c 0
 496.184219779 949.086267572 467.643373011 902.9849592 447.335495933 855.827725743 c 1
 467.682883701 861.182751446 489.409672541 863.999999998 512 864 c 0
 580.484446228 864 638.261641389 838.648931459 672.214485244 800.189072933 c 0
 690.958298288 778.957143113 704 751.272740489 704 720 c 0
EndSplineSet
EndChar

StartChar: quotedblleft
Encoding: 8220 8220 33
Width: 1024
Flags: HW
LayerCount: 2
Back
SplineSet
688 720 m 4
 688 746 710 768 736 768 c 4
 762 768 784 746 784 720 c 4
 784 694 762 672 736 672 c 4
 710 672 688 694 688 720 c 4
640 720 m 4
 640 773 683 816 736 816 c 4
 789 816 832 773 832 720 c 4
 832 667 789 624 736 624 c 4
 683 624 640 667 640 720 c 4
192 720 m 4
 192 960 384 1200 384 1200 c 1053
640 720 m 4
 640 960 832 1200 832 1200 c 1053
240 720 m 4
 240 746 262 768 288 768 c 4
 314 768 336 746 336 720 c 4
 336 694 314 672 288 672 c 4
 262 672 240 694 240 720 c 4
192 720 m 4
 192 773 235 816 288 816 c 4
 341 816 384 773 384 720 c 4
 384 667 341 624 288 624 c 4
 235 624 192 667 192 720 c 4
EndSplineSet
Fore
SplineSet
144 720 m 0
 144 838.033881817 185.004129242 950.771122788 228.97411748 1040.0851614 c 0
 284.025200851 1151.90767449 345.132498356 1228.24151895 346.54750856 1230.01028192 c 0
 355.345199329 1241.00739669 368.87665878 1248.05616961 384.041455861 1248.05616961 c 0
 410.52937828 1248.05616961 432.034212751 1226.55133514 432.034212751 1200.06341272 c 0
 432.034212751 1188.74028738 428.104390187 1178.32777828 421.499605922 1170.04861119 c 2
 421.499605922 1170.04861119 366.165217076 1101.38420451 315.157569763 997.774920909 c 0
 294.675889595 956.171508068 275.60437613 909.73596653 261.797793597 861.618336877 c 1
 270.295043429 863.182558941 279.052665582 864 288 864 c 0
 367.486202548 864 432 799.486202548 432 720 c 0
 432 640.513797452 367.486202548 576 288 576 c 0
 208.513797452 576 144 640.513797452 144 720 c 0
736 864 m 0
 815.486202548 864 880 799.486202548 880 720 c 0
 880 640.513797452 815.486202548 576 736 576 c 0
 656.513797452 576 592 640.513797452 592 720 c 0
 592 838.033881817 633.004129242 950.771122788 676.97411748 1040.0851614 c 0
 732.025200851 1151.90767449 793.132498356 1228.24151895 794.54750856 1230.01028192 c 0
 803.345199329 1241.00739669 816.87665878 1248.05616961 832.041455861 1248.05616961 c 0
 858.52937828 1248.05616961 880.034212751 1226.55133514 880.034212751 1200.06341272 c 0
 880.034212751 1188.74028738 876.104390188 1178.32777828 869.499605922 1170.04861119 c 2
 869.499605922 1170.04861119 814.165217076 1101.38420451 763.157569763 997.774920909 c 0
 742.675889595 956.171508068 723.60437613 909.73596653 709.797793597 861.618336877 c 1
 718.295043429 863.182558941 727.052665582 864 736 864 c 0
EndSplineSet
EndChar

StartChar: quotedblright
Encoding: 8221 8221 34
Width: 1024
Flags: HW
LayerCount: 2
Back
SplineSet
336 1104 m 4
 336 1078 314 1056 288 1056 c 4
 262 1056 240 1078 240 1104 c 4
 240 1130 262 1152 288 1152 c 4
 314 1152 336 1130 336 1104 c 4
384 1104 m 4
 384 1051 341 1008 288 1008 c 4
 235 1008 192 1051 192 1104 c 4
 192 1157 235 1200 288 1200 c 4
 341 1200 384 1157 384 1104 c 4
832 1104 m 4
 832 864 640 624 640 624 c 1053
384 1104 m 4
 384 864 192 624 192 624 c 1053
784 1104 m 4
 784 1078 762 1056 736 1056 c 4
 710 1056 688 1078 688 1104 c 4
 688 1130 710 1152 736 1152 c 4
 762 1152 784 1130 784 1104 c 4
832 1104 m 4
 832 1051 789 1008 736 1008 c 4
 683 1008 640 1051 640 1104 c 4
 640 1157 683 1200 736 1200 c 4
 789 1200 832 1157 832 1104 c 4
EndSplineSet
Fore
SplineSet
880 1104 m 0
 880 985.966118183 838.995870758 873.228877212 795.02588252 783.914838605 c 0
 739.974799149 672.092325508 678.867501644 595.758481047 677.45249144 593.989718081 c 0
 668.654800671 582.992603307 655.12334122 575.943830393 639.958544139 575.943830393 c 0
 613.47062172 575.943830393 591.965787249 597.448664864 591.965787249 623.936587282 c 0
 591.965787249 635.25971262 595.895609813 645.672221721 602.500394078 653.95138881 c 2
 602.500394078 653.95138881 657.834782924 722.615795486 708.842430237 826.225079091 c 0
 729.324110405 867.828491932 748.39562387 914.26403347 762.202206403 962.381663123 c 1
 753.704956571 960.817441059 744.947334418 960 736 960 c 0
 656.513797452 960 592 1024.51379745 592 1104 c 0
 592 1183.48620255 656.513797452 1248 736 1248 c 0
 815.486202548 1248 880 1183.48620255 880 1104 c 0
288 960 m 0
 208.513797452 960 144 1024.51379745 144 1104 c 0
 144 1183.48620255 208.513797452 1248 288 1248 c 0
 367.486202548 1248 432 1183.48620255 432 1104 c 0
 432 985.966118183 390.995870758 873.228877212 347.02588252 783.914838605 c 0
 291.974799149 672.092325508 230.867501644 595.758481047 229.45249144 593.989718081 c 0
 220.654800671 582.992603307 207.12334122 575.943830393 191.958544139 575.943830393 c 0
 165.47062172 575.943830393 143.965787249 597.448664864 143.965787249 623.936587282 c 0
 143.965787249 635.25971262 147.895609812 645.672221721 154.500394078 653.95138881 c 2
 154.500394078 653.95138881 209.834782924 722.615795486 260.842430237 826.225079091 c 0
 281.324110405 867.828491932 300.39562387 914.26403347 314.202206403 962.381663123 c 1
 305.704956571 960.817441059 296.947334418 960 288 960 c 0
EndSplineSet
EndChar

StartChar: quotedbl
Encoding: 34 34 35
Width: 1024
Flags: HW
LayerCount: 2
Back
SplineSet
656 1168 m 7
 656 928 704 640 704 640 c 21
 704 640 752 928 752 1168 c 4
 752 1194 730 1216 704 1216 c 4
 678 1216 656 1194 656 1168 c 1028
272 1168 m 7
 272 928 320 640 320 640 c 21
 320 640 368 928 368 1168 c 4
 368 1194 346 1216 320 1216 c 4
 294 1216 272 1194 272 1168 c 1028
EndSplineSet
Fore
SplineSet
224 1168 m 0
 224 1220.83996357 267.160036433 1264 320 1264 c 0
 372.839963567 1264 416 1220.83996357 416 1168 c 0
 416 922.067740024 367.535096825 633.357131997 367.3195344 632.063757444 c 0
 365.733017094 622.544653606 361.272171137 613.413028901 353.936606712 606.073391425 c 0
 344.569713078 596.701296851 332.278360629 592.014843761 319.986771809 592.014843761 c 0
 307.70413061 592.014843761 295.421253385 596.69447636 286.055981195 606.054551396 c 0
 278.709561924 613.396893853 274.242179029 622.536135059 272.65422341 632.063870037 c 0
 272.441524021 633.340066542 224 922.08051283 224 1168 c 0
608 1168 m 0
 608 1220.83996357 651.160036433 1264 704 1264 c 0
 756.839963567 1264 800 1220.83996357 800 1168 c 0
 800 922.067718733 751.535111689 633.357178997 751.319534435 632.063715475 c 0
 749.733287654 622.54623478 745.27367055 613.416042568 737.94014696 606.076914841 c 0
 728.572949545 596.702559196 716.280003213 592.014822698 703.986731512 592.014822698 c 0
 691.70577304 592.014822698 679.424489851 596.693173206 670.059523779 606.050988217 c 0
 662.711062437 613.393838295 658.242449577 622.534511774 656.65422341 632.063870037 c 0
 656.441524021 633.340066542 608 922.08051283 608 1168 c 0
EndSplineSet
EndChar

StartChar: quotesingle
Encoding: 39 39 36
Width: 1024
Flags: HW
LayerCount: 2
Back
SplineSet
512 1152 m 25
 512 800 l 1049
608 1120 m 0
 608 976 512 640 512 640 c 1024
416 1120 m 0
 416 976 512 640 512 640 c 1024
416 1120 m 0
 416 1173 459 1216 512 1216 c 0
 565 1216 608 1173 608 1120 c 1024
EndSplineSet
Fore
SplineSet
368 1120 m 0
 368 1199.48620255 432.513797452 1264 512 1264 c 0
 591.486202548 1264 656 1199.48620255 656 1120 c 0
 656 1047.52792561 636.219063747 945.06475015 614.79477328 849.994461202 c 0
 589.463546165 737.587140881 561.316833705 637.911869663 558.406502587 627.668944145 c 0
 552.962770918 607.13133518 534.234466464 591.97612287 511.994405419 591.976122717 c 0
 489.33718927 591.976122717 470.67329593 607.739655825 465.471516992 628.098591901 c 0
 461.974280349 640.425834001 434.217264123 739.003544116 409.20522672 849.994461202 c 0
 387.780936253 945.06475015 368 1047.52792561 368 1120 c 0
EndSplineSet
EndChar

StartChar: asterisk
Encoding: 42 42 37
Width: 1024
Flags: HW
LayerCount: 2
Back
SplineSet
322.143554688 1176.84082031 m 29
 440 1004.70800781 l 29
 349.856445312 1192.84082031 l 1053
328 1198.69726562 m 4
 320.206054688 1194.19726562 317.643554688 1184.63476562 322.143554688 1176.84082031 c 4
 326.643554688 1169.046875 336.206054688 1166.484375 344 1170.984375 c 4
 351.793945312 1175.484375 354.356445312 1185.046875 349.856445312 1192.84082031 c 4
 345.356445312 1200.63476562 335.793945312 1203.19726562 328 1198.69726562 c 4
674.143554688 567.159179688 m 29
 584 755.291992188 l 29
 701.856445312 583.159179688 l 1053
696 561.302734375 m 4
 688.206054688 556.802734375 678.643554688 559.365234375 674.143554688 567.159179688 c 4
 669.643554688 574.953125 672.206054688 584.515625 680 589.015625 c 4
 687.793945312 593.515625 697.356445312 590.953125 701.856445312 583.159179688 c 4
 706.356445312 575.365234375 703.793945312 565.802734375 696 561.302734375 c 4
674.143554688 1192.84082031 m 29
 584 1004.70800781 l 29
 701.856445312 1176.84082031 l 1053
696 1198.69726562 m 4
 688.206054688 1203.19726562 678.643554688 1200.63476562 674.143554688 1192.84082031 c 4
 669.643554688 1185.046875 672.206054688 1175.484375 680 1170.984375 c 4
 687.793945312 1166.484375 697.356445312 1169.046875 701.856445312 1176.84082031 c 4
 706.356445312 1184.63476562 703.793945312 1194.19726562 696 1198.69726562 c 4
322.143554688 583.159179688 m 29
 440 755.291992188 l 29
 349.856445312 567.159179688 l 1053
328 561.302734375 m 4
 320.206054688 565.802734375 317.643554688 575.365234375 322.143554688 583.159179688 c 4
 326.643554688 590.953125 336.206054688 593.515625 344 589.015625 c 4
 351.793945312 584.515625 354.356445312 574.953125 349.856445312 567.159179688 c 4
 345.356445312 559.365234375 335.793945312 556.802734375 328 561.302734375 c 4
864 896 m 29
 656 880 l 29
 864 864 l 1053
880 880 m 4
 880 889 873 896 864 896 c 4
 855 896 848 889 848 880 c 4
 848 871 855 864 864 864 c 4
 873 864 880 871 880 880 c 4
160 896 m 29
 368 880 l 29
 160 864 l 1053
144 880 m 4
 144 889 151 896 160 896 c 4
 169 896 176 889 176 880 c 4
 176 871 169 864 160 864 c 4
 151 864 144 871 144 880 c 4
EndSplineSet
Fore
SplineSet
96 880 m 0
 96 914.811942259 124.361585302 944.006824466 159.911202356 944.006824466 c 0
 162.480077472 944.006824466 164.844233861 943.862940286 167.261907951 943.585242794 c 2
 371.725908155 927.857242778 l 2
 382.74940123 927.009281773 393.535060856 922.373722018 401.95821936 913.950563514 c 0
 411.324258885 904.584523989 416.007278648 892.297467698 416.007278648 880.010411407 c 0
 416.007278648 867.723355116 411.324258885 855.436298825 401.95821936 846.070259299 c 0
 393.535060856 837.647100796 382.74940123 833.011541041 371.725908155 832.163580035 c 2
 167.27124468 816.415830339 l 2
 164.850975766 816.137470609 162.48310364 815.993175773 159.911202356 815.993175534 c 0
 124.359528437 815.993175534 96 845.18979554 96 880 c 0
928 880 m 0
 928 845.035621782 899.435626555 815.995920702 863.99984144 815.995920702 c 0
 861.46288767 815.995920702 859.124716914 816.140444443 856.733374743 816.415299222 c 2
 652.379558222 832.145163052 l 2
 637.608470584 833.281400562 623.559169311 841.211355252 615.181631596 854.766496017 c 0
 610.327539468 862.620582065 608.014147515 871.333223459 608.014147515 879.941527117 c 0
 608.014147515 896.03193068 616.096688909 911.757798491 630.777329737 920.830933499 c 0
 637.513833892 924.994322032 644.881943907 927.288616014 652.274091845 927.857242778 c 2
 856.738092049 943.585242794 l 2
 859.127151481 943.859653534 861.465357873 944.004079202 863.99984144 944.004079298 c 0
 899.436552766 944.004079298 928 914.963448212 928 880 c 0
336.121137624 511.08908143 m 0
 298.552715564 511.08908143 271.929901743 542.512517528 271.929901743 575.038042063 c 0
 271.929901743 589.016973543 277.267013704 603.4188284 284.62470287 613.318486286 c 2
 400.366296893 782.362496137 l 2
 408.305830697 793.958419297 421.436345195 803.259496708 440.016548278 803.259496708 c 0
 464.289653639 803.259496708 488.010322726 784.39817894 488.010322726 755.286594501 c 0
 488.010322726 748.025420218 486.3467017 740.971902906 483.296102316 734.60519323 c 2
 394.832676993 549.931703417 l 2
 384.866519698 526.82961446 361.327184493 511.08908143 336.121137624 511.08908143 c 0
687.878862375 1248.91091856 m 0
 725.447284435 1248.91091856 752.070098257 1217.48748247 752.070098257 1184.96195793 c 0
 752.070098257 1170.9286145 746.692016573 1156.52296977 739.369561154 1146.67379725 c 2
 623.615657676 977.647895796 l 2
 615.676123872 966.051972636 602.545609374 956.750895225 583.965406291 956.750895225 c 0
 559.69230093 956.750895225 535.971631843 975.612212993 535.971631843 1004.72379743 c 0
 535.971631843 1011.98497171 537.635252869 1019.03848903 540.685852252 1025.4051987 c 2
 629.171167039 1210.07720541 l 2
 639.142426794 1233.1815471 662.680140863 1248.91091856 687.878862375 1248.91091856 c 0
752.070098257 575.038042063 m 0
 752.070098257 542.509930516 725.47026326 511.08908143 687.878862376 511.08908143 c 0
 662.6594884 511.08908143 639.16309317 526.77060486 629.171167041 549.922794586 c 2
 540.685852252 734.594801295 l 2
 537.635252869 740.961510971 535.971631843 748.015028283 535.971631843 755.276202566 c 0
 535.971631843 784.382282762 559.698033535 803.249104773 583.965406291 803.249104773 c 0
 602.535934798 803.249104773 615.680716649 793.941319476 623.615657676 782.352104202 c 2
 739.369561155 613.326202745 l 2
 746.726653408 603.430442571 752.070098257 589.017032962 752.070098257 575.038042063 c 0
271.929901743 1184.96195793 m 0
 271.929901743 1217.49006948 298.529736742 1248.91091856 336.121137625 1248.91091856 c 0
 361.340871 1248.91091856 384.839929773 1233.23206418 394.832676992 1210.06829658 c 2
 483.296102316 1025.39480677 l 2
 486.3467017 1019.02809709 488.010322726 1011.97457978 488.010322726 1004.7134055 c 0
 488.010322726 975.607325301 464.283921034 956.74050329 440.016548278 956.74050329 c 0
 421.446019771 956.74050329 408.30123792 966.048288588 400.366296893 977.637503861 c 2
 284.624702868 1146.68151372 l 2
 277.315403717 1156.51606358 271.929901743 1170.93864287 271.929901743 1184.96195793 c 0
EndSplineSet
EndChar

StartChar: parenleft
Encoding: 40 40 38
Width: 1024
Flags: HW
LayerCount: 2
Back
SplineSet
720 1392 m 4
 720 1392 336 1104 336 624 c 4
 336 144 720 -144 720 -144 c 1028
EndSplineSet
Fore
SplineSet
720.077066313 1440.0444527 m 0
 746.56571212 1440.0444527 768.071133892 1418.53903093 768.071133892 1392.05038512 c 0
 768.071133892 1376.34432371 760.51041598 1362.39022752 748.759684641 1353.57717901 c 1
 748.759684641 1353.57717901 384 1079.30839715 384 624 c 0
 384 168.691603839 748.833197692 -105.632313799 748.833197692 -105.632313799 c 1
 760.510416494 -114.390228485 768.071133877 -128.344324246 768.071133877 -144.050385117 c 0
 768.071133877 -170.539030924 746.565712107 -192.044452695 720.0770663 -192.044452695 c 0
 709.294481363 -192.044452695 699.337623789 -188.480973498 691.240314137 -182.422820077 c 0
 688.455761807 -180.33440569 565.828143275 -88.2975587098 455.913459 80.0093015869 c 0
 368.031575928 214.578435041 288 398.907500241 288 624 c 0
 288 849.092499759 368.031575928 1033.42156496 455.913459 1167.99069841 c 0
 565.828143657 1336.29755929 688.455760376 1428.33440475 691.240315359 1430.42282099 c 0
 699.337624812 1436.48097387 709.294481923 1440.0444527 720.077066313 1440.0444527 c 0
EndSplineSet
EndChar

StartChar: parenright
Encoding: 41 41 39
Width: 1024
Flags: HW
LayerCount: 2
Back
SplineSet
304 1392 m 4
 304 1392 688 1104 688 624 c 4
 688 144 304 -144 304 -144 c 1028
EndSplineSet
Fore
SplineSet
256.009486891 1392.00474876 m 0
 256.009486891 1418.49339457 277.514908662 1439.99881634 304.00355447 1439.99881634 c 0
 314.786138859 1439.99881634 324.74299597 1436.4353375 332.759684641 1430.42282099 c 0
 335.544239624 1428.33440475 458.171856343 1336.29755929 568.086541 1167.99069841 c 0
 655.968424072 1033.42156496 736 849.092499759 736 624 c 0
 736 398.907500241 655.968424072 214.578435041 568.086541 80.0093015869 c 0
 458.171856725 -88.2975587098 335.544238193 -180.33440569 332.759685863 -182.422820077 c 0
 324.742996982 -188.435337139 314.786139407 -191.998816336 304.003554471 -191.998816336 c 0
 277.514908664 -191.998816336 256.009486893 -170.493394565 256.009486893 -144.004748758 c 0
 256.009486893 -128.251395121 263.613908359 -114.296984839 275.240314137 -105.577179923 c 1
 275.240314137 -105.577179923 640 168.691603839 640 624 c 0
 640 1079.30839715 275.166803516 1353.63231289 275.166803516 1353.63231289 c 1
 263.570204802 1362.34459115 256.009486891 1376.29868734 256.009486891 1392.00474876 c 0
EndSplineSet
EndChar

StartChar: E
Encoding: 69 69 40
Width: 1024
Flags: HW
AnchorPoint: "top" 512 1272 basechar 0
AnchorPoint: "ogonek" 769 49 basechar 0
AnchorPoint: "cedilla" 512 48 basechar 0
LayerCount: 2
Back
SplineSet
592 672 m 29
 320 672 l 1053
608 480 m 29
 608 864 l 1053
96 48 m 29
 880 48 l 29
 880 384 l 1053
304 1184 m 29
 304 64 l 1053
96 1200 m 29
 864 1200 l 29
 864 864 l 1053
EndSplineSet
Fore
SplineSet
927.961552007 48.0412988564 m 2
 927.961552007 20.5522486147 905.778654302 7.28746112209e-15 880 0 c 2
 96 0 l 2
 69.50808 0 48 21.50808 48 48 c 0
 48 74.49192 69.50808 96 96 96 c 2
 256 96 l 1
 256 1152 l 1
 96 1152 l 2
 69.50808 1152 48 1173.50808 48 1200 c 0
 48 1226.49192 69.50808 1248 96 1248 c 2
 864 1248 l 2
 890.49192 1248 912 1226.49192 912 1200 c 2
 912 864 l 2
 912 837.50808 890.49192 816 864 816 c 0
 837.50808 816 816 837.50808 816 864 c 2
 816 1152 l 1
 352 1152 l 1
 352 720 l 1
 560 720 l 1
 560 864 l 2
 560 890.49192 581.50808 912 608 912 c 0
 634.49192 912 656 890.49192 656 864 c 2
 656 480 l 2
 656 453.50808 634.49192 432 608 432 c 0
 581.50808 432 560 453.50808 560 480 c 2
 560 624 l 1
 352 624 l 1
 352 96 l 1
 832 96 l 1
 832 384 l 2
 832 410.49192 853.50808 432 880 432 c 0
 906.49192 432 928 410.49192 928 384 c 2
 927.961552007 48.0412988564 l 2
EndSplineSet
EndChar

StartChar: F
Encoding: 70 70 41
Width: 1024
Flags: HW
AnchorPoint: "top" 512 1272 basechar 0
AnchorPoint: "ogonek" 384 48 basechar 0
AnchorPoint: "cedilla" 512 48 basechar 0
LayerCount: 2
Back
SplineSet
-312 694 m 1053
592 672 m 25
 320 672 l 1049
608 480 m 25
 608 864 l 1049
96 48 m 25
 512 48 l 1049
304 1184 m 25
 304 64 l 1049
96 1200 m 25
 880 1200 l 25
 880 864 l 1049
EndSplineSet
Fore
SplineSet
656 480 m 2
 656 453.50808 634.49192 432 608 432 c 0
 581.50808 432 560 453.50808 560 480 c 2
 560 624 l 1
 352 624 l 1
 352 96 l 1
 512 96 l 2
 538.49192 96 560 74.49192 560 48 c 0
 560 21.50808 538.49192 0 512 0 c 2
 96 0 l 2
 69.50808 0 48 21.50808 48 48 c 0
 48 74.49192 69.50808 96 96 96 c 2
 256 96 l 1
 256 1152 l 1
 96 1152 l 2
 69.50808 1152 48 1173.50808 48 1200 c 0
 48 1226.49192 69.50808 1248 96 1248 c 2
 880 1248 l 2
 906.49192 1248 928 1226.49192 928 1200 c 2
 928 864 l 2
 928 837.50808 906.49192 816 880 816 c 0
 853.50808 816 832 837.50808 832 864 c 2
 832 1152 l 1
 352 1152 l 1
 352 720 l 1
 560 720 l 1
 560 864 l 2
 560 890.49192 581.50808 912 608 912 c 0
 634.49192 912 656 890.49192 656 864 c 2
 656 480 l 2
EndSplineSet
EndChar

StartChar: K
Encoding: 75 75 42
Width: 1024
Flags: HW
AnchorPoint: "top" 512 1272 basechar 0
AnchorPoint: "ogonek" 817 49 basechar 0
AnchorPoint: "cedilla" 512 48 basechar 0
LayerCount: 2
Back
SplineSet
808 64 m 29
 433 731 l 1053
784 1184 m 29
 260 516 l 1053
256 1184 m 29
 256 64 l 1053
416 48 m 29
 96 48 l 1053
944 48 m 29
 624 48 l 1053
592 1200 m 29
 912 1200 l 1053
96 1200 m 29
 416 1200 l 1053
EndSplineSet
Fore
SplineSet
416 96 m 2
 442.49192 96 464 74.49192 464 48 c 0
 464 21.50808 442.49192 0 416 0 c 2
 96 0 l 2
 69.50808 0 48 21.50808 48 48 c 0
 48 74.49192 69.50808 96 96 96 c 2
 208 96 l 1
 208 1152 l 1
 96 1152 l 2
 69.50808 1152 48 1173.50808 48 1200 c 0
 48 1226.49192 69.50808 1248 96 1248 c 2
 416 1248 l 2
 442.49192 1248 464 1226.49192 464 1200 c 0
 464 1173.50808 442.49192 1152 416 1152 c 2
 304 1152 l 1
 304 649.851411387 l 1
 697.900988673 1152 l 1
 592 1152 l 2
 565.50808 1152 544 1173.50808 544 1200 c 0
 544 1226.49192 565.50808 1248 592 1248 c 2
 912 1248 l 2
 938.49192 1248 960 1226.49192 960 1200 c 0
 960 1173.50808 938.49192 1152 912 1152 c 2
 819.895418513 1152 l 1
 488.728247274 729.825056512 l 1
 845.076667351 96 l 1
 944 96 l 2
 970.49192 96 992 74.49192 992 48 c 0
 992 21.50808 970.49192 0 944 0 c 2
 624 0 l 2
 597.50808 0 576 21.50808 576 48 c 0
 576 74.49192 597.50808 96 624 96 c 2
 734.941323653 96 l 1
 424.573796491 648.040374979 l 1
 304 494.33179472 l 1
 304 96 l 1
 416 96 l 2
EndSplineSet
EndChar

StartChar: L
Encoding: 76 76 43
Width: 1024
Flags: HW
AnchorPoint: "top" 512 1272 basechar 0
AnchorPoint: "ogonek" 769 49 basechar 0
AnchorPoint: "cedilla" 512 48 basechar 0
LayerCount: 2
Back
SplineSet
304 1184 m 29
 304 64 l 1053
96 1200 m 29
 544 1200 l 1053
96 48 m 29
 880 48 l 29
 880 432 l 1053
EndSplineSet
Fore
SplineSet
927.961552007 48.0412988564 m 2
 927.961552007 20.5522486147 905.778654302 7.28746112209e-15 880 0 c 2
 96 0 l 2
 69.50808 0 48 21.50808 48 48 c 0
 48 74.49192 69.50808 96 96 96 c 2
 256 96 l 1
 256 1152 l 1
 96 1152 l 2
 69.50808 1152 48 1173.50808 48 1200 c 0
 48 1226.49192 69.50808 1248 96 1248 c 2
 544 1248 l 2
 570.49192 1248 592 1226.49192 592 1200 c 0
 592 1173.50808 570.49192 1152 544 1152 c 2
 352 1152 l 1
 352 96 l 1
 832 96 l 1
 832 432 l 2
 832 458.49192 853.50808 480 880 480 c 0
 906.49192 480 928 458.49192 928 432 c 2
 927.961552007 48.0412988564 l 2
EndSplineSet
EndChar

StartChar: X
Encoding: 88 88 44
Width: 1024
Flags: HW
AnchorPoint: "top" 512 1272 basechar 0
AnchorPoint: "ogonek" 817 49 basechar 0
AnchorPoint: "cedilla" 512 48 basechar 0
LayerCount: 2
Back
SplineSet
236 1184 m 25
 804 64 l 1049
220 64 m 25
 788 1184 l 1053
624 48 m 25
 944 48 l 1049
80 48 m 25
 400 48 l 1049
608 1200 m 25
 928 1200 l 1049
96 1200 m 25
 416 1200 l 1049
EndSplineSet
Fore
SplineSet
624 0 m 2
 597.50808 0 576 21.50808 576 48 c 0
 576 74.49192 597.50808 96 624 96 c 2
 733.947255386 96 l 1
 512 533.642475409 l 1
 290.052744614 96 l 1
 400 96 l 2
 426.49192 96 448 74.49192 448 48 c 0
 448 21.50808 426.49192 0 400 0 c 2
 80 0 l 2
 53.50808 0 32 21.50808 32 48 c 0
 32 74.49192 53.50808 96 80 96 c 2
 182.404398243 96 l 1
 458.175826815 639.774647887 l 1
 198.404398243 1152 l 1
 96 1152 l 2
 69.50808 1152 48 1173.50808 48 1200 c 0
 48 1226.49192 69.50808 1248 96 1248 c 2
 416 1248 l 2
 442.49192 1248 464 1226.49192 464 1200 c 0
 464 1173.50808 442.49192 1152 416 1152 c 2
 306.052744614 1152 l 1
 512 745.906820366 l 1
 717.947255386 1152 l 1
 608 1152 l 2
 581.50808 1152 560 1173.50808 560 1200 c 0
 560 1226.49192 581.50808 1248 608 1248 c 2
 928 1248 l 2
 954.49192 1248 976 1226.49192 976 1200 c 0
 976 1173.50808 954.49192 1152 928 1152 c 2
 825.595601757 1152 l 1
 565.824173185 639.774647887 l 1
 841.595601757 96 l 1
 944 96 l 2
 970.49192 96 992 74.49192 992 48 c 0
 992 21.50808 970.49192 0 944 0 c 2
 624 0 l 2
EndSplineSet
EndChar

StartChar: M
Encoding: 77 77 45
Width: 1024
Flags: HW
AnchorPoint: "top" 512 1272 basechar 0
AnchorPoint: "ogonek" 817 49 basechar 0
AnchorPoint: "cedilla" 512 48 basechar 0
LayerCount: 2
Back
SplineSet
816 64 m 29
 816 1184 l 1053
208 1184 m 29
 208 64 l 1053
944 1200 m 29
 752 1200 l 29
 512 432 l 29
 272 1200 l 29
 80 1200 l 1053
656 48 m 29
 944 48 l 1053
80 48 m 29
 368 48 l 1053
EndSplineSet
Fore
SplineSet
944 1248 m 2
 970.49192 1248 992 1226.49192 992 1200 c 0
 992 1173.50808 970.49192 1152 944 1152 c 2
 864 1152 l 1
 864 96 l 1
 944 96 l 2
 970.49192 96 992 74.49192 992 48 c 0
 992 21.50808 970.49192 0 944 0 c 2
 656 0 l 2
 629.50808 0 608 21.50808 608 48 c 0
 608 74.49192 629.50808 96 656 96 c 2
 768 96 l 1
 768 1090.24318423 l 1
 557.82516024 417.683696994 l 2
 551.727306647 398.170565497 533.50125137 383.992558719 511.98987647 383.992558719 c 0
 490.47850157 383.992558719 472.252446294 398.170565497 466.154592701 417.683696994 c 2
 256 1090.23513192 l 1
 256 96 l 1
 368 96 l 2
 394.49192 96 416 74.49192 416 48 c 0
 416 21.50808 394.49192 0 368 0 c 2
 80 0 l 2
 53.50808 0 32 21.50808 32 48 c 0
 32 74.49192 53.50808 96 80 96 c 2
 160 96 l 1
 160 1152 l 1
 80 1152 l 2
 53.50808 1152 32 1173.50808 32 1200 c 0
 32 1226.49192 53.50808 1248 80 1248 c 2
 272.055668232 1247.95908117 l 2
 292.961845266 1247.95908117 311.590942962 1234.2657983 317.82516024 1214.31630301 c 2
 512.004093235 592.943717419 l 1
 706.230507993 1214.35722183 l 2
 712.464725271 1234.30671712 731.093822967 1248 752 1248 c 2
 944 1248 l 2
EndSplineSet
EndChar

StartChar: N
Encoding: 78 78 46
Width: 1024
Flags: HW
AnchorPoint: "ogonek" 769 49 basechar 0
AnchorPoint: "top" 512 1272 basechar 0
AnchorPoint: "cedilla" 512 48 basechar 0
LayerCount: 2
Back
SplineSet
608 1200 m 25
 928 1200 l 1049
96 1200 m 25
 304 1200 l 25
 768 48 l 29
 768 1184 l 1049
256 64 m 25
 256 1184 l 1049
96 48 m 25
 416 48 l 1049
EndSplineSet
Fore
SplineSet
608 1152 m 2
 581.50808 1152 560 1173.50808 560 1200 c 0
 560 1226.49192 581.50808 1248 608 1248 c 2
 928 1248 l 2
 954.49192 1248 976 1226.49192 976 1200 c 0
 976 1173.50808 954.49192 1152 928 1152 c 2
 815.999231784 1152 l 1
 815.972728206 47.9947236734 l 2
 815.972728206 38.7527933869 813.311097545 29.4146387415 807.753742721 21.1879455835 c 0
 798.485158921 7.46742613881 783.341587901 0.0651564846272 767.926012432 0.0651564846272 c 0
 758.677748867 0.0651564846272 749.331586602 2.72935029326 741.097345351 8.29180405942 c 0
 732.867761472 13.8511116444 726.909253473 21.5215114685 723.455914858 30.0953176852 c 2
 304 1071.5031063 l 1
 304 96 l 1
 416 96 l 2
 442.49192 96 464 74.49192 464 48 c 0
 464 21.50808 442.49192 0 416 0 c 2
 96 0 l 2
 69.50808 0 48 21.50808 48 48 c 0
 48 74.49192 69.50808 96 96 96 c 2
 208 96 l 1
 208 1152 l 1
 96 1152 l 2
 69.50808 1152 48 1173.50808 48 1200 c 0
 48 1226.49192 69.50808 1248 96 1248 c 2
 304 1248 l 2
 323.502973905 1248 341.207123429 1236.03854647 348.498686724 1217.93535485 c 2
 720 295.652946187 l 1
 720 1152 l 1
 608 1152 l 2
EndSplineSet
EndChar

StartChar: W
Encoding: 87 87 47
Width: 1024
Flags: HW
AnchorPoint: "top" 512 1272 basechar 0
AnchorPoint: "ogonek" 737 49 basechar 0
AnchorPoint: "cedilla" 512 48 basechar 0
LayerCount: 2
Back
SplineSet
192 1184 m 25
 256 48 l 25
 320 48 l 25
 512 816 l 25
 704 48 l 25
 768 48 l 25
 832 1184 l 1049
656 1200 m 25
 944 1200 l 1049
80 1200 m 25
 368 1200 l 1049
EndSplineSet
Fore
SplineSet
656 1152 m 2
 629.50808 1152 608 1173.50808 608 1200 c 0
 608 1226.49192 629.50808 1248 656 1248 c 2
 944 1248 l 2
 970.49192 1248 992 1226.49192 992 1200 c 0
 992 1173.50808 970.49192 1152 944 1152 c 2
 878.273925232 1152 l 1
 815.899646736 45.2403469764 l 2
 814.471436592 19.8896169256 793.412676257 7.1054273576e-15 768 0 c 2
 703.942470617 0.0448876841221 l 2
 682.005214786 0.0448876841221 662.745403469 15.0724838044 657.429237472 36.3371477934 c 2
 511.994384928 618.076557969 l 1
 366.513233146 36.2922601093 l 2
 361.197067149 15.0275961203 341.937255832 0 320 0 c 2
 255.976559032 0.0221395688579 l 2
 230.563882775 0.0221395688579 209.50512244 19.9117564945 208.076912296 45.2624865452 c 2
 145.725503087 1152 l 1
 80 1152 l 2
 53.50808 1152 32 1173.50808 32 1200 c 0
 32 1226.49192 53.50808 1248 80 1248 c 2
 368 1248 l 2
 394.49192 1248 416 1226.49192 416 1200 c 0
 416 1173.50808 394.49192 1152 368 1152 c 2
 241.880130716 1152 l 1
 297.904662891 157.564553885 l 1
 465.429237472 827.662852207 l 2
 470.645597586 848.528292666 489.531858004 864.003060831 512.003922852 864.003060831 c 0
 534.4759877 864.003060831 553.362248117 848.528292666 558.578608232 827.662852207 c 2
 726.095521049 157.567818819 l 1
 782.119869284 1152 l 1
 656 1152 l 2
EndSplineSet
EndChar

StartChar: Z
Encoding: 90 90 48
Width: 1024
Flags: HW
AnchorPoint: "top" 512 1272 basechar 0
AnchorPoint: "ogonek" 769 49 basechar 0
AnchorPoint: "cedilla" 512 48 basechar 0
LayerCount: 2
Back
SplineSet
160 864 m 25
 160 1200 l 25
 864 1200 l 25
 128 48 l 25
 896 48 l 25
 896 432 l 1053
EndSplineSet
Fore
SplineSet
864 1248 m 2
 893.172646605 1248 912.031933852 1224.17489283 912.031933852 1200.00715074 c 0
 912.031933852 1189.84054058 908.711705204 1180.7996089 904.48883734 1174.18990268 c 2
 215.625715173 96 l 1
 848 96 l 1
 848 432 l 2
 848 458.49192 869.50808 480 896 480 c 0
 922.49192 480 944 458.49192 944 432 c 2
 943.961552007 48.0412988564 l 2
 943.961552007 20.5522486147 921.778654302 7.28746112209e-15 896 0 c 2
 128.009660951 -0.0176116629209 l 2
 98.8370143463 -0.0176116629209 79.9777270988 23.8074955041 79.9777270988 47.9752375946 c 0
 79.9777270988 58.1418477615 83.2979557471 67.182779437 87.5208236114 73.7924856594 c 2
 776.37562444 1152 l 1
 208 1152 l 1
 208 864 l 2
 208 837.50808 186.49192 816 160 816 c 0
 133.50808 816 112 837.50808 112 864 c 2
 112 1200 l 2
 112 1226.49192 133.50808 1248 160 1248 c 2
 864 1248 l 2
EndSplineSet
EndChar

StartChar: A
Encoding: 65 65 49
Width: 1024
Flags: HW
AnchorPoint: "cedilla" 512 48 basechar 0
AnchorPoint: "ogonek" 817 49 basechar 0
AnchorPoint: "top" 512 1272 basechar 0
LayerCount: 2
Back
SplineSet
336 464 m 29
 688 464 l 1053
208 64 m 29
 480 1200 l 29
 544 1200 l 29
 816 64 l 1053
64 48 m 29
 384 48 l 1045
640 48 m 13
 960 48 l 1053
EndSplineSet
Fore
SplineSet
659.366685779 512 m 1
 512 1127.47262884 l 1
 364.633314221 512 l 1
 659.366685779 512 l 1
64 0 m 2
 37.50808 0 16 21.50808 16 48 c 0
 16 74.49192 37.50808 96 64 96 c 2
 166.296263244 96 l 1
 433.316408583 1211.20178348 l 2
 438.461589552 1232.69048046 457.82649768 1247.95481769 479.942680033 1247.95481769 c 2
 544 1248 l 2
 566.116182352 1248 585.481090481 1232.73566277 590.62627145 1211.24696579 c 2
 857.702885424 96 l 1
 960 96 l 2
 986.49192 96 1008 74.49192 1008 48 c 0
 1008 21.50808 986.49192 0 960 0 c 2
 640 0 l 2
 613.50808 0 592 21.50808 592 48 c 0
 592 74.49192 613.50808 96 640 96 c 2
 758.972319582 96 l 1
 682.352601272 416 l 1
 341.647398728 416 l 1
 265.027680418 96 l 1
 384 96 l 2
 410.49192 96 432 74.49192 432 48 c 0
 432 21.50808 410.49192 0 384 0 c 2
 64 0 l 2
EndSplineSet
EndChar

StartChar: T
Encoding: 84 84 50
Width: 1024
Flags: HW
AnchorPoint: "top" 512 1272 basechar 0
AnchorPoint: "ogonek" 641 49 basechar 0
AnchorPoint: "cedilla" 512 48 basechar 0
LayerCount: 2
Back
SplineSet
272 48 m 29
 752 48 l 1053
512 1184 m 29
 512 64 l 1053
144 816 m 29
 144 1200 l 29
 880 1200 l 29
 880 816 l 1053
EndSplineSet
Fore
SplineSet
272 0 m 2
 245.50808 0 224 21.50808 224 48 c 0
 224 74.49192 245.50808 96 272 96 c 2
 464 96 l 1
 464 1152 l 1
 192 1152 l 1
 192 816 l 2
 192 789.50808 170.49192 768 144 768 c 0
 117.50808 768 96 789.50808 96 816 c 2
 96 1200 l 2
 96 1226.49192 117.50808 1248 144 1248 c 2
 880 1248 l 2
 906.49192 1248 928 1226.49192 928 1200 c 2
 928 816 l 2
 928 789.50808 906.49192 768 880 768 c 0
 853.50808 768 832 789.50808 832 816 c 2
 832 1152 l 1
 560 1152 l 1
 560 96 l 1
 752 96 l 2
 778.49192 96 800 74.49192 800 48 c 0
 800 21.50808 778.49192 0 752 0 c 2
 272 0 l 2
EndSplineSet
EndChar

StartChar: bracketleft
Encoding: 91 91 51
Width: 1024
Flags: HW
LayerCount: 2
Back
SplineSet
720 1392 m 25
 336 1392 l 25
 336 -144 l 25
 720 -144 l 1053
EndSplineSet
Fore
SplineSet
288.039313977 1391.94851432 m 2
 288.039313977 1420.53824064 311.116522379 1440 336 1440 c 2
 720 1440 l 2
 746.49192 1440 768 1418.49192 768 1392 c 0
 768 1365.50808 746.49192 1344 720 1344 c 2
 384 1344 l 1
 384 -96 l 1
 720 -96 l 2
 746.49192 -96 768 -117.50808 768 -144 c 0
 768 -170.49192 746.49192 -192 720 -192 c 2
 335.990587706 -191.990587706 l 2
 323.703179027 -191.990587706 311.415770348 -187.307433636 302.049462209 -177.941125497 c 0
 292.68315407 -168.574817358 288 -156.287408679 288 -144 c 2
 288.039313977 1391.94851432 l 2
EndSplineSet
EndChar

StartChar: bracketright
Encoding: 93 93 52
Width: 1024
Flags: HW
LayerCount: 2
Back
SplineSet
-262 -178 m 1053
304 1392 m 25
 688 1392 l 25
 688 -144 l 25
 304 -144 l 1049
EndSplineSet
Fore
SplineSet
736 -144 m 2
 736 -172.589726317 712.922791599 -192.051485675 688.039313977 -192.051485675 c 2
 304 -192 l 2
 277.50808 -192 256 -170.49192 256 -144 c 0
 256 -117.50808 277.50808 -96 304 -96 c 2
 640 -96 l 1
 640 1344 l 1
 304 1344 l 2
 277.50808 1344 256 1365.50808 256 1392 c 0
 256 1418.49192 277.50808 1440 304 1440 c 2
 688 1440 l 2
 697.722395132 1440 707.533764695 1437.05825984 716.015952871 1430.9446445 c 0
 729.025127765 1421.56816175 735.944839593 1406.86616539 735.944839593 1391.95487882 c 2
 736 -144 l 2
EndSplineSet
EndChar

StartChar: numbersign
Encoding: 35 35 53
Width: 1024
Flags: HW
LayerCount: 2
Back
SplineSet
768 1392 m 29
 512 -144 l 1053
256 -144 m 29
 512 1392 l 1053
880 480 m 29
 144 480 l 1053
144 768 m 29
 880 768 l 1053
EndSplineSet
Fore
SplineSet
416.668464917 528 m 1
 575.331535083 528 l 1
 607.331535083 720 l 1
 448.668464917 720 l 1
 416.668464917 528 l 1
768.008456651 1440.09521102 m 0
 794.503841615 1440.09521102 816.014734727 1418.58431791 816.014734727 1392.08893295 c 0
 816.014734727 1389.38546311 815.790779589 1386.73388803 815.345776421 1384.06386902 c 2
 720.668464917 816 l 1
 880 816 l 2
 906.49192 816 928 794.49192 928 768 c 0
 928 741.50808 906.49192 720 880 720 c 2
 704.668464917 720 l 1
 672.668464917 528 l 1
 880 528 l 2
 906.49192 528 928 506.49192 928 480 c 0
 928 453.50808 906.49192 432 880 432 c 2
 656.668464917 432 l 1
 559.345776421 -151.936130977 l 2
 555.558441371 -174.660141274 535.785722621 -192.005240084 511.993807492 -192.005240084 c 0
 485.498422527 -192.005240084 463.987529415 -170.494346972 463.987529415 -143.998962008 c 0
 463.987529415 -141.295492172 464.223866534 -138.646011293 464.654223579 -136.063869023 c 2
 559.331535083 432 l 1
 400.668464917 432 l 1
 303.345776421 -151.936130977 l 2
 299.556177229 -174.750112213 279.783458478 -192.095211023 255.991543349 -192.095211023 c 0
 229.496158385 -192.095211023 207.985265273 -170.584317911 207.985265273 -144.088932946 c 0
 207.985265273 -141.385463111 208.209220411 -138.733888032 208.654223579 -136.063869023 c 2
 303.331535083 432 l 1
 144 432 l 2
 117.50808 432 96 453.50808 96 480 c 0
 96 506.49192 117.50808 528 144 528 c 2
 319.331535083 528 l 1
 351.331535083 720 l 1
 144 720 l 2
 117.50808 720 96 741.50808 96 768 c 0
 96 794.49192 117.50808 816 144 816 c 2
 367.331535083 816 l 1
 464.654223579 1399.93613098 l 2
 468.441558629 1422.66014127 488.214277379 1440.00524008 512.006192508 1440.00524008 c 0
 538.501577473 1440.00524008 560.012470585 1418.49434697 560.012470585 1391.99896201 c 0
 560.012470585 1389.29549217 559.776133466 1386.64601129 559.345776421 1384.06386902 c 2
 464.668464917 816 l 1
 623.331535083 816 l 1
 720.654223579 1399.93613098 l 2
 724.443822771 1422.75011221 744.216541522 1440.09521102 768.008456651 1440.09521102 c 0
EndSplineSet
EndChar

StartChar: percent
Encoding: 37 37 54
Width: 1024
Flags: HW
LayerCount: 2
Back
SplineSet
342.910838865 1205.12535906 m 17
 630.910838865 1205.12535906 896 1392 896 1392 c 25
 128 -144 l 1049
595.291992188 296 m 0
 634.775356203 364.38729334 699.949804128 405.125359062 758.910838865 405.125359062 c 0
 779.095411879 405.125359062 798.551804175 400.351063022 816 390.27734375 c 0
 856.078263542 367.138150457 877.239924261 320.842732353 877.239924261 268.00758038 c 0
 877.239924261 230.649937969 866.660482634 190.022857793 844.708007812 152 c 0
 805.224643797 83.6127066599 740.050195872 42.8746409379 681.089161135 42.8746409379 c 0
 660.904588121 42.8746409379 641.448195825 47.6489369783 624 57.72265625 c 0
 583.921736458 80.8618495434 562.760075739 127.157267647 562.760075739 179.99241962 c 0
 562.760075739 217.350062031 573.339517366 257.977142207 595.291992188 296 c 0
179.291992188 1096 m 0
 218.775356203 1164.38729334 283.949804128 1205.12535906 342.910838865 1205.12535906 c 0
 363.095411879 1205.12535906 382.551804175 1200.35106302 400 1190.27734375 c 0
 440.078263542 1167.13815046 461.239924261 1120.84273235 461.239924261 1068.00758038 c 0
 461.239924261 1030.64993797 450.660482634 990.022857793 428.708007812 952 c 0
 389.224643797 883.61270666 324.050195872 842.874640938 265.089161135 842.874640938 c 0
 244.904588121 842.874640938 225.448195825 847.648936978 208 857.72265625 c 0
 167.921736458 880.861849543 146.760075739 927.157267647 146.760075739 979.99241962 c 0
 146.760075739 1017.35006203 157.339517366 1057.97714221 179.291992188 1096 c 0
EndSplineSet
Fore
SplineSet
896.03410042 1439.99205255 m 0
 921.673516096 1439.99205255 943.979284267 1419.6156839 943.979284267 1391.96104966 c 0
 943.979284267 1384.33524622 942.171657555 1377.0668297 938.938073208 1370.59966101 c 2
 170.911993743 -165.516626707 l 2
 163.034877526 -181.27085914 146.745898125 -192.099322559 127.947754805 -192.099322559 c 0
 101.453527687 -192.099322559 79.9435745998 -170.589369472 79.9435745998 -144.095142354 c 0
 79.9435745998 -136.399058557 81.7585741801 -129.123545424 85.0395040087 -122.58038184 c 2
 781.97008355 1271.28077724 l 1
 760.143317039 1260.54740255 736.2507474 1249.53531776 710.621907557 1238.77482152 c 0
 644.979008219 1211.2140667 567.753767163 1185.11627587 484.199609345 1170.13944734 c 1
 501.252165561 1139.51236151 509.239924261 1103.73044318 509.239924261 1068.00758038 c 0
 509.239924261 1021.52896287 496.309406631 973.087685114 470.307762259 928.051449593 c 0
 444.327301266 883.051904814 408.666047997 847.461409383 368.552164292 824.277653106 c 0
 336.493450655 805.749369757 301.258641682 794.874640938 265.089161135 794.874640938 c 0
 237.215251536 794.874640938 209.275298866 801.559907492 184.051425365 816.122915791 c 0
 125.047203705 850.189014704 98.760075739 915.187890881 98.760075739 979.99241962 c 0
 98.760075739 1026.47103713 111.690593368 1074.91231489 137.692237741 1119.94855041 c 0
 163.672698734 1164.94809519 199.333952003 1200.53859062 239.447835709 1223.72234689 c 0
 271.506549345 1242.25063024 306.741358318 1253.12535906 342.910838865 1253.12535906 c 0
 613.419774595 1253.12535906 868.388843123 1431.25807394 868.388843123 1431.25807394 c 2
 876.093449704 1436.68943665 884.92762828 1439.99205255 896.03410042 1439.99205255 c 0
194.760075739 979.99241962 m 0
 194.760075739 939.126644413 210.796269211 911.534684382 231.948574635 899.322396709 c 0
 241.621092784 893.737966464 252.593924706 890.874640938 265.089161135 890.874640938 c 0
 281.329489243 890.874640938 300.959170678 896.093962775 320.617742196 907.455603402 c 0
 345.150464933 921.634252095 369.218309897 944.962213697 387.108253365 975.948550407 c 0
 405.011558637 1006.95803047 413.239924261 1039.77091307 413.239924261 1068.00758038 c 0
 413.239924261 1108.87335559 397.203730787 1136.46531562 376.051425367 1148.67760329 c 0
 366.378907217 1154.26203353 355.406075294 1157.12535906 342.910838865 1157.12535906 c 0
 326.670510757 1157.12535906 307.040829321 1151.90603722 287.382257804 1140.5443966 c 0
 262.849535066 1126.3657479 238.781690103 1103.0377863 220.891746635 1072.05144959 c 0
 202.988441364 1041.04196953 194.760075739 1008.22908693 194.760075739 979.99241962 c 0
758.910838865 453.125359062 m 0
 786.784748464 453.125359062 814.724701134 446.440092508 839.948574635 431.877084209 c 0
 898.952796295 397.810985296 925.239924261 332.812109119 925.239924261 268.00758038 c 0
 925.239924261 221.528962868 912.309406631 173.087685114 886.307762259 128.051449593 c 0
 860.327301266 83.0519048138 824.666047997 47.4614093829 784.552164292 24.2776531058 c 0
 752.493450655 5.74936975695 717.258641682 -5.1253590621 681.089161135 -5.1253590621 c 0
 653.215251536 -5.1253590621 625.275298865 1.55990749348 600.051425365 16.1229157916 c 0
 541.047203706 50.1890147049 514.760075739 115.187890881 514.760075739 179.99241962 c 0
 514.760075739 226.471037132 527.690593369 274.912314887 553.692237741 319.948550407 c 0
 579.672698734 364.948095186 615.333952003 400.538590617 655.447835708 423.722346894 c 0
 687.506549345 442.250630243 722.741358318 453.125359062 758.910838865 453.125359062 c 0
610.760075739 179.99241962 m 0
 610.760075739 139.126644413 626.79626921 111.534684382 647.948574635 99.3223967084 c 0
 657.621092785 93.7379664631 668.593924706 90.8746409379 681.089161135 90.8746409379 c 0
 697.329489243 90.8746409379 716.959170678 96.0939627745 736.617742196 107.455603402 c 0
 761.150464933 121.634252095 785.218309897 144.962213697 803.108253365 175.948550407 c 0
 821.011558637 206.958030472 829.239924261 239.77091307 829.239924261 268.00758038 c 0
 829.239924261 308.873355587 813.203730789 336.465315618 792.051425365 348.677603291 c 0
 782.378907216 354.262033536 771.406075294 357.125359062 758.910838865 357.125359062 c 0
 742.670510757 357.125359062 723.040829322 351.906037225 703.382257804 340.544396598 c 0
 678.849535067 326.365747905 654.781690103 303.037786303 636.891746635 272.051449593 c 0
 618.988441363 241.041969527 610.760075739 208.22908693 610.760075739 179.99241962 c 0
EndSplineSet
EndChar

StartChar: three
Encoding: 51 51 55
Width: 1024
Flags: HW
LayerCount: 2
Back
SplineSet
512 672 m 29
 416 672 l 1053
512 32 m 4
 309 32 144 125 144 240 c 1028
512 672 m 4
 715 672 880 529 880 352 c 4
 880 175 715 32 512 32 c 1028
144 240 m 29
 144 288 l 1053
144 288 m 4
 144 314 166 336 192 336 c 4
 218 336 240 314 240 288 c 4
 240 262 218 240 192 240 c 4
 166 240 144 262 144 288 c 4
200 992 m 4
 200 1018 222 1040 248 1040 c 4
 274 1040 296 1018 296 992 c 4
 296 966 274 944 248 944 c 4
 222 944 200 966 200 992 c 4
200 1040 m 29
 200 992 l 1053
200 1040 m 4
 200 1137 340 1216 512 1216 c 1028
512 1216 m 4
 684 1216 824 1094 824 944 c 4
 824 794 684 672 512 672 c 1028
EndSplineSet
Fore
SplineSet
512 80 m 0
 632.493110661 80 735.792122381 136.938233196 789.876294015 217.155776292 c 0
 816.915881375 257.260842133 832 303.186843525 832 352 c 0
 832 400.813156475 816.915881375 446.739157867 789.876294015 486.844223708 c 0
 735.792122381 567.061766804 632.493110661 624 512 624 c 2
 416 624 l 2
 389.50808 624 368 645.50808 368 672 c 0
 368 698.49192 389.50808 720 416 720 c 2
 512 720 l 2
 611.70813641 720 697.041756222 767.511444997 741.479570155 833.561091936 c 0
 763.692578545 866.577148122 776 904.197384085 776 944 c 0
 776 983.802615915 763.692578545 1021.42285188 741.479570155 1054.43890806 c 0
 697.041756222 1120.488555 611.70813641 1168 512 1168 c 0
 415.41012337 1168 323.55935232 1139.9555198 275.928028145 1094.14615884 c 0
 273.038284434 1091.36695178 270.407612996 1088.61412181 268.020491064 1085.89021462 c 1
 311.320714076 1076.62834813 344 1037.97882698 344 992 c 0
 344 939.160036433 300.839963567 896 248 896 c 0
 195.160036433 896 152 939.160036433 152 992 c 2
 152 1040 l 2
 152 1088.5411296 175.63647093 1130.85819242 209.405305188 1163.33532264 c 0
 239.552523932 1192.32936908 278.379791948 1214.89354299 322.683780656 1231.53918186 c 0
 378.104680663 1252.36160246 442.769755594 1264 512 1264 c 0
 641.625196924 1264 757.180466 1203.06700055 821.187096511 1107.93146231 c 0
 853.196310344 1060.3549259 872 1004.19738408 872 944 c 0
 872 883.802615915 853.196310344 827.6450741 821.187096511 780.068537693 c 0
 792.881609507 737.996994168 754.49500836 702.614273222 709.268611071 676.232138563 c 1
 775.097426818 644.894966324 830.631660631 598.110631767 869.531113392 540.415035551 c 0
 906.417451958 485.705286577 928 421.186843525 928 352 c 0
 928 282.813156475 906.417451958 218.294713423 869.531113392 163.584964449 c 0
 795.763433175 54.1728779151 662.173556005 -16 512 -16 c 0
 431.302623952 -16 355.978128815 -2.44620642401 291.673633986 21.7141342401 c 0
 240.263674981 41.0297688066 195.462896145 67.1770645 160.992818802 100.408935125 c 0
 122.349788535 137.663861176 96 185.550978489 96 240 c 2
 96 288 l 2
 96 340.839963567 139.160036433 384 192 384 c 0
 244.839963567 384 288 340.839963567 288 288 c 0
 288 240.408780832 252.988522014 200.66993121 207.426882723 193.244767814 c 1
 212.657654615 185.415086351 219.327674353 177.491946458 227.59977379 169.516990801 c 0
 285.270058397 113.918292315 395.436017635 80 512 80 c 0
EndSplineSet
Substitution2: "'onum' Oldstyle Figures lookup 16 subtable" three.oldstyle
EndChar

StartChar: four
Encoding: 52 52 56
Width: 1024
Flags: HW
LayerCount: 2
Back
SplineSet
384 48 m 25
 928 48 l 1049
944 480 m 25
 112 480 l 25
 656 1200 l 21
 656 736 l 1025
656 736 m 1
 656 64 l 1033
EndSplineSet
Fore
SplineSet
608 528 m 1
 608 1056.85666686 l 1
 208.419407261 528 l 1
 608 528 l 1
655.925382373 1247.93433267 m 0
 679.887911188 1247.93433267 703.97516777 1228.74716599 703.97516777 1200.0083128 c 2
 704 736 l 1
 704 528 l 1
 944 528 l 2
 970.49192 528 992 506.49192 992 480 c 0
 992 453.50808 970.49192 432 944 432 c 2
 704 432 l 1
 704 96 l 1
 928 96 l 2
 954.49192 96 976 74.49192 976 48 c 0
 976 21.50808 954.49192 0 928 0 c 2
 384 0 l 2
 357.50808 0 336 21.50808 336 48 c 0
 336 74.49192 357.50808 96 384 96 c 2
 608 96 l 1
 608 432 l 1
 112 432 l 2
 82.8191969465 432 63.990963414 455.973559018 63.990963414 480.012376005 c 0
 63.990963414 491.642475153 68.3354367428 501.83095034 73.6775378301 508.901378249 c 2
 617.680048981 1228.89633914 l 2
 625.327097997 1239.01743343 639.201867227 1247.93433267 655.925382373 1247.93433267 c 0
EndSplineSet
Substitution2: "'onum' Oldstyle Figures lookup 16 subtable" four.oldstyle
EndChar

StartChar: seven
Encoding: 55 55 57
Width: 1024
Flags: HW
LayerCount: 2
Back
SplineSet
896 1200 m 0
 896 1072 848 896 768 816 c 0
 608 656 384 560 384 48 c 1024
144 816 m 0
 144 1040 240 1216 384 1216 c 0
 445.409705974 1216 480.630856477 1189.81144453 512 1159.77088208 c 1025
512 1159.77088208 m 1
 554.188555471 1119.36914352 589.409705974 1072 672 1072 c 0
 816 1072 896 1200 896 1200 c 1024
144 816 m 25
 144 1200 l 1049
EndSplineSet
Fore
SplineSet
384 1168 m 0
 349.736104254 1168 319.283242351 1154.78190674 291.127857434 1127.56503465 c 0
 226.987361457 1065.56255521 192 946.225495527 192 816 c 0
 192 789.50808 170.49192 768 144 768 c 0
 117.50808 768 96 789.50808 96 816 c 2
 96 1200 l 2
 96 1226.49192 117.50808 1248 144 1248 c 0
 170.49192 1248 192 1226.49192 192 1200 c 2
 192 1159.7026663 l 1
 201.990116811 1172.99887483 212.791491878 1185.33478079 224.427698122 1196.58311349 c 0
 267.383424316 1238.10698215 322.263895746 1264 384 1264 c 0
 417.499951923 1264 446.775257129 1257.41668909 471.742466355 1246.34451102 c 0
 502.957065189 1232.50181064 526.237804007 1212.58346708 545.186867573 1194.43695546 c 0
 551.100081024 1188.77418504 556.639409617 1183.22953038 561.934480903 1177.9344591 c 0
 582.098606499 1157.7703335 598.430062387 1142.21381965 616.545347639 1132.64348133 c 0
 630.948094795 1125.03448367 647.327286937 1120 672 1120 c 0
 787.451055348 1120 855.28427924 1225.41848253 855.32854245 1225.48930366 c 0
 863.811877083 1239.06263866 878.889647551 1248.09951426 896.061437664 1248.09951426 c 0
 922.552602064 1248.09951426 944.060068612 1226.59204771 944.060068612 1200.10088331 c 0
 944.060068612 1121.51006501 928.374726772 1032.4084949 899.568792405 950.928851603 c 0
 876.592466545 885.938672743 845.375661349 825.506721349 801.93447 782.06553 c 0
 774.200317032 754.331377032 745.425551827 729.145484154 717.021408827 704.238103586 c 0
 636.337450954 633.486944346 559.74155682 565.95281547 505.457036688 450.645448106 c 0
 461.980724822 358.296118097 432 233.039859529 432 48 c 0
 432 21.50808 410.49192 0 384 0 c 0
 357.50808 0 336 21.50808 336 48 c 0
 336 243.443135128 367.870542547 383.803231819 418.548746599 491.4503157 c 0
 481.957371366 626.138465698 573.528447991 706.068695795 653.774312485 776.435694228 c 0
 682.186903604 801.350482888 709.326788586 825.195728586 734.06553 849.93447 c 0
 761.735449762 877.604389762 788.987780368 926.209475405 809.029287156 982.898308891 c 0
 819.253443276 1011.81806477 827.63553099 1042.61447144 833.971141868 1073.33166828 c 1
 792.65069652 1046.4948453 738.159034876 1024 672 1024 c 0
 632.672719523 1024 599.274137476 1033.18773568 571.800344055 1047.70219098 c 0
 537.569953584 1065.78616886 513.901411266 1090.22964873 494.0655409 1110.0655191 c 0
 488.770310893 1115.36074911 483.719338349 1120.40639591 478.813132427 1125.1048087 c 0
 462.907592079 1140.33669981 448.955944895 1151.41897687 432.900379589 1158.53911899 c 0
 420.051457503 1164.23721492 405.086453387 1168 384 1168 c 0
EndSplineSet
Substitution2: "'onum' Oldstyle Figures lookup 16 subtable" seven.oldstyle
EndChar

StartChar: B
Encoding: 66 66 58
Width: 1024
Flags: HW
AnchorPoint: "top" 512 1272 basechar 0
AnchorPoint: "ogonek" 569 49 basechar 0
AnchorPoint: "cedilla" 512 48 basechar 0
LayerCount: 2
Back
SplineSet
568 672 m 29
 320 672 l 1053
304 1184 m 29
 304 64 l 1053
568 1200 m 29
 96 1200 l 1053
568 48 m 29
 96 48 l 1053
568 672 m 4
 740.224 672 880 532.224 880 360 c 4
 880 187.776 740.224 48 568 48 c 1028
568 1200 m 4
 714 1200 832 1082 832 936 c 4
 832 790 714 672 568 672 c 1028
EndSplineSet
Fore
SplineSet
256 1152 m 1
 96 1152 l 2
 69.50808 1152 48 1173.50808 48 1200 c 0
 48 1226.49192 69.50808 1248 96 1248 c 2
 568 1248 l 2
 740.454038186 1248 880 1108.45403819 880 936 c 0
 880 827.387794836 824.648703297 731.828670359 740.585686234 675.962202914 c 1
 852.236011897 614.807332423 928 496.194047937 928 360 c 0
 928 161.286967027 766.713032973 0 568 0 c 2
 96 0 l 2
 69.50808 0 48 21.50808 48 48 c 0
 48 74.49192 69.50808 96 96 96 c 2
 256 96 l 1
 256 1152 l 1
352 624 m 1
 352 96 l 1
 568 96 l 2
 713.734967027 96 832 214.265032973 832 360 c 0
 832 505.734967027 713.734967027 624 568 624 c 2
 352 624 l 1
568 720 m 2
 687.545961814 720 784 816.454038186 784 936 c 0
 784 1055.54596181 687.545961814 1152 568 1152 c 2
 352 1152 l 1
 352 720 l 1
 568 720 l 2
EndSplineSet
EndChar

StartChar: o
Encoding: 111 111 59
Width: 1024
Flags: HW
AnchorPoint: "top" 512 912 basechar 0
AnchorPoint: "ogonek" 513 33 basechar 0
AnchorPoint: "cedilla" 512 32 basechar 0
LayerCount: 2
Back
SplineSet
144 432 m 4
 144 653 309 832 512 832 c 4
 715 832 880 653 880 432 c 4
 880 211 715 32 512 32 c 4
 309 32 144 211 144 432 c 4
EndSplineSet
Fore
SplineSet
96 432 m 0
 96 676.078711641 279.12206688 880 512 880 c 0
 744.87793312 880 928 676.078711641 928 432 c 0
 928 187.921288359 744.87793312 -16 512 -16 c 0
 279.12206688 -16 96 187.921288359 96 432 c 0
192 432 m 0
 192 234.078711641 338.87793312 80 512 80 c 0
 685.12206688 80 832 234.078711641 832 432 c 0
 832 629.921288359 685.12206688 784 512 784 c 0
 338.87793312 784 192 629.921288359 192 432 c 0
EndSplineSet
EndChar

StartChar: v
Encoding: 118 118 60
Width: 1024
Flags: HW
AnchorPoint: "cedilla" 512 48 basechar 0
AnchorPoint: "ogonek" 513 49 basechar 0
AnchorPoint: "top" 512 912 basechar 0
LayerCount: 2
Back
SplineSet
208 800 m 25
 480 48 l 25
 544 48 l 25
 816 800 l 1053
640 816 m 25
 960 816 l 1049
64 816 m 25
 384 816 l 1049
EndSplineSet
Fore
SplineSet
640 768 m 2
 613.50808 768 592 789.50808 592 816 c 0
 592 842.49192 613.50808 864 640 864 c 2
 960 864 l 2
 986.49192 864 1008 842.49192 1008 816 c 0
 1008 789.50808 986.49192 768 960 768 c 2
 855.477528556 768 l 1
 589.102624434 31.6547528371 l 2
 582.254385779 12.721387144 564.128575444 -0.0112491456264 544 0 c 2
 479.948997047 0.035795829751 l 2
 459.82041846 0.035795829751 441.694611268 12.7571829736 434.846372613 31.6905486668 c 2
 168.52167745 768 l 1
 64 768 l 2
 37.50808 768 16 789.50808 16 816 c 0
 16 842.49192 37.50808 864 64 864 c 2
 384 864 l 2
 410.49192 864 432 842.49192 432 816 c 0
 432 789.50808 410.49192 768 384 768 c 2
 270.627258721 768 l 1
 512 100.675362345 l 1
 753.372741279 768 l 1
 640 768 l 2
EndSplineSet
EndChar

StartChar: z
Encoding: 122 122 61
Width: 1024
Flags: HW
AnchorPoint: "top" 512 912 basechar 0
AnchorPoint: "ogonek" 769 49 basechar 0
AnchorPoint: "cedilla" 512 48 basechar 0
LayerCount: 2
Back
SplineSet
160 592 m 25
 160 816 l 25
 864 816 l 25
 128 48 l 1
 896 48 l 29
 896 304 l 1025
EndSplineSet
Fore
SplineSet
864 864 m 2
 893.081612205 864 911.970161436 839.900930199 911.970161436 815.963983072 c 0
 911.970161436 802.161195169 905.857934153 790.333675782 898.649375869 782.811701921 c 2
 240.468538204 96 l 1
 848 96 l 1
 848 304 l 2
 848 330.49192 869.50808 352 896 352 c 0
 922.49192 352 944 330.49192 944 304 c 2
 943.961552007 48.0412988564 l 2
 943.961552007 20.5522486147 921.778654302 7.28746112209e-15 896 0 c 2
 127.995276272 0.011068349371 l 2
 98.9136640669 0.011068349371 80.0251148361 24.1101381496 80.0251148361 48.0470852776 c 0
 80.0251148361 61.8498731822 86.1373421185 73.6773925665 93.3459004032 81.1993664287 c 2
 751.529840909 768 l 1
 208 768 l 1
 208 592 l 2
 208 565.50808 186.49192 544 160 544 c 0
 133.50808 544 112 565.50808 112 592 c 2
 112 816 l 2
 112 842.49192 133.50808 864 160 864 c 2
 864 864 l 2
EndSplineSet
EndChar

StartChar: x
Encoding: 120 120 62
Width: 1024
Flags: HW
AnchorPoint: "top" 512 912 basechar 0
AnchorPoint: "ogonek" 817 49 basechar 0
AnchorPoint: "cedilla" 512 48 basechar 0
LayerCount: 2
Back
SplineSet
208 64 m 25
 800 800 l 1049
224 800 m 25
 816 64 l 1049
400 48 m 25
 80 48 l 1049
944 48 m 25
 624 48 l 1049
608 816 m 25
 928 816 l 1049
96 816 m 25
 416 816 l 1049
EndSplineSet
Fore
SplineSet
400 96 m 2
 426.49192 96 448 74.49192 448 48 c 0
 448 21.50808 426.49192 0 400 0 c 2
 80 0 l 2
 53.50808 0 32 21.50808 32 48 c 0
 32 74.49192 53.50808 96 80 96 c 2
 172.147973202 96 l 1
 450.408842768 441.945945946 l 1
 188.147973202 768 l 1
 96 768 l 2
 69.50808 768 48 789.50808 48 816 c 0
 48 842.49192 69.50808 864 96 864 c 2
 416 864 l 2
 442.49192 864 464 842.49192 464 816 c 0
 464 789.50808 442.49192 768 416 768 c 2
 311.330287667 768 l 1
 512 518.518736019 l 1
 712.669712333 768 l 1
 608 768 l 2
 581.50808 768 560 789.50808 560 816 c 0
 560 842.49192 581.50808 864 608 864 c 2
 928 864 l 2
 954.49192 864 976 842.49192 976 816 c 0
 976 789.50808 954.49192 768 928 768 c 2
 835.852026798 768 l 1
 573.591157232 441.945945946 l 1
 851.852026798 96 l 1
 944 96 l 2
 970.49192 96 992 74.49192 992 48 c 0
 992 21.50808 970.49192 0 944 0 c 2
 624 0 l 2
 597.50808 0 576 21.50808 576 48 c 0
 576 74.49192 597.50808 96 624 96 c 2
 728.669712333 96 l 1
 512 365.373155873 l 1
 295.330287667 96 l 1
 400 96 l 2
EndSplineSet
EndChar

StartChar: w
Encoding: 119 119 63
Width: 1024
Flags: HW
AnchorPoint: "top" 512 912 basechar 0
AnchorPoint: "ogonek" 737 49 basechar 0
AnchorPoint: "cedilla" 512 48 basechar 0
LayerCount: 2
Back
SplineSet
192 800 m 25
 256 48 l 25
 320 48 l 25
 512 560 l 25
 704 48 l 25
 768 48 l 25
 832 800 l 1049
656 816 m 25
 944 816 l 1049
80 816 m 25
 368 816 l 1049
EndSplineSet
Fore
SplineSet
656 768 m 2
 629.50808 768 608 789.50808 608 816 c 0
 608 842.49192 629.50808 864 656 864 c 2
 944 864 l 2
 970.49192 864 992 842.49192 992 816 c 0
 992 789.50808 970.49192 768 944 768 c 2
 877.451411229 768 l 1
 815.792638783 43.8530115317 l 2
 813.685822423 19.0979193077 792.872201486 7.1054273576e-15 768 0 c 2
 703.950659177 0.0342033618391 l 2
 684.026977161 0.0342033618391 666.037646597 12.5045179063 659.039169185 31.1671243366 c 2
 511.995725366 423.28297452 l 1
 364.911489992 31.1329209747 l 2
 357.91301258 12.4703145443 339.923682016 0 320 0 c 2
 255.967060249 0.030224472082 l 2
 231.094858763 0.0302244720819 210.281237826 19.1281437798 208.174421466 43.8832360038 c 2
 146.547462828 768 l 1
 80 768 l 2
 53.50808 768 32 789.50808 32 816 c 0
 32 842.49192 53.50808 864 80 864 c 2
 368 864 l 2
 394.49192 864 416 842.49192 416 816 c 0
 416 789.50808 394.49192 768 368 768 c 2
 242.899345682 768 l 1
 297.618882354 125.045444112 l 1
 467.039169185 576.832875663 l 2
 473.866544571 595.039210027 491.438788937 608.011809976 512.017036745 608.011809976 c 0
 532.595284553 608.011809976 550.167528918 595.039210027 556.994904304 576.832875663 c 2
 726.381858957 125.054154518 l 1
 781.100654318 768 l 1
 656 768 l 2
EndSplineSet
EndChar

StartChar: l
Encoding: 108 108 64
Width: 1024
Flags: HW
AnchorPoint: "top" 512 1272 basechar 0
AnchorPoint: "ogonek" 705 49 basechar 0
AnchorPoint: "cedilla" 512 48 basechar 0
LayerCount: 2
Back
SplineSet
208 48 m 29
 816 48 l 1053
208 1200 m 29
 512 1200 l 29
 512 64 l 1053
EndSplineSet
Fore
SplineSet
208 0 m 2
 181.50808 0 160 21.50808 160 48 c 0
 160 74.49192 181.50808 96 208 96 c 2
 464 96 l 1
 464 1152 l 1
 208 1152 l 2
 181.50808 1152 160 1173.50808 160 1200 c 0
 160 1226.49192 181.50808 1248 208 1248 c 2
 512 1248 l 2
 524.287408679 1248 536.574817358 1243.31684593 545.941125497 1233.95053779 c 0
 555.307433636 1224.58422965 559.990587706 1212.29682097 559.990587706 1200.00941229 c 0
 559.990587706 832.006274863 559.999734867 464.003137431 559.999734867 96 c 1
 816 96 l 2
 842.49192 96 864 74.49192 864 48 c 0
 864 21.50808 842.49192 0 816 0 c 2
 208 0 l 2
EndSplineSet
Substitution2: "'i'/'l' with bottom serif only to the right subtable" l.ss05
EndChar

StartChar: h
Encoding: 104 104 65
Width: 1024
Flags: HW
AnchorPoint: "top" 512 1272 basechar 0
AnchorPoint: "ogonek" 769 49 basechar 0
AnchorPoint: "cedilla" 512 48 basechar 0
LayerCount: 2
Back
SplineSet
768 640 m 29
 768 64 l 1053
576 832 m 4
 682 832 768 746 768 640 c 1028
256 512 m 4
 256 689 399 832 576 832 c 1028
256 64 m 29
 256 1200 l 29
 96 1200 l 1053
608 48 m 29
 928 48 l 1053
96 48 m 29
 416 48 l 1053
EndSplineSet
Fore
SplineSet
255.966806285 1247.98409182 m 2
 284.996920185 1247.98409182 304 1224.41924791 304 1200 c 2
 304 760.038641658 l 1
 371.26802906 833.777386179 468.170190101 880 576 880 c 0
 708.486202548 880 816 772.486202548 816 640 c 2
 816 96 l 1
 928 96 l 2
 954.49192 96 976 74.49192 976 48 c 0
 976 21.50808 954.49192 0 928 0 c 2
 608 0 l 2
 581.50808 0 560 21.50808 560 48 c 0
 560 74.49192 581.50808 96 608 96 c 2
 720 96 l 1
 720 640 l 2
 720 719.513797452 655.513797452 784 576 784 c 0
 425.450821705 784 304 662.549178295 304 512 c 2
 304 96 l 1
 416 96 l 2
 442.49192 96 464 74.49192 464 48 c 0
 464 21.50808 442.49192 0 416 0 c 2
 96 0 l 2
 69.50808 0 48 21.50808 48 48 c 0
 48 74.49192 69.50808 96 96 96 c 2
 208 96 l 1
 208 1152 l 1
 96 1152 l 2
 69.50808 1152 48 1173.50808 48 1200 c 0
 48 1226.49192 69.50808 1248 96 1248 c 2
 255.966806285 1247.98409182 l 2
EndSplineSet
EndChar

StartChar: e
Encoding: 101 101 66
Width: 1024
Flags: HW
AnchorPoint: "cedilla" 512 32 basechar 0
AnchorPoint: "ogonek" 513 33 basechar 0
AnchorPoint: "top" 512 912 basechar 0
LayerCount: 2
Back
SplineSet
880 236.311267897 m 1
 818.976190213 116.401338399 677.226029586 32 512 32 c 1024
880 480 m 25
 160 480 l 1049
512 832 m 0
 715 832 880 674 880 480 c 1024
512 32 m 0
 309 32 144 211 144 432 c 0
 144 653 309 832 512 832 c 1024
EndSplineSet
Fore
SplineSet
512 784 m 0
 368.117143044 784 242.362102363 677.572003477 203.987923756 528 c 1
 827.985587753 528 l 1
 803.764995094 671.557010068 672.763676882 784 512 784 c 0
879.996619216 284.316774402 m 0
 906.49063146 284.316774402 928.000410097 262.806995765 928.000410097 236.312983521 c 0
 928.000410097 228.495974659 926.12791071 221.112860285 922.807369627 214.588098089 c 0
 852.262418924 75.969416386 692.965817322 -16 512 -16 c 0
 279.12206688 -16 96 187.921288359 96 432 c 0
 96 676.078711641 279.12206688 880 512 880 c 0
 739.694002852 880 928 702.321097186 928 480 c 0
 928 453.50808 906.49192 432 880 432 c 2
 192 432 l 1
 192 234.078711641 338.87793312 80 512 80 c 0
 661.565811619 80 785.714271343 156.88102851 837.242825504 258.13306961 c 0
 845.1195629 273.627336455 861.319615833 284.316774402 879.996619216 284.316774402 c 0
EndSplineSet
EndChar

StartChar: grave
Encoding: 96 96 67
Width: 1024
Flags: HW
LayerCount: 2
Back
SplineSet
320 1200 m 25
 704 816 l 1049
EndSplineSet
Fore
SplineSet
272.016066486 1200.00665419 m 0
 272.016066486 1226.49337941 293.519928978 1247.9972419 320.006654192 1247.9972419 c 0
 333.250016799 1247.9972419 345.247663725 1242.62127627 353.93447 1233.93447 c 2
 737.93447 849.93447 l 2
 746.621276275 841.247663725 751.997241898 829.250016799 751.997241898 816.006654192 c 0
 751.997241898 789.519928978 730.493379406 768.016066486 704.006654192 768.016066486 c 0
 690.763291585 768.016066486 678.765644659 773.392032109 670.06553 782.06553 c 2
 286.06553 1166.06553 l 2
 277.392032109 1174.76564466 272.016066486 1186.76329159 272.016066486 1200.00665419 c 0
EndSplineSet
EndChar

StartChar: n
Encoding: 110 110 68
Width: 1024
Flags: HW
AnchorPoint: "top" 512 912 basechar 0
AnchorPoint: "ogonek" 769 49 basechar 0
AnchorPoint: "cedilla" 512 48 basechar 0
LayerCount: 2
Back
SplineSet
256 64 m 29
 256 816 l 29
 96 816 l 1053
608 48 m 29
 928 48 l 1053
96 48 m 29
 416 48 l 1053
576 832 m 4
 682 832 768 746 768 640 c 1028
768 640 m 29
 768 64 l 1053
256 512 m 4
 256 689 399 832 576 832 c 1028
EndSplineSet
Fore
SplineSet
255.946150807 863.954633741 m 2
 284.179627937 863.954633741 304 841.197427574 304 816 c 2
 304 760.038641658 l 1
 371.26802906 833.777386179 468.170190101 880 576 880 c 0
 708.486202548 880 816 772.486202548 816 640 c 2
 816 96 l 1
 928 96 l 2
 954.49192 96 976 74.49192 976 48 c 0
 976 21.50808 954.49192 0 928 0 c 2
 608 0 l 2
 581.50808 0 560 21.50808 560 48 c 0
 560 74.49192 581.50808 96 608 96 c 2
 720 96 l 1
 720 640 l 2
 720 719.513797452 655.513797452 784 576 784 c 0
 425.450821705 784 304 662.549178295 304 512 c 2
 304 96 l 1
 416 96 l 2
 442.49192 96 464 74.49192 464 48 c 0
 464 21.50808 442.49192 0 416 0 c 2
 96 0 l 2
 69.50808 0 48 21.50808 48 48 c 0
 48 74.49192 69.50808 96 96 96 c 2
 208 96 l 1
 208 768 l 1
 96 768 l 2
 69.50808 768 48 789.50808 48 816 c 0
 48 842.49192 69.50808 864 96 864 c 2
 255.946150807 863.954633741 l 2
EndSplineSet
EndChar

StartChar: u
Encoding: 117 117 69
Width: 1024
Flags: HW
AnchorPoint: "top" 512 912 basechar 0
AnchorPoint: "ogonek" 849 49 basechar 0
AnchorPoint: "cedilla" 448 32 basechar 0
LayerCount: 2
Back
SplineSet
96 816 m 25
 256 816 l 29
 256 224 l 1049
608 816 m 25
 768 816 l 25
 768 48 l 25
 928 48 l 1049
448 32 m 0
 342 32 256 118 256 224 c 1024
768 352 m 0
 768 175 625 32 448 32 c 1024
EndSplineSet
Fore
SplineSet
256 864 m 2
 284.23347713 864 304.053849193 841.242793833 304.053849193 816.045366259 c 2
 304 224 l 2
 304 144.486202548 368.486202548 80 448 80 c 0
 598.549178295 80 720 201.450821705 720 352 c 2
 720 768 l 1
 608 768 l 2
 581.50808 768 560 789.50808 560 816 c 0
 560 842.49192 581.50808 864 608 864 c 2
 768 864 l 2
 778.963855958 864 789.984229433 860.267995201 798.996870241 852.633143034 c 0
 810.198093767 843.144283163 815.962691351 829.605320694 815.962691351 815.979059103 c 2
 816 352 l 2
 816 350.892521946 815.995124187 349.7861966 815.985392826 348.681044229 c 2
 815.997668146 96 l 1
 928 96 l 2
 954.49192 96 976 74.49192 976 48 c 0
 976 21.50808 954.49192 0 928 0 c 2
 768 0 l 2
 741.50808 0 720 21.50808 720 48 c 2
 720 103.961358342 l 1
 652.73197094 30.2226138214 555.829809899 -16 448 -16 c 0
 315.513797452 -16 208 91.5137974519 208 224 c 2
 208 768 l 1
 96 768 l 2
 69.50808 768 48 789.50808 48 816 c 0
 48 842.49192 69.50808 864 96 864 c 2
 256 864 l 2
EndSplineSet
EndChar

StartChar: k
Encoding: 107 107 71
Width: 1024
Flags: HW
AnchorPoint: "top" 512 1272 basechar 0
AnchorPoint: "ogonek" 833 49 basechar 0
AnchorPoint: "cedilla" 512 48 basechar 0
LayerCount: 2
Back
SplineSet
829 49 m 29
 432 496 l 1049
257 356 m 25
 818 815 l 1049
912 816 m 25
 592 816 l 1049
624 48 m 25
 944 48 l 1049
96 48 m 25
 416 48 l 1049
96 1200 m 25
 256 1200 l 25
 256 64 l 1049
EndSplineSet
Fore
SplineSet
256 1248 m 2
 285.0301139 1248 304.033193715 1224.43515609 304.033193715 1200.01590818 c 2
 304.011467829 456.472982489 l 1
 684.766711453 768 l 1
 592 768 l 2
 565.50808 768 544 789.50808 544 816 c 0
 544 842.49192 565.50808 864 592 864 c 2
 912 864 l 2
 938.49192 864 960 842.49192 960 816 c 0
 960 789.50808 938.49192 768 912 768 c 2
 836.344399658 768 l 1
 499.432592314 492.344884901 l 1
 851.443597472 96 l 1
 944 96 l 2
 970.49192 96 992 74.49192 992 48 c 0
 992 21.50808 970.49192 0 944 0 c 2
 624 0 l 2
 597.50808 0 576 21.50808 576 48 c 0
 576 74.49192 597.50808 96 624 96 c 2
 723.070943915 96 l 1
 425.085320519 431.515298887 l 1
 304.007844006 332.451909013 l 1
 304.007844006 253.634606008 304.000935021 174.817303004 304.000935021 96 c 1
 416 96 l 2
 442.49192 96 464 74.49192 464 48 c 0
 464 21.50808 442.49192 0 416 0 c 2
 96 0 l 2
 69.50808 0 48 21.50808 48 48 c 0
 48 74.49192 69.50808 96 96 96 c 2
 208 96 l 1
 208 1152 l 1
 96 1152 l 2
 69.50808 1152 48 1173.50808 48 1200 c 0
 48 1226.49192 69.50808 1248 96 1248 c 2
 256 1248 l 2
EndSplineSet
EndChar

StartChar: m
Encoding: 109 109 72
Width: 1024
Flags: HW
AnchorPoint: "top" 512 912 basechar 0
AnchorPoint: "ogonek" 849 49 basechar 0
AnchorPoint: "cedilla" 512 48 basechar 0
LayerCount: 2
Back
SplineSet
512 720 m 25
 512 608 l 1053
848 720 m 0
 848 782 798 832 736 832 c 0
 612 832 512 732 512 608 c 8
 512 64 l 1049
848 688 m 25
 848 64 l 1049
848 688 m 1024
512 720 m 0
 512 782 462 832 400 832 c 0
 276 832 176 732 176 608 c 1024
80 816 m 25
 176 816 l 25
 176 64 l 1049
752 48 m 25
 944 48 l 1049
416 48 m 25
 608 48 l 1049
80 48 m 25
 272 48 l 1049
EndSplineSet
Fore
SplineSet
176 864 m 2
 204.589726317 864 224.051485675 840.922791599 224.051485675 816.039313977 c 0
 224.051485675 815.886264262 224.051454241 815.733214546 224.051454241 815.580164831 c 1
 271.452537812 855.778756977 332.850017698 880 400 880 c 0
 460.49006543 880 513.086764639 846.518110006 540.287525597 797.056902047 c 1
 589.719187771 848.222889795 659.086090127 880 736 880 c 0
 824.435658179 880 896 808.435658179 896 720 c 0
 896 714.390973293 895.035838492 709.005361539 893.264350738 704 c 0
 895.035838492 698.994638461 896 693.609026707 896 688 c 2
 896 96 l 1
 944 96 l 2
 970.49192 96 992 74.49192 992 48 c 0
 992 21.50808 970.49192 0 944 0 c 2
 752 0 l 2
 725.50808 0 704 21.50808 704 48 c 0
 704 74.49192 725.50808 96 752 96 c 2
 800 96 l 1
 800 688 l 2
 800 693.609026707 800.964161508 698.994638461 802.735649262 704 c 0
 800.964161508 709.005361539 800 714.390973293 800 720 c 0
 800 755.564341821 771.564341821 784 736 784 c 0
 638.435658179 784 560 705.564341821 560 608 c 2
 560 96 l 1
 608 96 l 2
 634.49192 96 656 74.49192 656 48 c 0
 656 21.50808 634.49192 0 608 0 c 2
 416 0 l 2
 389.50808 0 368 21.50808 368 48 c 0
 368 74.49192 389.50808 96 416 96 c 2
 464 96 l 1
 464 720 l 2
 464 755.564341821 435.564341821 784 400 784 c 0
 303.669210804 784 225.986456927 707.535202353 224.037495725 611.691364414 c 2
 224.002190765 96 l 1
 272 96 l 2
 298.49192 96 320 74.49192 320 48 c 0
 320 21.50808 298.49192 0 272 0 c 2
 80 0 l 2
 53.50808 0 32 21.50808 32 48 c 0
 32 74.49192 53.50808 96 80 96 c 2
 128 96 l 1
 128 768 l 1
 80 768 l 2
 53.50808 768 32 789.50808 32 816 c 0
 32 842.49192 53.50808 864 80 864 c 2
 176 864 l 2
EndSplineSet
EndChar

StartChar: f
Encoding: 102 102 73
Width: 1024
Flags: HW
AnchorPoint: "top" 512 1272 basechar 0
AnchorPoint: "ogonek" 577 49 basechar 0
AnchorPoint: "cedilla" 416 48 basechar 0
LayerCount: 2
Back
SplineSet
928 1040 m 29
 928 1008 l 1053
672 1216 m 4
 813 1216 928 1137 928 1040 c 1028
832 1008 m 4
 832 1034 854 1056 880 1056 c 4
 906 1056 928 1034 928 1008 c 4
 928 982 906 960 880 960 c 4
 854 960 832 982 832 1008 c 4
416 960 m 4
 416 1101 531 1216 672 1216 c 1028
416 960 m 29
 416 64 l 1029
144 48 m 29
 688 48 l 1053
144 816 m 29
 688 816 l 1053
EndSplineSet
Fore
SplineSet
853.982548701 1100.4019393 m 1
 817.695358672 1140.48771677 748.726365904 1168 672 1168 c 0
 557.530427237 1168 464 1074.46957276 464 960 c 2
 464 864 l 1
 688 864 l 2
 714.49192 864 736 842.49192 736 816 c 0
 736 789.50808 714.49192 768 688 768 c 2
 464 768 l 1
 464 96 l 1
 688 96 l 2
 714.49192 96 736 74.49192 736 48 c 0
 736 21.50808 714.49192 0 688 0 c 2
 144 0 l 2
 117.50808 0 96 21.50808 96 48 c 0
 96 74.49192 117.50808 96 144 96 c 2
 368 96 l 1
 368 768 l 1
 144 768 l 2
 117.50808 768 96 789.50808 96 816 c 0
 96 842.49192 117.50808 864 144 864 c 2
 368 864 l 1
 368 960 l 2
 368 1127.53042724 504.469572763 1264 672 1264 c 0
 782.436053233 1264 876.426091259 1222.02726084 929.481234829 1159.87947203 c 0
 957.800109769 1126.70727909 976 1085.45441229 976 1040 c 2
 976 1008 l 2
 976 955.160036433 932.839963567 912 880 912 c 0
 827.160036433 912 784 955.160036433 784 1008 c 0
 784 1051.83076899 813.697163086 1089.00106225 853.982548701 1100.4019393 c 1
EndSplineSet
EndChar

StartChar: g
Encoding: 103 103 74
Width: 1024
Flags: HW
AnchorPoint: "top" 512 912 basechar 0
AnchorPoint: "ogonek" 513 -351 basechar 0
AnchorPoint: "cedilla" 512 -352 basechar 0
LayerCount: 2
Back
SplineSet
688 736 m 0
 688 789 731 832 784 832 c 0
 837 832 880 789 880 736 c 1024
688 560 m 25
 688 736 l 1049
368 64 m 25
 512 64 l 1049
368 288 m 25
 416 288 l 1049
368 64 m 0
 280 64 208 114 208 176 c 0
 208 238 280 288 368 288 c 1024
112 -144 m 0
 112 -29 291 64 512 64 c 0
 733 64 912 -29 912 -144 c 0
 912 -259 733 -352 512 -352 c 0
 291 -352 112 -259 112 -144 c 0
144 560 m 0
 144 710 266 832 416 832 c 0
 566 832 688 710 688 560 c 0
 688 410 566 288 416 288 c 0
 266 288 144 410 144 560 c 0
EndSplineSet
Fore
SplineSet
640 560 m 0
 640 683.492985649 539.492985649 784 416 784 c 0
 292.507014351 784 192 683.492985649 192 560 c 0
 192 436.507014351 292.507014351 336 416 336 c 0
 539.492985649 336 640 436.507014351 640 560 c 0
160 176 m 0
 160 231.288718634 195.519189017 273.802592428 232.461290916 297.9642088 c 1
 149.985261032 355.892530617 96 451.735958411 96 560 c 0
 96 736.507014351 239.492985649 880 416 880 c 0
 506.827021764 880 588.912165663 842.004087228 647.201883403 781.065809982 c 1
 666.132243347 838.502781583 720.250770624 880 784 880 c 0
 863.486202548 880 928 815.486202548 928 736 c 0
 928 709.50808 906.49192 688 880 688 c 0
 853.50808 688 832 709.50808 832 736 c 0
 832 762.513797452 810.513797452 784 784 784 c 0
 757.486202548 784 736 762.513797452 736 736 c 2
 736 560 l 2
 736 383.492985649 592.507014351 240 416 240 c 2
 368 240 l 2
 325.210925855 240 285.614925855 224.29293257 266.706192455 201.76337788 c 0
 258.786970885 192.327709627 256 183.824731406 256 176 c 0
 256 168.175268594 258.786970885 159.672290373 266.706192455 150.23662212 c 0
 285.588319777 127.738768289 325.238413328 112 368 112 c 2
 512 112 l 2
 598.91973999 112 679.935159639 98.5852521675 748.982535769 74.7149184143 c 0
 804.189066778 55.6294962823 852.171306628 29.8662445275 889.256059185 -3.06279936572 c 0
 930.725007281 -39.8847468744 960 -88.0693638636 960 -144 c 0
 960 -199.930636136 930.725007281 -248.115253126 889.256059185 -284.937200634 c 0
 852.171306628 -317.866244528 804.189066778 -343.629496282 748.982535769 -362.714918414 c 0
 679.935159639 -386.585252168 598.91973999 -400 512 -400 c 0
 425.08026001 -400 344.064840361 -386.585252168 275.017464231 -362.714918414 c 0
 219.810933222 -343.629496282 171.828693372 -317.866244528 134.743940815 -284.937200634 c 0
 93.2749927189 -248.115253126 64 -199.930636136 64 -144 c 0
 64 -88.0693638636 93.2749927189 -39.8847468744 134.743940815 -3.06279936572 c 0
 161.075461104 20.3180169428 192.90096639 40.0861881125 228.905577745 56.4163880792 c 1
 215.548302523 65.5702967947 203.470388422 76.2763878994 193.145659397 88.5781926949 c 0
 173.213029115 112.327709627 160 142.491398072 160 176 c 0
160 -144 m 0
 160 -164.73603053 170.502785059 -188.329191319 198.441244371 -213.13687344 c 0
 223.051965064 -234.989722551 260.176263851 -255.990073905 306.359968071 -271.956219116 c 0
 364.050385977 -291.90034454 435.216036287 -304 512 -304 c 0
 588.783963713 -304 659.949614023 -291.90034454 717.640031929 -271.956219116 c 0
 763.823736149 -255.990073905 800.948034936 -234.989722551 825.558755629 -213.13687344 c 0
 853.497214941 -188.329191319 864 -164.73603053 864 -144 c 0
 864 -123.26396947 853.497214941 -99.6708086812 825.558755629 -74.8631265602 c 0
 800.948034936 -53.0102774493 763.823736149 -32.0099260948 717.640031929 -16.0437808845 c 0
 659.949614023 3.90034454027 588.783963713 16 512 16 c 0
 435.216036287 16 364.050385977 3.90034454027 306.359968071 -16.0437808845 c 0
 260.176263851 -32.0099260948 223.051965064 -53.0102774493 198.441244371 -74.8631265602 c 0
 170.502785059 -99.6708086812 160 -123.26396947 160 -144 c 0
EndSplineSet
EndChar

StartChar: D
Encoding: 68 68 75
Width: 1024
Flags: HW
AnchorPoint: "cedilla" 512 48 basechar 0
AnchorPoint: "ogonek" 513 49 basechar 0
AnchorPoint: "top" 512 1272 basechar 0
LayerCount: 2
Back
SplineSet
304 64 m 25
 304 1184 l 1049
96 1200 m 25
 448 1200 l 0
 683 1200 880 942 880 624 c 0
 880 306 683 48 448 48 c 4
 96 48 l 1049
EndSplineSet
Fore
SplineSet
352 1152 m 1
 352 96 l 1
 448 96 l 2
 514.259788356 96 578.100208748 120.1134385 634.929963397 164.51168432 c 0
 748.804696022 253.476319183 832 424.705878243 832 624 c 0
 832 823.294121757 748.804696022 994.523680817 634.929963397 1083.48831568 c 0
 578.100208748 1127.8865615 514.259788356 1152 448 1152 c 2
 352 1152 l 1
96 1152 m 2
 69.50808 1152 48 1173.50808 48 1200 c 0
 48 1226.49192 69.50808 1248 96 1248 c 2
 448 1248 l 2
 538.406878311 1248 622.788680141 1214.78010517 693.958925492 1159.17835099 c 0
 836.084192867 1048.14298585 928 848.705878243 928 624 c 0
 928 399.294121757 836.084192867 199.857014151 693.958925492 88.8216490136 c 0
 622.788680141 33.2198948332 538.406878311 0 448 0 c 2
 96 0 l 2
 69.50808 0 48 21.50808 48 48 c 0
 48 74.49192 69.50808 96 96 96 c 2
 256 96 l 1
 256 1152 l 1
 96 1152 l 2
EndSplineSet
EndChar

StartChar: P
Encoding: 80 80 76
Width: 1024
Flags: HW
AnchorPoint: "cedilla" 512 48 basechar 0
AnchorPoint: "ogonek" 449 49 basechar 0
AnchorPoint: "top" 512 1272 basechar 0
LayerCount: 2
Back
SplineSet
96 48 m 25
 576 48 l 1049
304 1184 m 25
 304 64 l 1049
592 624 m 0
 751 624 880 753 880 912 c 0
 880 1071 751 1200 592 1200 c 9
 96 1200 l 1049
592 624 m 25
 320 624 l 1049
EndSplineSet
Fore
SplineSet
352 1152 m 1
 352 672 l 1
 592 672 l 2
 724.513797452 672 832 779.486202548 832 912 c 0
 832 1044.51379745 724.513797452 1152 592 1152 c 2
 352 1152 l 1
96 0 m 2
 69.50808 0 48 21.50808 48 48 c 0
 48 74.49192 69.50808 96 96 96 c 2
 256 96 l 1
 256 1152 l 1
 96 1152 l 2
 69.50808 1152 48 1173.50808 48 1200 c 0
 48 1226.49192 69.50808 1248 96 1248 c 2
 592 1248 l 2
 777.486202548 1248 928 1097.48620255 928 912 c 0
 928 726.513797452 777.486202548 576 592 576 c 2
 352 576 l 1
 352 96 l 1
 576 96 l 2
 602.49192 96 624 74.49192 624 48 c 0
 624 21.50808 602.49192 0 576 0 c 2
 96 0 l 2
EndSplineSet
EndChar

StartChar: R
Encoding: 82 82 77
Width: 1024
Flags: HW
AnchorPoint: "top" 512 1272 basechar 0
AnchorPoint: "ogonek" 865 49 basechar 0
AnchorPoint: "cedilla" 512 48 basechar 0
LayerCount: 2
Back
SplineSet
544 624 m 4
 685 624 800 438 800 208 c 1028
544 1200 m 4
 703 1200 832 1071 832 912 c 4
 832 753 703 624 544 624 c 1028
272 624 m 29
 544 624 l 1053
944 48 m 29
 800 48 l 29
 800 208 l 1053
80 48 m 29
 448 48 l 1053
256 1184 m 29
 256 64 l 1053
80 1200 m 29
 544 1200 l 1053
EndSplineSet
Fore
SplineSet
544 672 m 2
 676.513797452 672 784 779.486202548 784 912 c 0
 784 1044.51379745 676.513797452 1152 544 1152 c 2
 304 1152 l 1
 304 672 l 1
 544 672 l 2
800 0 m 2
 773.879474316 0 752.024087215 21.0074118068 752.024087215 48.024902613 c 2
 752 208 l 2
 752 343.390126115 708.333829159 467.453071763 639.968699101 532.480060705 c 0
 608.8356671 562.092925128 576.287749927 576 544 576 c 2
 304 576 l 1
 304 96 l 1
 448 96 l 2
 474.49192 96 496 74.49192 496 48 c 0
 496 21.50808 474.49192 0 448 0 c 2
 80 0 l 2
 53.50808 0 32 21.50808 32 48 c 0
 32 74.49192 53.50808 96 80 96 c 2
 208 96 l 1
 208 1152 l 1
 80 1152 l 2
 53.50808 1152 32 1173.50808 32 1200 c 0
 32 1226.49192 53.50808 1248 80 1248 c 2
 544 1248 l 2
 729.486202548 1248 880 1097.48620255 880 912 c 0
 880 780.897266498 804.807142938 667.26585524 695.219347434 611.903684846 c 1
 740.893652717 572.505692992 775.850533502 519.265600385 801.627112865 456.418229911 c 0
 831.251022684 384.190460312 848 299.197256348 848 208 c 2
 848 96 l 1
 944 96 l 2
 970.49192 96 992 74.49192 992 48 c 0
 992 21.50808 970.49192 0 944 0 c 2
 800 0 l 2
EndSplineSet
EndChar

StartChar: d
Encoding: 100 100 78
Width: 1024
Flags: HW
AnchorPoint: "cedilla" 464 32 basechar 0
AnchorPoint: "ogonek" 849 49 basechar 0
AnchorPoint: "top" 512 1272 basechar 0
LayerCount: 2
Back
SplineSet
432 832 m 4
 273 832 144 653 144 432 c 4
 144 211 273 32 432 32 c 1028
432 32 m 4
 483.263671875 32 532.014648438 44.4990234375 576 66.9697265625 c 1029
576 66.9697265625 m 5
 667.118164062 113.517578125 737.7890625 202.85546875 768 312.510742188 c 1029
768 551.489257812 m 5
 737.7890625 661.14453125 667.118164062 750.482421875 576 797.030273438 c 1029
576 797.030273438 m 5
 532.014648438 819.500976562 483.263671875 832 432 832 c 1028
928 48 m 25
 768 48 l 25
 768 1200 l 1
 608 1200 l 1049
EndSplineSet
Fore
SplineSet
432 80 m 0
 475.290487039 80 516.580722586 90.5207119005 554.221252415 109.74876714 c 0
 630.471176754 148.704994096 692.141181846 224.141065694 720 319.22807892 c 1
 720 544.77192108 l 1
 692.141181177 639.858934707 630.471174995 715.295006941 554.203865361 754.26011445 c 0
 516.580722591 773.479288098 475.290487042 784 432 784 c 0
 391.421779134 784 352.373590802 768.988170845 316.922408029 740.153311245 c 0
 245.744053674 682.259111566 192 567.502666675 192 432 c 0
 192 296.497333325 245.744053674 181.740888434 316.922408029 123.846688755 c 0
 352.373590802 95.0118291554 391.421779134 80 432 80 c 0
767.955360083 1247.97032782 m 2
 791.890427651 1247.97032782 816 1229.03120079 816 1200 c 2
 816 552.826081555 l 2
 816.012141523 552.382766449 816.018242531 551.9379536 816.018242531 551.491727029 c 0
 816.018242531 551.045274229 816.012135335 550.600236585 816 550.156693155 c 2
 816 313.843306846 l 2
 816.012135335 313.399763415 816.018242531 312.954725771 816.018242531 312.508272972 c 0
 816.018242531 312.061978914 816.012139677 311.617099006 816 311.173737304 c 2
 816 96 l 1
 928 96 l 2
 954.49192 96 976 74.49192 976 48 c 0
 976 21.50808 954.49192 0 928 0 c 2
 768 0 l 2
 741.50808 0 720 21.50808 720 48 c 2
 720 121.075390437 l 1
 685.502996319 81.0001678265 644.225435336 47.9188058197 597.789009129 24.1959274966 c 0
 547.443357298 -1.52399493195 491.234121275 -16 432 -16 c 0
 366.578220866 -16 306.293075864 8.76594862235 256.410925305 49.33849643 c 0
 156.922612993 130.259111566 96 272.836000009 96 432 c 0
 96 591.163999991 156.922612993 733.740888434 256.410925305 814.66150357 c 0
 306.293075864 855.234051378 366.578220866 880 432 880 c 0
 491.312623568 880 547.578207707 865.470338798 597.964764985 839.714233851 c 0
 644.276150297 816.025718331 685.524266864 782.975263618 720 742.9257678 c 1
 720 1152 l 1
 608 1152 l 2
 581.50808 1152 560 1173.50808 560 1200 c 0
 560 1226.49192 581.50808 1248 608 1248 c 2
 767.955360083 1247.97032782 l 2
EndSplineSet
EndChar

StartChar: p
Encoding: 112 112 79
Width: 1024
Flags: HW
AnchorPoint: "cedilla" 560 32 basechar 0
AnchorPoint: "ogonek" 561 33 basechar 0
AnchorPoint: "top" 512 912 basechar 0
LayerCount: 2
Back
SplineSet
592 832 m 4
 751 832 880 653 880 432 c 4
 880 211 751 32 592 32 c 1028
592 32 m 4
 540.735856348 32 491.985487998 44.4990494197 448 66.9692679994 c 1029
448 66.9692679994 m 5
 356.881794837 113.517483781 286.21124347 202.855234641 256 312.510417205 c 1029
256 551.489582795 m 5
 286.21124347 661.144765359 356.881794837 750.482516219 448 797.030732001 c 1029
448 797.030732001 m 5
 491.985487998 819.50095058 540.735856348 832 592 832 c 1028
96 -336 m 25
 416 -336 l 1049
96 816 m 25
 256 816 l 25
 256 -320 l 1049
EndSplineSet
Fore
SplineSet
592 80 m 0
 632.578220866 80 671.626409198 95.0118291554 707.077591971 123.846688755 c 0
 778.255946326 181.740888434 832 296.497333325 832 432 c 0
 832 567.502666675 778.255946326 682.259111566 707.077591971 740.153311245 c 0
 671.626409198 768.988170845 632.578220866 784 592 784 c 0
 548.706398755 784 507.414385859 773.478055122 469.718194085 754.220742126 c 0
 393.533492106 715.274260516 331.91218168 639.907955056 304.040997319 544.912010701 c 1
 304.030294862 319.1244741 l 1
 331.90501804 224.081965532 393.561847493 148.684114706 469.788869932 109.743138174 c 0
 507.414386922 90.5219446067 548.706399312 80 592 80 c 0
256 864 m 2
 284.23347713 864 304.053849193 841.242793833 304.053849193 816.045366259 c 0
 304.053849193 791.691326951 304.050386007 767.337287644 304.050386007 742.983248336 c 1
 338.56388001 783.063219191 379.751984587 816.070702622 426.211131522 839.804602918 c 0
 476.556590138 865.523846038 532.765313942 880 592 880 c 0
 657.421779134 880 717.706924136 855.234051378 767.589074695 814.66150357 c 0
 867.077387007 733.740888434 928 591.163999991 928 432 c 0
 928 272.836000009 867.077387007 130.259111566 767.589074695 49.33849643 c 0
 717.706924136 8.76594862235 657.421779134 -16 592 -16 c 0
 532.69866285 -16 476.427434468 -1.47135309956 426.060980294 24.272142956 c 0
 379.748443505 47.9569707225 338.498771123 81.0037839523 304.020906012 121.049832455 c 1
 304.001516818 -288 l 1
 416 -288 l 2
 442.49192 -288 464 -309.50808 464 -336 c 0
 464 -362.49192 442.49192 -384 416 -384 c 2
 96 -384 l 2
 69.50808 -384 48 -362.49192 48 -336 c 0
 48 -309.50808 69.50808 -288 96 -288 c 2
 208 -288 l 1
 208 311.787084769 l 2
 207.996217991 312.035041353 207.994320619 312.283447819 207.994320619 312.532293943 c 0
 207.994320619 312.781161015 208 313.029588354 208 313.277562269 c 2
 208 550.722437732 l 2
 207.99621831 550.970411646 207.994320619 551.218838985 207.994320619 551.467706057 c 0
 207.994320619 551.716573129 208 551.965000469 208 552.212974383 c 2
 208 768 l 1
 96 768 l 2
 69.50808 768 48 789.50808 48 816 c 0
 48 842.49192 69.50808 864 96 864 c 2
 256 864 l 2
EndSplineSet
EndChar

StartChar: q
Encoding: 113 113 80
Width: 1024
Flags: HW
AnchorPoint: "top" 512 912 basechar 0
AnchorPoint: "ogonek" 769 -335 basechar 0
AnchorPoint: "cedilla" 464 32 basechar 0
LayerCount: 2
Back
SplineSet
432 832 m 4
 273 832 144 653 144 432 c 4
 144 211 273 32 432 32 c 1028
432 32 m 4
 483.263671875 32 532.014648438 44.4990234375 576 66.9697265625 c 1029
576 66.9697265625 m 5
 667.118164062 113.517578125 737.7890625 202.85546875 768 312.510742188 c 1029
768 551.489257812 m 5
 737.7890625 661.14453125 667.118164062 750.482421875 576 797.030273438 c 1029
576 797.030273438 m 5
 532.014648438 819.500976562 483.263671875 832 432 832 c 1028
928 -336 m 25
 608 -336 l 1049
768 816 m 25
 768 -320 l 1049
EndSplineSet
Fore
SplineSet
432 80 m 0
 475.290487039 80 516.580722586 90.5207119005 554.221252415 109.74876714 c 0
 630.471176754 148.704994096 692.141181846 224.141065694 720 319.22807892 c 1
 720 544.77192108 l 1
 692.141181177 639.858934707 630.471174995 715.295006941 554.203865361 754.26011445 c 0
 516.580722591 773.479288098 475.290487042 784 432 784 c 0
 391.421779134 784 352.373590802 768.988170845 316.922408029 740.153311245 c 0
 245.744053674 682.259111566 192 567.502666675 192 432 c 0
 192 296.497333325 245.744053674 181.740888434 316.922408029 123.846688755 c 0
 352.373590802 95.0118291554 391.421779134 80 432 80 c 0
928 -288 m 2
 954.49192 -288 976 -309.50808 976 -336 c 0
 976 -362.49192 954.49192 -384 928 -384 c 2
 608 -384 l 2
 581.50808 -384 560 -362.49192 560 -336 c 0
 560 -309.50808 581.50808 -288 608 -288 c 2
 720 -288 l 1
 720 121.075390437 l 1
 685.502996319 81.0001678265 644.225435336 47.9188058197 597.789009129 24.1959274966 c 0
 547.443357298 -1.52399493195 491.234121275 -16 432 -16 c 0
 366.578220866 -16 306.293075864 8.76594862235 256.410925305 49.33849643 c 0
 156.922612993 130.259111566 96 272.836000009 96 432 c 0
 96 591.163999991 156.922612993 733.740888434 256.410925305 814.66150357 c 0
 306.293075864 855.234051378 366.578220866 880 432 880 c 0
 491.312623568 880 547.578207707 865.470338798 597.964764985 839.714233851 c 0
 644.276150297 816.025718331 685.524266864 782.975263618 720 742.9257678 c 1
 720 816 l 2
 720 842.49192 741.50808 864 768 864 c 0
 794.49192 864 816 842.49192 816 816 c 2
 816 552.826081555 l 2
 816.012141523 552.382766449 816.018242531 551.9379536 816.018242531 551.491727029 c 0
 816.018242531 551.045274229 816.012135335 550.600236585 816 550.156693155 c 2
 816 313.843306846 l 2
 816.012135335 313.399763415 816.018242531 312.954725771 816.018242531 312.508272972 c 0
 816.018242531 312.061978914 816.012139677 311.617099006 816 311.173737304 c 2
 816 -288 l 1
 928 -288 l 2
EndSplineSet
EndChar

StartChar: braceleft
Encoding: 123 123 81
Width: 1024
Flags: HW
LayerCount: 2
Back
SplineSet
512 368 m 29
 512 268 512 253 512 112 c 4
 512 -29 627 -144 768 -144 c 1028
512 1136 m 29
 512 1036 512 1021 512 880 c 4
 512 739 397 624 256 624 c 1028
256 624 m 4
 397 624 512 509 512 368 c 1028
512 1136 m 4
 512 1277 627 1392 768 1392 c 1028
EndSplineSet
Fore
SplineSet
464 368 m 2
 464 482.469572763 370.469572763 576 256 576 c 0
 229.50808 576 208 597.50808 208 624 c 0
 208 650.49192 229.50808 672 256 672 c 0
 370.469572763 672 464 765.530427237 464 880 c 2
 464 1136 l 2
 464 1303.53042724 600.469572763 1440 768 1440 c 0
 794.49192 1440 816 1418.49192 816 1392 c 0
 816 1365.50808 794.49192 1344 768 1344 c 0
 653.530427237 1344 560 1250.46957276 560 1136 c 2
 560 880 l 2
 560 772.687112542 504.00461939 678.118929512 419.718407262 624 c 1
 504.00461939 569.881070488 560 475.312887458 560 368 c 2
 560 112 l 2
 560 -2.46957276332 653.530427237 -96 768 -96 c 0
 794.49192 -96 816 -117.50808 816 -144 c 0
 816 -170.49192 794.49192 -192 768 -192 c 0
 600.469572763 -192 464 -55.5304272367 464 112 c 2
 464 368 l 2
EndSplineSet
EndChar

StartChar: braceright
Encoding: 125 125 82
Width: 1024
Flags: HW
LayerCount: 2
Back
SplineSet
512 368 m 29
 512 268 512 253 512 112 c 4
 512 -29 397 -144 256 -144 c 1028
512 1136 m 29
 512 1036 512 1021 512 880 c 4
 512 739 627 624 768 624 c 1028
768 624 m 4
 627 624 512 509 512 368 c 1028
512 1136 m 4
 512 1277 397 1392 256 1392 c 1028
EndSplineSet
Fore
SplineSet
464 880 m 2
 464 1136 l 2
 464 1250.46957276 370.469572763 1344 256 1344 c 0
 229.50808 1344 208 1365.50808 208 1392 c 0
 208 1418.49192 229.50808 1440 256 1440 c 0
 423.530427237 1440 560 1303.53042724 560 1136 c 2
 560 880 l 2
 560 765.530427237 653.530427237 672 768 672 c 0
 794.49192 672 816 650.49192 816 624 c 0
 816 597.50808 794.49192 576 768 576 c 0
 653.530427237 576 560 482.469572763 560 368 c 2
 560 112 l 2
 560 -55.5304272367 423.530427237 -192 256 -192 c 0
 229.50808 -192 208 -170.49192 208 -144 c 0
 208 -117.50808 229.50808 -96 256 -96 c 0
 370.469572763 -96 464 -2.46957276332 464 112 c 2
 464 368 l 2
 464 475.312887458 519.99538061 569.881070488 604.281592738 624 c 1
 519.99538061 678.118929512 464 772.687112542 464 880 c 2
EndSplineSet
EndChar

StartChar: Q
Encoding: 81 81 83
Width: 1024
Flags: HW
AnchorPoint: "top" 512 1272 basechar 0
AnchorPoint: "ogonek" 769 -239 basechar 0
AnchorPoint: "cedilla" 416 48 basechar 0
LayerCount: 2
Back
SplineSet
144 24 m 1049
640 112 m 25
 640 25 640 -41 640 -112 c 0
 640 -183 697 -240 768 -240 c 0
 839 -240 896 -183 896 -112 c 1024
320.799772802 128 m 1
 328.893030722 208.561931984 397.397841137 272 480 272 c 0
 568 272 640 200 640 112 c 1024
144 624 m 0
 144 951 288 1216 512 1216 c 0
 736 1216 880 951 880 624 c 0
 880 297 736 32 512 32 c 4
 288 32 144 297 144 624 c 0
EndSplineSet
Fore
SplineSet
592 112 m 2
 592 173.443038651 541.443038651 224 480 224 c 0
 424.977130611 224 378.615558333 183.43808068 369.590482378 130.763885236 c 1
 411.748981437 97.4959823367 458.997941819 80.0000000001 512 80 c 0
 540.269826691 80 566.902977887 84.9773611617 592 94.6704796797 c 1
 592 112 l 2
96 624 m 0
 96 750.396919551 116.456600067 868.514864564 155.218078625 968.787919865 c 0
 186.205433935 1048.9498979 229.071655206 1118.23808024 284.133809497 1170.12069437 c 0
 346.183992317 1228.58781636 424.062958597 1264 512 1264 c 0
 599.937041403 1264 677.816007683 1228.58781636 739.866190503 1170.12069437 c 0
 794.928344794 1118.23808024 837.794566065 1048.9498979 868.781921375 968.787919865 c 0
 907.543399933 868.514864564 928 750.396919551 928 624 c 0
 928 497.603080449 907.543399933 379.485135436 868.781921375 279.212080135 c 0
 837.794566065 199.050102105 794.928344794 129.761919759 739.866190503 77.8793056281 c 0
 723.627117053 62.5779504142 706.30390727 48.8556613612 688 36.9339397334 c 1
 688 -112 l 2
 688 -156.602251468 723.397748532 -192 768 -192 c 0
 812.602251468 -192 848 -156.602251468 848 -112 c 0
 848 -85.50808 869.50808 -64 896 -64 c 0
 922.49192 -64 944 -85.50808 944 -112 c 0
 944 -209.397748532 865.397748532 -288 768 -288 c 0
 670.602251468 -288 592 -209.397748532 592 -112 c 2
 592 -5.82567579879 l 1
 566.453867499 -12.4794399467 539.726903729 -16 512 -16 c 0
 424.062958597 -16 346.183992317 19.4121836367 284.133809497 77.8793056281 c 0
 229.071655206 129.761919759 186.205433935 199.050102105 155.218078625 279.212080135 c 0
 116.456600067 379.485135436 96 497.603080449 96 624 c 0
683.153713016 156.680318884 m 1
 778.626073928 254.298182172 832 429.582283761 832 624 c 0
 832 823.478267207 775.376217307 1004.78367031 674.059735423 1100.249676 c 0
 627.072881206 1144.52329475 573.39629193 1168 512 1168 c 0
 450.60370807 1168 396.927118794 1144.52329475 349.940264577 1100.249676 c 0
 248.679104808 1004.83579787 192 823.407123719 192 624 c 0
 192 458.706401958 229.920037277 311.967085745 297.201372951 211.046290428 c 1
 332.498356821 275.840530322 401.238853158 320 480 320 c 0
 579.22768566 320 662.614039869 249.891656412 683.153713016 156.680318884 c 1
EndSplineSet
EndChar

StartChar: c
Encoding: 99 99 84
Width: 1024
Flags: HW
AnchorPoint: "cedilla" 512 32 basechar 0
AnchorPoint: "ogonek" 513 33 basechar 0
AnchorPoint: "top" 512 912 basechar 0
LayerCount: 2
Back
SplineSet
880 236.311267897 m 1025
880 236.311267897 m 5
 818.976190213 116.401338399 677.226029586 32 512 32 c 1028
848 576 m 25
 848 816 l 1049
512 32 m 1024
848 595.335385129 m 1025
512 32 m 1
 309 32 144 211 144 432 c 0
 144 653 309 832 512 832 c 0
 661.548870975 832 790.474459105 734.853483439 848 595.335385129 c 1025
EndSplineSet
Fore
SplineSet
879.996619216 284.316774402 m 0
 906.49063146 284.316774402 928.000410097 262.806995765 928.000410097 236.312983521 c 0
 928.000410097 228.495974659 926.12791071 221.112860285 922.807369627 214.588098089 c 0
 852.262418924 75.969416386 692.965817322 -16 512 -16 c 0
 279.12206688 -16 96 187.921288359 96 432 c 0
 96 676.078711641 279.12206688 880 512 880 c 0
 624.430623529 880 725.635345818 832.064304167 800 755.190105717 c 1
 800 816 l 2
 800 842.49192 821.50808 864 848 864 c 0
 874.49192 864 896 842.49192 896 816 c 2
 896 576 l 2
 896 549.50808 874.49192 528 848 528 c 0
 821.50808 528 800 549.50808 800 576 c 2
 800 585.50995069 l 1
 747.390421903 704.632415398 636.957796288 784 512 784 c 0
 338.87793312 784 192 629.921288359 192 432 c 0
 192 234.078711641 338.87793312 80 512 80 c 0
 661.565811619 80 785.714271343 156.88102851 837.242825504 258.13306961 c 0
 845.1195629 273.627336455 861.319615833 284.316774402 879.996619216 284.316774402 c 0
EndSplineSet
EndChar

StartChar: b
Encoding: 98 98 85
Width: 1024
Flags: HW
AnchorPoint: "cedilla" 560 32 basechar 0
AnchorPoint: "ogonek" 561 33 basechar 0
AnchorPoint: "top" 512 1272 basechar 0
LayerCount: 2
Back
SplineSet
592 832 m 4
 751 832 880 653 880 432 c 4
 880 211 751 32 592 32 c 1028
592 32 m 4
 540.735856348 32 491.985487998 44.4990494197 448 66.9692679994 c 1029
448 66.9692679994 m 5
 356.881794837 113.517483781 286.21124347 202.855234641 256 312.510417205 c 1029
256 551.489582795 m 5
 286.21124347 661.144765359 356.881794837 750.482516219 448 797.030732001 c 1029
448 797.030732001 m 5
 491.985487998 819.50095058 540.735856348 832 592 832 c 1028
96 48 m 25
 256 48 l 25
 256 1200 l 25
 96 1200 l 1049
EndSplineSet
Fore
SplineSet
592 80 m 0
 632.578220866 80 671.626409198 95.0118291554 707.077591971 123.846688755 c 0
 778.255946326 181.740888434 832 296.497333325 832 432 c 0
 832 567.502666675 778.255946326 682.259111566 707.077591971 740.153311245 c 0
 671.626409198 768.988170845 632.578220866 784 592 784 c 0
 548.706398755 784 507.414385859 773.478055122 469.718194085 754.220742126 c 0
 393.496115084 715.25515296 331.85172105 639.833995274 304 544.772178478 c 1
 304 319.227821522 l 1
 331.86032699 224.136623689 393.53422029 148.698228208 469.788869932 109.743138174 c 0
 507.414386922 90.5219446067 548.706399312 80 592 80 c 0
255.966806285 1247.98409182 m 2
 284.996920185 1247.98409182 304 1224.41924791 304 1200 c 2
 304 742.924725287 l 1
 338.504471515 783.008712018 379.789996973 816.09012145 426.211131522 839.804602918 c 0
 476.556590138 865.523846038 532.765313942 880 592 880 c 0
 657.421779134 880 717.706924136 855.234051378 767.589074695 814.66150357 c 0
 867.077387007 733.740888434 928 591.163999991 928 432 c 0
 928 272.836000009 867.077387007 130.259111566 767.589074695 49.33849643 c 0
 717.706924136 8.76594862235 657.421779134 -16 592 -16 c 0
 532.69866285 -16 476.427434468 -1.47135309956 426.060980294 24.272142956 c 0
 379.739082438 47.9617580929 338.48209589 81.0171437172 304 121.074116613 c 1
 304 48 l 2
 304 21.50808 282.49192 0 256 0 c 2
 96 0 l 2
 69.50808 0 48 21.50808 48 48 c 0
 48 74.49192 69.50808 96 96 96 c 2
 208 96 l 1
 208 311.787084769 l 2
 207.996217991 312.035041353 207.994320619 312.283447819 207.994320619 312.532293943 c 0
 207.994320619 312.781161015 208 313.029588354 208 313.277562269 c 2
 208 550.722437732 l 2
 207.99621831 550.970411646 207.994320619 551.218838985 207.994320619 551.467706057 c 0
 207.994320619 551.716573129 208 551.965000469 208 552.212974383 c 2
 208 1152 l 1
 96 1152 l 2
 69.50808 1152 48 1173.50808 48 1200 c 0
 48 1226.49192 69.50808 1248 96 1248 c 2
 255.966806285 1247.98409182 l 2
EndSplineSet
EndChar

StartChar: t
Encoding: 116 116 86
Width: 1024
Flags: HW
AnchorPoint: "cedilla" 576 32 basechar 0
AnchorPoint: "ogonek" 577 33 basechar 0
AnchorPoint: "top" 512 1272 basechar 0
LayerCount: 2
Back
SplineSet
112 816 m 29
 656 816 l 1053
384 224 m 29
 384 1184 l 1053
896 352 m 4
 896 175 753 32 576 32 c 1028
576 32 m 4
 470 32 384 118 384 224 c 1028
EndSplineSet
Fore
SplineSet
112 768 m 2
 85.50808 768 64 789.50808 64 816 c 0
 64 842.49192 85.50808 864 112 864 c 2
 336 864 l 1
 336 1184 l 2
 336 1210.49192 357.50808 1232 384 1232 c 0
 410.49192 1232 432 1210.49192 432 1184 c 2
 432 864 l 1
 656 864 l 2
 682.49192 864 704 842.49192 704 816 c 0
 704 789.50808 682.49192 768 656 768 c 2
 432 768 l 1
 432 224 l 2
 432 144.486202548 496.486202548 80 576 80 c 0
 726.549178295 80 848 201.450821705 848 352 c 0
 848 378.49192 869.50808 400 896 400 c 0
 922.49192 400 944 378.49192 944 352 c 0
 944 148.549178295 779.450821705 -16 576 -16 c 0
 443.513797452 -16 336 91.5137974519 336 224 c 2
 336 768 l 1
 112 768 l 2
EndSplineSet
EndChar

StartChar: C
Encoding: 67 67 87
Width: 1024
Flags: HW
AnchorPoint: "top" 512 1272 basechar 0
AnchorPoint: "ogonek" 513 33 basechar 0
AnchorPoint: "cedilla" 512 32 basechar 0
LayerCount: 2
Back
SplineSet
848 816 m 25
 848 1200 l 1049
880 432 m 0
 880 211 715 32 512 32 c 4
 309 32 144 297 144 624 c 0
 144 951 309 1216 512 1216 c 0
 661.548870975 1216 790.474459105 1072.17973805 848 865.702073769 c 1025
EndSplineSet
Fore
SplineSet
896 816 m 2
 896 789.50808 874.49192 768 848 768 c 0
 821.50808 768 800 789.50808 800 816 c 2
 800 859.001775716 l 1
 763.403533429 986.077280586 698.529460057 1082.84039157 626.197552005 1131.11166597 c 0
 589.51883962 1155.58949654 551.271393851 1168 512 1168 c 0
 458.884197484 1168 406.959015822 1145.18152019 359.27359791 1100.249676 c 0
 257.486250778 1004.33999497 192 823.176687711 192 624 c 0
 192 424.758961067 257.433844804 243.709384843 359.27359791 147.750324001 c 0
 406.959015822 102.818479814 458.884197484 80 512 80 c 0
 685.12206688 80 832 234.078711641 832 432 c 0
 832 458.49192 853.50808 480 880 480 c 0
 906.49192 480 928 458.49192 928 432 c 0
 928 187.921288359 744.87793312 -16 512 -16 c 0
 429.782469183 -16 354.818761956 20.0704090748 293.46714283 77.8793056281 c 0
 238.875372329 129.318698078 194.221832682 198.081491022 161.076125383 278.170457051 c 0
 119.627517525 378.321469568 96 496.822265365 96 624 c 0
 96 751.177734635 119.627517525 869.678530432 161.076125383 969.829542949 c 0
 194.221832682 1049.91850898 238.875372329 1118.68130192 293.46714283 1170.12069437 c 0
 354.818761956 1227.92959093 429.782469183 1264 512 1264 c 0
 572.427853466 1264 629.29670327 1244.45044525 679.390092909 1211.02022307 c 0
 725.254660523 1180.41213892 765.722720647 1138.51359776 800 1088.12092166 c 1
 800 1200 l 2
 800 1226.49192 821.50808 1248 848 1248 c 0
 874.49192 1248 896 1226.49192 896 1200 c 2
 896 866.389765269 l 2
 896.003407206 866.154388872 896.005116309 865.918607274 896.005116309 865.682429643 c 0
 896.005116309 865.446235697 896 865.210437838 896 864.975047772 c 2
 896 816 l 2
EndSplineSet
EndChar

StartChar: G
Encoding: 71 71 88
Width: 1024
Flags: HW
AnchorPoint: "top" 512 1272 basechar 0
AnchorPoint: "ogonek" 849 49 basechar 0
AnchorPoint: "cedilla" 512 48 basechar 0
LayerCount: 2
Back
SplineSet
848 560 m 25
 848 48 l 1053
656 576 m 25
 976 576 l 1049
848 1200 m 25
 848 816 l 1049
848 382.297851562 m 1
 790.474609375 175.8203125 696 32 512 32 c 0
 279.99315496 32 144 297 144 624 c 0
 144 951 280 1216 512 1216 c 0
 696 1216 790.474459105 1072.17973805 848 865.702073769 c 1025
848 1200 m 1049
EndSplineSet
Fore
SplineSet
656 528 m 2
 629.50808 528 608 549.50808 608 576 c 0
 608 602.49192 629.50808 624 656 624 c 2
 976 624 l 2
 1002.49192 624 1024 602.49192 1024 576 c 0
 1024 549.50808 1002.49192 528 976 528 c 2
 896 528 l 1
 896 383.02488508 l 2
 896.003407039 382.78949265 896.005116412 382.553692418 896.005116412 382.317496091 c 0
 896.005116412 382.081299764 896 381.845499533 896 381.610107102 c 2
 896 48 l 2
 896 21.50808 874.49192 0 848 0 c 0
 821.50808 0 800 21.50808 800 48 c 2
 800 146.465792533 l 1
 769.109885312 99.3821104419 730.454757372 58.2947512384 683.156164562 29.6330688384 c 0
 634.170901158 -0.0506908369939 576.706397646 -16 512 -16 c 0
 421.844109839 -16 342.884391664 19.1681421717 280.575211702 77.8793056281 c 0
 225.33197445 129.932546164 183.151531669 199.429518967 152.989141953 279.616721749 c 0
 115.255025174 379.933483861 96 497.900365411 96 624 c 0
 96 854.048195715 159.574539622 1056.10428693 280.578253942 1170.12069437 c 0
 342.8872142 1228.83165081 421.846015009 1264 512 1264 c 0
 576.706394757 1264 634.170887782 1248.05069627 683.156139487 1218.36693616 c 0
 730.456503192 1189.70417338 769.108557969 1148.61978755 800 1101.53412846 c 1
 800 1200 l 2
 800 1226.49192 821.50808 1248 848 1248 c 0
 874.49192 1248 896 1226.49192 896 1200 c 2
 896 866.389765269 l 2
 896.003407206 866.154388872 896.005116309 865.918607274 896.005116309 865.682429643 c 0
 896.005116309 865.446235697 896 865.210437838 896 864.975047772 c 2
 896 816 l 2
 896 789.50808 874.49192 768 848 768 c 0
 821.50808 768 800 789.50808 800 816 c 2
 800 859.041323961 l 1
 775.59401913 944.857336125 744.747015356 1016.65770656 706.322685586 1068.0467553 c 0
 684.460608191 1097.28529681 660.4422017 1119.88187313 633.507084488 1136.20383801 c 0
 599.933223463 1156.54870513 560.873852156 1168 512 1168 c 0
 447.487318325 1168 393.1127858 1144.2794603 346.384709021 1100.249676 c 0
 245.332221861 1005.03242077 192 823.483123317 192 624 c 0
 192 424.443074166 245.27299521 243.020519294 346.381666781 147.750324001 c 0
 393.109523856 103.720746717 447.484660134 80 512 80 c 0
 560.873849268 80 599.933238717 91.4512990713 633.507118792 111.796172576 c 0
 660.442250933 128.118142363 684.460670347 150.71472266 706.322752658 179.953259697 c 0
 744.747091954 231.342301767 775.594084246 303.142642767 800 388.95858896 c 1
 800 528 l 1
 656 528 l 2
EndSplineSet
EndChar

StartChar: r
Encoding: 114 114 90
Width: 1024
Flags: HW
AnchorPoint: "top" 512 912 basechar 0
AnchorPoint: "ogonek" 513 49 basechar 0
AnchorPoint: "cedilla" 416 48 basechar 0
LayerCount: 2
Back
SplineSet
928 672 m 25
 928 624 l 1049
832 624 m 0
 832 650 854 672 880 672 c 0
 906 672 928 650 928 624 c 0
 928 598 906 576 880 576 c 0
 854 576 832 598 832 624 c 0
672 832 m 0
 813 832 928 760 928 672 c 1024
416 576 m 0
 416 717 531 832 672 832 c 1024
144 816 m 25
 416 816 l 25
 416 64 l 1049
144 48 m 25
 688 48 l 1049
EndSplineSet
Fore
SplineSet
859.729343108 717.836351984 m 1
 823.6528775 757.954683931 750.37203192 784 672 784 c 0
 557.530427237 784 464 690.469572763 464 576 c 0
 464 575.530801028 463.993253339 575.063165389 463.97985182 574.597184885 c 2
 463.998737279 96 l 1
 688 96 l 2
 714.49192 96 736 74.49192 736 48 c 0
 736 21.50808 714.49192 0 688 0 c 2
 144 0 l 2
 117.50808 0 96 21.50808 96 48 c 0
 96 74.49192 117.50808 96 144 96 c 2
 368 96 l 1
 368 768 l 1
 144 768 l 2
 117.50808 768 96 789.50808 96 816 c 0
 96 842.49192 117.50808 864 144 864 c 2
 416 864 l 2
 445.013165727 864 463.970327819 839.885080951 463.970327819 815.955360083 c 0
 463.970327819 809.774438962 463.971059517 803.59351784 463.971059517 797.412596719 c 1
 518.406362824 848.591372636 591.628835922 880 672 880 c 0
 780.141039339 880 873.666072433 843.247561778 927.954593573 785.436158234 c 0
 956.610083539 754.9211606 976 715.891426844 976 672 c 2
 976 624 l 2
 976 571.160036433 932.839963567 528 880 528 c 0
 827.160036433 528 784 571.160036433 784 624 c 0
 784 669.890237928 816.553478539 708.479386092 859.729343108 717.836351984 c 1
EndSplineSet
EndChar

StartChar: nine
Encoding: 57 57 91
Width: 1024
Flags: HW
LayerCount: 2
Back
SplineSet
192 208 m 29
 192 240 l 1053
448 32 m 4
 307 32 192 111 192 208 c 1028
288 240 m 4
 288 214 266 192 240 192 c 4
 214 192 192 214 192 240 c 4
 192 266 214 288 240 288 c 4
 266 288 288 266 288 240 c 4
880 624 m 29
 880 848 l 1053
880 624 m 4
 880 297 686 32 448 32 c 1028
880 848 m 4
 880 645 715 480 512 480 c 4
 309 480 144 645 144 848 c 4
 144 1051 309 1216 512 1216 c 4
 715 1216 880 1051 880 848 c 4
EndSplineSet
Fore
SplineSet
832 848 m 0
 832 1024.49841478 688.498414783 1168 512 1168 c 0
 335.501585217 1168 192 1024.49841478 192 848 c 0
 192 671.501585217 335.501585217 528 512 528 c 0
 688.498414783 528 832 671.501585217 832 848 c 0
266.017451299 147.598060698 m 1
 302.304641328 107.512283232 371.273634096 80 448 80 c 0
 515.059378394 80 578.985777451 104.690701063 635.765309298 150.265475757 c 0
 741.55891101 235.181983613 820.228075279 393.617345283 830.790021 580.922825453 c 1
 754.43823329 489.919161208 639.896673566 432 512 432 c 0
 282.498414783 432 96 618.498414783 96 848 c 0
 96 1077.50158522 282.498414783 1264 512 1264 c 0
 741.501585217 1264 928 1077.50158522 928 848 c 2
 928 624 l 2
 928 393.938172817 837.976435459 189.491610135 695.790246257 75.3641538722 c 0
 624.569778104 18.1981878255 539.607288273 -16 448 -16 c 0
 337.563946767 -16 243.573908741 25.972739164 190.518765171 88.120527972 c 0
 162.199890231 121.292720913 144 162.545587709 144 208 c 2
 144 240 l 2
 144 292.839963567 187.160036433 336 240 336 c 0
 292.839963567 336 336 292.839963567 336 240 c 0
 336 196.169231014 306.302836914 158.998937748 266.017451299 147.598060698 c 1
EndSplineSet
Substitution2: "'onum' Oldstyle Figures lookup 16 subtable" nine.oldstyle
EndChar

StartChar: six
Encoding: 54 54 92
Width: 1024
Flags: HW
LayerCount: 2
Back
SplineSet
832 1040 m 29
 832 1008 l 1053
576 1216 m 4
 717 1216 832 1137 832 1040 c 1028
736 1008 m 4
 736 1034 758 1056 784 1056 c 4
 810 1056 832 1034 832 1008 c 4
 832 982 810 960 784 960 c 4
 758 960 736 982 736 1008 c 4
144 624 m 29
 144 400 l 1053
144 624 m 4
 144 951 338 1216 576 1216 c 1028
144 400 m 4
 144 603 309 768 512 768 c 4
 715 768 880 603 880 400 c 4
 880 197 715 32 512 32 c 4
 309 32 144 197 144 400 c 4
EndSplineSet
Fore
SplineSet
192 400 m 0
 192 223.501585217 335.501585217 80 512 80 c 0
 688.498414783 80 832 223.501585217 832 400 c 0
 832 576.498414783 688.498414783 720 512 720 c 0
 335.501585217 720 192 576.498414783 192 400 c 0
757.982548701 1100.4019393 m 1
 721.695358672 1140.48771677 652.726365904 1168 576 1168 c 0
 508.940621606 1168 445.014222549 1143.30929894 388.234690702 1097.73452424 c 0
 282.44108899 1012.81801639 203.771924721 854.382654717 193.209979 667.077174547 c 1
 269.56176671 758.080838792 384.103326434 816 512 816 c 0
 741.501585217 816 928 629.501585217 928 400 c 0
 928 170.498414783 741.501585217 -16 512 -16 c 0
 282.498414783 -16 96 170.498414783 96 400 c 2
 96 624 l 2
 96 854.061827183 186.023564541 1058.50838986 328.209753743 1172.63584613 c 0
 399.430221896 1229.80181217 484.392711727 1264 576 1264 c 0
 686.436053233 1264 780.426091259 1222.02726084 833.481234829 1159.87947203 c 0
 861.800109769 1126.70727909 880 1085.45441229 880 1040 c 2
 880 1008 l 2
 880 955.160036433 836.839963567 912 784 912 c 0
 731.160036433 912 688 955.160036433 688 1008 c 0
 688 1051.83076899 717.697163086 1089.00106225 757.982548701 1100.4019393 c 1
EndSplineSet
Substitution2: "'onum' Oldstyle Figures lookup 16 subtable" six.oldstyle
EndChar

StartChar: five
Encoding: 53 53 93
Width: 1024
Flags: HW
LayerCount: 2
Back
SplineSet
208 656 m 25
 208 1200 l 25
 816 1200 l 25
 816 1040 l 1053
512 768 m 0
 304 768 208 656 208 656 c 1024
512 768 m 0
 715 768 880 603 880 400 c 0
 880 197 715 32 512 32 c 1024
512 32 m 0
 309 32 144 147 144 288 c 1024
144 288 m 25
 144 320 l 1049
144 320 m 0
 144 346 166 368 192 368 c 0
 218 368 240 346 240 320 c 0
 240 294 218 272 192 272 c 0
 166 272 144 294 144 320 c 0
EndSplineSet
Fore
SplineSet
816 1248 m 2
 840.144086347 1248 864.009646616 1229.18281201 864.009646616 1199.99082384 c 2
 864 1040 l 2
 864 1013.50808 842.49192 992 816 992 c 0
 789.50808 992 768 1013.50808 768 1040 c 2
 768 1152 l 1
 256 1152 l 1
 256 752.347116841 l 1
 312.126929277 784.314133089 396.815650925 816 512 816 c 0
 741.501585217 816 928 629.501585217 928 400 c 0
 928 170.498414783 741.501585217 -16 512 -16 c 0
 359.77802691 -16 229.788798402 42.3777226796 157.579550824 128.058220385 c 0
 119.609027117 173.112468678 96 228.060526263 96 288 c 2
 96 320 l 2
 96 372.839963567 139.160036433 416 192 416 c 0
 244.839963567 416 288 372.839963567 288 320 c 0
 288 272.392543657 252.964627504 232.642815919 207.380244873 225.237179147 c 1
 213.461736616 213.161821 221.342092274 201.342853029 231.013041769 189.867705541 c 0
 285.760321667 124.906854305 392.264889209 80 512 80 c 0
 688.498414783 80 832 223.501585217 832 400 c 0
 832 576.498414783 688.498414783 720 512 720 c 0
 427.425195755 720 364.596394347 699.913620069 320.900133997 678.258836179 c 0
 296.616229246 666.224334709 278.233146682 653.652060098 265.539965443 643.670661812 c 0
 251.783957058 632.853499752 244.72917643 625.082595546 244.225877863 624.521948728 c 0
 235.389828206 614.362621182 222.421983378 607.961562904 207.970890274 607.961561748 c 0
 181.483577334 607.961561748 159.979237683 629.465901399 159.979237683 655.953214338 c 0
 159.979237683 656.429468848 159.986189984 656.904112375 160 657.377052218 c 2
 160 1200 l 2
 160 1225.2008717 179.831056274 1247.95463374 208.053849193 1247.95463374 c 2
 816 1248 l 2
EndSplineSet
Substitution2: "'onum' Oldstyle Figures lookup 16 subtable" five.oldstyle
EndChar

StartChar: two
Encoding: 50 50 94
Width: 1024
Flags: HW
LayerCount: 2
Back
SplineSet
848 944 m 4
 848 784 712 679 512 624 c 4
 336.10187302 575.628015081 144 416 144 48 c 1028
880 336 m 4
 880 128 800 32 656 32 c 4
 584 32 548 68 512 104 c 1025
512 104 m 1
 476 140 440 176 368 176 c 4
 224 176 144 48 144 48 c 1028
176 944 m 4
 176 1094 327 1216 512 1216 c 4
 697 1216 848 1094 848 944 c 1028
176 912 m 5
 176 944 l 1053
176 912 m 4
 176 938 198 960 224 960 c 4
 250 960 272 938 272 912 c 4
 272 886 250 864 224 864 c 4
 198 864 176 886 176 912 c 4
EndSplineSet
Fore
SplineSet
832 336 m 0
 832 362.49192 853.50808 384 880 384 c 0
 906.49192 384 928 362.49192 928 336 c 0
 928 238.334258302 911.848343513 159.199470047 875.026416366 98.7215955173 c 0
 832.641566652 29.1069440984 761.903181869 -16 656 -16 c 0
 616.672715508 -16 583.274130749 -6.81226236362 555.800335786 7.70219535275 c 0
 521.569943499 25.7861761839 497.901401071 50.2296589288 478.06553 70.06553 c 0
 457.901401071 90.2296589288 441.569943499 105.786176184 423.454656774 115.35651634 c 0
 409.051908527 122.965515414 392.672715508 128 368 128 c 0
 252.636973544 128 184.814431115 22.7394540326 184.67145755 22.5106963356 c 0
 176.188122917 8.93736133757 161.110352449 -0.099514255809 143.938562336 -0.099514255809 c 0
 117.447397936 -0.099514255809 95.9399313876 21.4079522926 95.9399313876 47.8991166924 c 0
 95.9399313876 218.826285827 135.880037019 351.038264158 199.124135736 449.587601028 c 0
 278.344015962 573.031002312 392.137279496 640.829303555 499.260136465 670.288089221 c 0
 562.739256736 687.744847296 618.426690049 710.298960163 663.500248906 737.128459483 c 0
 703.605573579 761.00067655 735.071200433 788.061597651 757.407830473 817.547028368 c 0
 785.231824305 854.276044381 800 895.22074682 800 944 c 0
 800 982.96417498 787.050946321 1020.04548829 763.117190255 1053.04919754 c 0
 715.170924392 1119.16521435 621.653349348 1168 512 1168 c 0
 402.346650652 1168 308.829075608 1119.16521435 260.882809745 1053.04919754 c 0
 250.345063916 1038.51806008 241.936741439 1023.19646466 235.825502419 1007.2717356 c 1
 283.130433273 1001.40639357 320 960.837747504 320 912 c 0
 320 859.160036433 276.839963567 816 224 816 c 0
 171.160036433 816 128 859.160036433 128 912 c 2
 128 944 l 2
 128 1005.03582502 148.606501876 1061.73228949 183.117190255 1109.32117283 c 0
 252.059813281 1204.39034121 374.986682681 1264 512 1264 c 0
 649.013317319 1264 771.940186719 1204.39034121 840.882809745 1109.32117283 c 0
 875.393498124 1061.73228949 896 1005.03582502 896 944 c 0
 896 874.260734661 873.456790235 811.776081819 833.973971082 759.656853154 c 0
 802.465150733 718.063688128 760.888253582 683.377924273 712.499751094 654.575244221 c 0
 658.017754395 622.145484282 594.594076597 596.921819371 524.739863535 577.711910779 c 0
 436.420357193 553.424046535 344.768945045 498.79913604 279.977234702 397.838252523 c 0
 242.794691432 339.899013072 213.766876042 265.614463599 200.269925489 170.843743291 c 1
 242.23474225 199.33303674 298.720379682 223.999999993 368 224 c 0
 407.327284492 224 440.725869251 214.812262364 468.199664214 200.297804647 c 0
 502.430056501 182.213823816 526.098598929 157.770341071 545.93447 137.93447 c 0
 566.098598929 117.770341071 582.430056501 102.213823816 600.545343226 92.6434836596 c 0
 614.948091473 85.0344845858 631.327284492 80 656 80 c 0
 686.232276047 80 711.220687532 84.9844951399 731.637480331 93.8502871058 c 0
 756.984144092 104.856827171 776.678588611 121.788580794 792.968096666 148.54315071 c 0
 816.546718216 187.269665756 832 248.776852809 832 336 c 0
EndSplineSet
Substitution2: "'onum' Oldstyle Figures lookup 16 subtable" two.oldstyle
EndChar

StartChar: y
Encoding: 121 121 95
Width: 1024
Flags: HW
AnchorPoint: "top" 512 912 basechar 0
AnchorPoint: "ogonek" 289 -351 basechar 0
AnchorPoint: "cedilla" 512 -336 basechar 0
LayerCount: 2
Back
SplineSet
203 814 m 1
 506 -16 l 1049
112 -192 m 0
 112 -280 176 -352 288 -352 c 0
 293.486275023 -352 288 -352 304 -352 c 0
 400 -352 448 -208 448 -208 c 0
 448 -208 676 417 822 816 c 1048
112 -192 m 25
 112 -144 l 1049
112 -144 m 0
 112 -118 134 -96 160 -96 c 0
 186 -96 208 -118 208 -144 c 0
 208 -170 186 -192 160 -192 c 0
 134 -192 112 -170 112 -144 c 0
640 816 m 25
 960 816 l 1049
64 816 m 25
 384 816 l 1049
EndSplineSet
Fore
SplineSet
592 816 m 0
 592 842.49192 613.50808 864 640 864 c 2
 819.857910964 864 l 2
 820.575871032 864.031940461 821.297910719 864.048080518 822.023690372 864.048080518 c 0
 822.749470024 864.048080518 823.471509711 864.031940461 824.18946978 864 c 2
 960 864 l 2
 986.49192 864 1008 842.49192 1008 816 c 0
 1008 789.50808 986.49192 768 960 768 c 2
 855.57939648 768 l 1
 493.347273463 -223.7799304 l 2
 491.279721939 -229.987779727 475.56536076 -275.92765631 441.97837656 -320.71030191 c 0
 414.657525478 -357.138103352 369.632232097 -400 304 -400 c 2
 288 -400 l 2
 228.974669396 -400 177.551788048 -382.939184445 138.564384028 -351.749261229 c 0
 89.5824628226 -312.563724264 64 -253.9698829 64 -192 c 2
 64 -144 l 2
 64 -91.1600364334 107.160036433 -48 160 -48 c 0
 212.839963567 -48 256 -91.1600364334 256 -144 c 0
 256 -193.596679294 217.975633885 -234.665258899 169.612705497 -239.519934974 c 1
 176.16740586 -254.171239899 185.932272462 -266.722138037 198.46716604 -276.7500529 c 0
 218.300063804 -292.616371111 247.469775048 -304 288 -304 c 2
 304 -304 l 2
 323.701101237 -304 345.046178225 -289.973007759 365.132734551 -263.190932658 c 0
 391.225740503 -228.400258055 402.263143412 -193.286317191 402.900471787 -191.54133255 c 2
 460.951756454 -32.5987376844 l 1
 168.684988359 768 l 1
 64 768 l 2
 37.50808 768 16 789.50808 16 816 c 0
 16 842.49192 37.50808 864 64 864 c 2
 384 864 l 2
 410.49192 864 432 842.49192 432 816 c 0
 432 789.50808 410.49192 768 384 768 c 2
 270.900553809 768 l 1
 512.071755117 107.366016221 l 1
 753.3580939 768 l 1
 640 768 l 2
 613.50808 768 592 789.50808 592 816 c 0
EndSplineSet
EndChar

StartChar: S
Encoding: 83 83 96
Width: 1024
Flags: HW
AnchorPoint: "cedilla" 512 32 basechar 0
AnchorPoint: "ogonek" 513 33 basechar 0
AnchorPoint: "top" 512 1272 basechar 0
LayerCount: 2
Back
SplineSet
800 1200 m 29
 800 864 l 1053
176 432 m 25
 176 48 l 1049
176 400 m 17
 176 195 320 32 512 32 c 1024
800 896 m 21
 800 1074 688 1216 512 1216 c 1024
512 32 m 0
 704 32 848 144 848 336 c 0
 848 464 772.973632812 625.983398438 512 672 c 1
 280.5703125 712.807617188 208 848 208 960 c 1
 208 1120 336 1216 512 1216 c 1024
EndSplineSet
Fore
SplineSet
224 400 m 2
 224 217.881885372 349.440943421 80 512 80 c 0
 589.052618819 80 654.968211318 100.101157276 703.249957409 134.629921147 c 0
 762.909407982 177.295467617 800 243.336276413 800 336 c 0
 800 384.597789613 787.261351549 438.54111698 754.248785135 486.452964682 c 0
 713.342989126 545.82042627 638.992911425 600.86050348 503.621838264 624.730028801 c 0
 393.735424785 644.106119846 312.858894248 684.32072956 257.016596386 737.150840496 c 0
 186.959109271 803.429359786 160 886.266025 160 960 c 0
 160 1005.94562821 169.136993205 1048.55271385 186.595945633 1086.39747486 c 0
 208.44669218 1133.76207387 243.123571944 1172.91286251 286.06926477 1201.78391652 c 0
 347.907850203 1243.35607479 426.049123441 1264 512 1264 c 0
 610.094058056 1264 693.368624711 1224.85334521 752 1161.15606438 c 1
 752 1200 l 2
 752 1226.49192 773.50808 1248 800 1248 c 0
 826.49192 1248 848 1226.49192 848 1200 c 2
 848 864 l 2
 848 837.50808 826.49192 816 800 816 c 0
 773.50808 816 752 837.50808 752 864 c 2
 752 896 l 2
 752 966.127503245 732.262398288 1028.32068928 698.869063637 1074.68506428 c 0
 657.448976548 1132.19403936 594.663628465 1168 512 1168 c 0
 441.506432115 1168 382.166223872 1150.71799928 339.532930017 1122.0569614 c 0
 309.928706672 1102.15496251 287.974652805 1076.95241748 273.817639318 1046.26507846 c 0
 262.470383719 1021.66828905 256 993.066717467 256 960 c 0
 256 909.289530556 273.837379926 853.365465639 322.964456427 806.888350606 c 0
 362.469809456 769.513954082 424.549297438 736.167317654 520.378161736 719.269971199 c 0
 674.9777917 692.009939229 775.816154392 624.336016632 833.355252931 540.828285318 c 0
 879.098602154 474.4399787 896 401.179988165 896 336 c 0
 896 215.330390254 844.201703129 117.420581766 759.005186624 56.4921639008 c 0
 691.402159052 8.14575630419 605.614047847 -16 512 -16 c 0
 394.796589682 -16 293.043255055 37.383316938 224 121.438157381 c 1
 224 48 l 2
 224 21.50808 202.49192 0 176 0 c 0
 149.50808 0 128 21.50808 128 48 c 2
 128 432 l 2
 128 458.49192 149.50808 480 176 480 c 0
 202.49192 480 224 458.49192 224 432 c 2
 224 400 l 2
EndSplineSet
EndChar

StartChar: s
Encoding: 115 115 97
Width: 1024
Flags: HW
AnchorPoint: "top" 512 912 basechar 0
AnchorPoint: "ogonek" 513 33 basechar 0
AnchorPoint: "cedilla" 512 32 basechar 0
LayerCount: 2
Back
SplineSet
800 592 m 29
 800 816 l 1053
176 304 m 29
 176 48 l 1053
800 592 m 21
 800 724 688 832 512 832 c 1028
176 304 m 21
 176 154 320 32 512 32 c 1028
208 656 m 4
 208 550 361.484943065 477.168361172 512 464 c 4
 679.440404855 449.350862759 848 364 848 240 c 4
 848 77 704 32 512 32 c 1028
208 656 m 4
 208 801 336 832 512 832 c 1028
EndSplineSet
Fore
SplineSet
752 816 m 2
 752 842.49192 773.50808 864 800 864 c 0
 826.49192 864 848 842.49192 848 816 c 2
 848 592 l 2
 848 565.50808 826.49192 544 800 544 c 0
 773.50808 544 752 565.50808 752 592 c 0
 752 660.889454552 714.28514183 721.47848021 643.828009291 755.973118015 c 0
 608.345834194 773.344599573 564.019704557 784 512 784 c 0
 436.181929737 784 372.299000072 777.336652054 329.592868162 761.36671197 c 0
 305.873923313 752.49702251 289.557692562 741.479897996 278.541631087 728.744164414 c 0
 265.071889572 713.17171688 256 691.899651171 256 656 c 0
 256 637.091614886 264.608936892 617.616353119 286.468211011 596.785338041 c 0
 334.681568664 550.839934054 428.738642828 519.470308853 516.230315089 511.815779377 c 0
 641.507328103 500.855460938 761.710182543 455.054467112 832.241128362 383.654218017 c 0
 869.793655424 345.63885107 896 296.67535167 896 240 c 0
 896 180.796177044 879.227806811 129.733295789 846.782062784 90.2199360207 c 0
 821.004527585 58.8273126499 787.132775671 36.4313804436 749.585475631 20.7582271693 c 0
 682.032598109 -7.43998155382 600.555571543 -16 512 -16 c 0
 397.221856483 -16 294.453912373 23.6122711598 224 89.8866137394 c 1
 224 48 l 2
 224 21.50808 202.49192 0 176 0 c 0
 149.50808 0 128 21.50808 128 48 c 2
 128 304 l 2
 128 330.49192 149.50808 352 176 352 c 0
 202.49192 352 224 330.49192 224 304 c 0
 224 277.637320471 229.590394626 252.358253048 240.143996685 228.687403096 c 0
 276.844838637 146.370473002 377.700279888 80 512 80 c 0
 594.111095123 80 664.337772261 89.2177593316 712.669668402 109.392664463 c 0
 739.502798174 120.59346333 758.956250752 134.514488227 772.558439737 151.079624984 c 0
 789.337350939 171.513465376 800 198.586539006 800 240 c 0
 800 265.991314996 788.748656766 291.105785098 763.954607129 316.205424691 c 0
 710.626549399 370.190757817 606.812251817 407.519118812 507.769684911 416.184220623 c 0
 395.001349642 426.050171564 285.652987199 464.978147584 220.265837759 527.289489146 c 0
 185.498828233 560.421060475 160 604.241718447 160 656 c 0
 160 709.606521668 175.314636872 756.121378685 205.913757187 791.497201984 c 0
 268.292403184 863.613522181 381.524129126 880 512 880 c 0
 577.313628776 880 636.098610251 866.655400427 685.949768487 842.249104207 c 0
 710.355362859 830.300531963 732.485129819 815.681816407 752 798.854988793 c 1
 752 816 l 2
EndSplineSet
EndChar

StartChar: a
Encoding: 97 97 98
Width: 1024
Flags: HW
AnchorPoint: "cedilla" 432 32 basechar 0
AnchorPoint: "ogonek" 849 49 basechar 0
AnchorPoint: "top" 512 912 basechar 0
LayerCount: 2
Back
SplineSet
768 128 m 25
 768 334 768 559 768 656 c 0
 768 753 639 832 480 832 c 1024
848 48 m 0
 804 48 768 84 768 128 c 1024
976 176 m 0
 976 105 919 48 848 48 c 1024
192 656 m 0
 192 753 321 832 480 832 c 1024
192 656 m 0
 192 682 214 704 240 704 c 0
 266 704 288 682 288 656 c 0
 288 630 266 608 240 608 c 0
 214 608 192 630 192 656 c 0
768 656 m 0
 768 550 632 464 464 464 c 1024
144 240 m 0
 144 112 240 32 400 32 c 4
 601 32 768 159 768 272 c 1028
144 240 m 0
 144 364 287 464 464 464 c 1024
EndSplineSet
Fore
SplineSet
720 489.969398781 m 1
 657.434344106 445.143214917 565.555949803 416 464 416 c 0
 357.384492245 416 268.197736627 374.737540357 224.470933175 322.428840901 c 0
 202.740944367 296.434087934 192 268.584132857 192 240 c 0
 192 214.419755541 196.701378702 192.504831979 204.968297498 173.891846571 c 0
 215.268983061 150.699830921 231.182990384 131.824630965 254.054331091 116.514835553 c 0
 287.011361566 94.4538029083 335.915231391 80 400 80 c 0
 517.424270945 80 625.50058778 129.699604922 681.667999315 191.748759207 c 0
 708.524241901 221.417335597 720 250.402066268 720 272 c 2
 720 489.969398781 l 1
723.424701266 98.5365519454 m 1
 649.034488486 33.5966672305 532.168830427 -16 400 -16 c 0
 321.862546387 -16 253.828144607 1.15113536328 200.749509787 36.681323569 c 0
 163.873860706 61.3654315256 134.943755512 95.016099916 117.184882253 135.000241168 c 0
 103.004153991 166.928181281 96 202.370367916 96 240 c 0
 96 294.08253381 117.036833411 343.565912066 150.788326084 383.94152947 c 0
 218.024485596 464.373570754 334.615507755 512 464 512 c 0
 559.067218033 512 646.492732242 543.37996711 691.315654972 591.728288258 c 0
 711.292157948 613.275976861 720 634.951698767 720 656 c 0
 720 673.491569891 712.538608232 692.219397403 694.020823895 711.532760622 c 0
 651.707162343 755.664342449 568.791308677 784 480 784 c 0
 405.69545715 784 339.872675557 765.156928684 294.474003483 734.955892981 c 1
 319.526355261 717.5952606 336 688.644983707 336 656 c 0
 336 603.160036433 292.839963567 560 240 560 c 0
 187.160036433 560 144 603.160036433 144 656 c 0
 144 703.175096775 165.205274899 745.113935931 196.687490562 777.948720859 c 0
 224.736665756 807.202971729 261.133480141 830.17013481 302.640800068 847.066813575 c 0
 354.565131332 868.20401894 415.136701642 880 480 880 c 0
 599.311968123 880 703.056155904 840.793865879 763.312509438 777.948720859 c 0
 794.794725101 745.113935931 816 703.175096775 816 656 c 2
 816 128 l 2
 816 110.556961349 830.556961349 96 848 96 c 0
 892.602251468 96 928 131.397748532 928 176 c 0
 928 202.49192 949.50808 224 976 224 c 0
 1002.49192 224 1024 202.49192 1024 176 c 0
 1024 78.6022514683 945.397748532 0 848 0 c 0
 787.578602858 0 736.774090396 42.1249301994 723.424701266 98.5365519454 c 1
EndSplineSet
EndChar

StartChar: dollar
Encoding: 36 36 99
Width: 1024
Flags: HW
LayerCount: 2
Back
SplineSet
512 1392 m 29
 512 -144 l 1053
EndSplineSet
Fore
SplineSet
464 1392 m 2
 464 1418.49192 485.50808 1440 512 1440 c 0
 538.49192 1440 560 1418.49192 560 1392 c 2
 560 -144 l 2
 560 -170.49192 538.49192 -192 512 -192 c 0
 485.50808 -192 464 -170.49192 464 -144 c 2
 464 1392 l 2
EndSplineSet
Refer: 96 83 N 1 0 0 1 0 0 2
Substitution2: "Fancy Dollar Sign (cv02) subtable" dollar.cv02
EndChar

StartChar: at
Encoding: 64 64 100
Width: 1024
Flags: HW
LayerCount: 2
Back
SplineSet
656 624 m 1
 656 624 638.315429688 558 638.315429688 558 c 4
 625.892115523 511.635560338 648 432 752 432 c 5
 880.000375465 431.363848444 959.999958645 512.070068232 960 720 c 1024
512 1216 m 0
 800 1216 960 994 960 720 c 1024
656 624 m 25
 707.446289062 816 l 1049
336 624 m 0
 366.814453125 739 463.733398438 832 551.733398438 832 c 0
 639.733398438 832 686.814453125 739 656 624 c 0
 625.185546875 509 528.266601562 416 440.266601562 416 c 0
 352.266601562 416 305.185546875 509 336 624 c 0
768 138.268533647 m 1
 695.38411275 71.2851706426 607.101712695 32 512 32 c 0
 265 32 64 297 64 624 c 0
 64 951 265 1216 512 1216 c 1024
EndSplineSet
Fore
SplineSet
751.75687882 384.000604033 m 0
 687.344286982 384.000604033 638.750683325 410.125117201 611.573132801 450.958945467 c 1
 603.770373385 442.907467461 595.656366074 435.314630403 587.27949533 428.22530061 c 0
 545.129223292 392.553605476 494.564227001 368 440.266601562 368 c 0
 404.264621332 368 370.909178816 379.573596307 344.453377291 400.64904701 c 0
 304.009014947 432.868186693 278.549245168 487.187756252 278.549245168 555.71309928 c 0
 278.549245168 581.726401763 282.220480472 608.785696453 289.630038581 636.438278153 c 0
 309.368992384 710.104349008 351.799098658 774.987414041 404.72050467 819.77469939 c 0
 446.870776708 855.446394524 497.435772999 880 551.733398438 880 c 0
 587.735378668 880 621.090821184 868.426403693 647.546622709 847.35095299 c 0
 652.941214462 843.05346639 658.003127353 838.41199268 662.730394515 833.472193154 c 1
 669.72446393 851.339183754 687.122154646 864.006820888 707.455182995 864.006820888 c 0
 733.952184243 864.006820888 755.464389571 842.494615559 755.464389571 815.997614312 c 0
 755.464389571 811.695796318 754.897373268 807.525367018 753.822960429 803.586763694 c 2
 684.685420697 545.561832277 l 2
 683.833180671 542.3812292 683.197764536 538.004851367 683.197764536 533.342300332 c 0
 683.197764536 522.275517351 686.716360421 510.199959607 693.354494457 501.523257531 c 0
 700.971616488 491.566920677 715.601900243 479.999395967 752.24312118 479.999395967 c 0
 752.662426537 479.997312053 753.08062815 479.996271392 753.497721089 479.996271392 c 0
 779.811604502 479.996271392 801.833278588 484.155916172 819.890903851 491.745233476 c 0
 842.285331888 501.157236313 859.902180072 515.663067844 874.897546723 539.882760554 c 0
 896.632073891 574.987175232 911.99998272 633.119149171 912 720 c 0
 912 833.49609425 882.362479662 935.352802103 828.641117358 1012.11852058 c 0
 791.3359855 1065.42609 742.543431746 1107.09192309 681.947069764 1134.08501678 c 0
 633.427447274 1155.69843832 576.908056857 1168 512 1168 c 0
 441.468570492 1168 374.518319514 1142.95091846 315.416326145 1097.20623944 c 0
 197.015205914 1005.56430096 112 829.41835217 112 624 c 0
 112 418.58164783 197.015205914 242.43569904 315.416326145 150.793760558 c 0
 374.518319514 105.049081538 441.468570492 80 512 80 c 0
 593.396673616 80 670.258241919 113.398476369 735.471783215 173.55366382 c 0
 744.059356192 181.450337497 755.484854294 186.272640713 768.027773739 186.272640713 c 0
 794.514663261 186.272640713 816.018659151 164.768644823 816.018659151 138.2817553 c 0
 816.018659151 124.337785223 810.058880468 111.774811654 800.54981383 103.003325323 c 0
 720.509983581 29.1718649157 620.806751774 -16 512 -16 c 0
 417.864762841 -16 330.370569374 17.8398073505 256.731822004 74.8358690711 c 0
 109.651460752 188.675412071 16 393.41835217 16 624 c 0
 16 854.58164783 109.651460752 1059.32458793 256.731822004 1173.16413093 c 0
 330.370569374 1230.16019265 417.864762841 1264 512 1264 c 0
 589.314165366 1264 659.409620247 1249.23251733 720.934047801 1221.82601004 c 0
 797.892748376 1187.54419267 860.763389595 1133.63685772 907.347908705 1067.06940809 c 0
 974.427643795 971.215099131 1008 850.059461305 1008 720 c 0
 1007.99998066 622.776183144 992.009511698 546.672832088 956.580175507 489.449313958 c 0
 931.878414826 449.552386662 897.353360617 420.151567414 857.020751313 403.200447583 c 0
 824.896746703 389.699266753 789.962304548 383.996271392 753.497721089 383.996271392 c 0
 752.917800548 383.996271392 752.337520163 384.000604033 751.75687882 384.000604033 c 0
374.549245168 555.71309928 m 0
 374.549245168 519.707143607 385.407350797 490.743681673 404.200781398 475.772295537 c 0
 413.420145709 468.427885357 424.64640726 464 440.266601562 464 c 0
 464.191198345 464 495.371958228 476.187135265 525.318136806 501.530529294 c 0
 562.517226271 533.012048023 595.130592256 582.326391477 609.64817745 636.506009457 c 0
 615.048917586 656.683769673 617.129600068 689.990954382 617.450754832 692.28690072 c 0
 617.450754832 728.292856393 606.592649203 757.256318327 587.799218602 772.227704463 c 0
 578.579854291 779.572114643 567.35359274 784 551.733398438 784 c 0
 527.808801655 784 496.628041772 771.812864735 466.681863194 746.469470706 c 0
 429.482705933 714.987894601 396.869288866 665.673428769 382.369961419 611.561721847 c 0
 376.956459968 591.358453456 374.549245168 572.466775656 374.549245168 555.71309928 c 0
EndSplineSet
EndChar

StartChar: ampersand
Encoding: 38 38 101
Width: 1024
Flags: HW
LayerCount: 2
Back
SplineSet
384 32 m 4
 252 32 144 128 144 368 c 4
 144 688 512 848 512 1040 c 1028
832 32 m 4
 944 32 960 144 960 304 c 1028
384 32 m 4
 656 32 848 576 848 704 c 1028
256 1040 m 4
 256 955.305323864 356.039297767 718.69912149 475.883083402 496 c 1025
475.883083402 496 m 1
 605.08099949 255.918611894 757.295644111 32 832 32 c 1028
256 1040 m 4
 256 1168 313 1216 384 1216 c 4
 455 1216 512 1168 512 1040 c 1028
656 720 m 29
 976 720 l 1053
EndSplineSet
Fore
SplineSet
464 1040 m 0
 464 1090.75566574 453.625020347 1122.11281459 442.039827408 1139.4770382 c 0
 434.035149135 1151.47468245 425.453823945 1158.02808453 414.928209966 1162.42133707 c 0
 406.429043737 1165.96877703 396.118300465 1168 384 1168 c 0
 371.881699535 1168 361.570956263 1165.96877703 353.071790034 1162.42133707 c 0
 342.546176055 1158.02808453 333.964850865 1151.47468245 325.960172592 1139.4770382 c 0
 314.374979653 1122.11281459 304 1090.75566574 304 1040 c 0
 304 1030.56121189 306.909204759 1010.63763738 313.515402903 985.542599754 c 0
 322.286594936 952.223376007 339.68595134 902.256758305 357.696646672 857.068142349 c 1
 389.035055127 892.510167349 416.300795581 925.358834796 434.926967479 955.594226679 c 0
 454.592275036 987.516421094 464 1015.08241557 464 1040 c 0
384 80 m 0
 470.849602447 80 543.310696163 152.217537902 589.931125824 210.669077688 c 1
 499.179908043 345.831999905 402.817268656 522.883179341 329.693952377 680.406639542 c 1
 308.235295219 654.677526149 287.800919826 628.273097167 269.647402365 600.903015499 c 0
 223.320300349 531.055584091 192 456.088206367 192 368 c 0
 192 267.575613216 212.382134072 198.857822114 240.832728021 155.332659729 c 0
 260.561805731 125.150115471 284.084430623 106.092078722 311.081969316 94.2784286789 c 0
 332.753968206 84.7951415718 357.237877834 80 384 80 c 0
96 368 m 0
 96 545.970263945 198.142077464 677.085606071 286.545389176 777.583170788 c 1
 263.005821232 833.347637222 234.421973408 908.823347349 220.668067526 961.070461053 c 0
 212.897550378 990.588410097 208 1015.97916297 208 1040 c 0
 208 1103.02211203 220.143538866 1153.8378027 246.045314377 1192.66013602 c 0
 264.073253082 1219.68093408 288.74312605 1239.61400933 316.158788713 1251.05694556 c 0
 338.012643798 1260.17845663 361.05657207 1264 384 1264 c 0
 406.94342793 1264 429.987356202 1260.17845663 451.841211287 1251.05694556 c 0
 479.25687395 1239.61400933 503.926746918 1219.68093408 521.954685623 1192.66013602 c 0
 547.856461134 1153.8378027 560 1103.02211203 560 1040 c 0
 560 990.423005554 541.708685796 945.903033255 516.722937196 905.344301993 c 0
 485.518833144 854.691472225 442.833842057 807.88749063 399.165509635 759.493329831 c 1
 467.43097638 607.22836119 561.69927628 430.806922582 648.897198453 295.823966221 c 1
 701.28788165 382.161463575 742.810357403 480.842971681 768.842907132 562.178816127 c 0
 780.43882862 598.409000094 788.972073229 631.2159508 794.110667568 657.385917312 c 0
 795.118206056 662.51713545 795.986515861 667.408699028 796.723105258 672 c 1
 656 672 l 2
 629.50808 672 608 693.50808 608 720 c 0
 608 746.49192 629.50808 768 656 768 c 2
 976 768 l 2
 1002.49192 768 1024 746.49192 1024 720 c 0
 1024 693.50808 1002.49192 672 976 672 c 2
 893.795084503 672 l 1
 892.487697053 661.629785371 890.631062484 650.622870869 888.312138273 638.81299351 c 0
 882.259749887 607.989232981 872.838920828 572.111593287 860.295860859 532.922179092 c 0
 832.10038239 444.82850124 788.184671052 340.097539576 730.467627582 245.199240479 c 0
 723.140630989 233.152200776 715.590149783 221.248804987 707.809182761 209.549738124 c 1
 716.406010278 197.749326399 724.848052047 186.545750199 733.096728551 176.013659873 c 0
 762.283017381 138.747968817 789.193076527 110.109806288 809.209052767 94.2484771139 c 0
 822.886967997 83.4096395139 831.502038616 80.4115906322 832.788712598 80.0024620248 c 0
 850.017684152 80.1105105912 860.28583558 83.7614798278 867.609734117 88.4203482432 c 0
 878.712462411 95.4830002038 889.872324823 110.175662666 898.236400156 141.164224944 c 0
 908.511594109 179.233404745 912 236.245639841 912 304 c 0
 912 330.49192 933.50808 352 960 352 c 0
 986.49192 352 1008 330.49192 1008 304 c 0
 1008 233.48275522 1005.51370691 170.147482315 990.931202645 116.119891261 c 0
 979.409119402 73.4310368543 958.597703722 32.5267544067 919.034984676 7.36017301884 c 0
 893.899314259 -8.62909441603 864.072228931 -16 832 -16 c 0
 816.867253834 -16 803.6063049 -12.2226401235 791.643382271 -7.06857143984 c 0
 776.632089174 -0.601152226393 763.067073959 8.34342704231 749.656060123 18.9707630491 c 0
 717.043124049 44.8143446069 680.475458171 86.5492723749 647.648432698 129.618575229 c 1
 588.180485811 60.5696326462 497.590921824 -16 384 -16 c 0
 345.576936981 -16 307.802044596 -9.08960887859 272.670597761 6.28329689367 c 0
 228.663829297 25.5398879501 189.706141228 58.0999988407 160.418300785 102.906023398 c 0
 118.284532595 167.364400108 96 255.091053451 96 368 c 0
EndSplineSet
EndChar

StartChar: periodcentered
Encoding: 183 183 104
Width: 1024
Flags: HW
LayerCount: 2
Back
SplineSet
416 624 m 4
 416 650 459 672 512 672 c 4
 565 672 608 650 608 624 c 4
 608 598 565 576 512 576 c 4
 459 576 416 598 416 624 c 4
368 624 m 0
 368 677 433 720 512 720 c 0
 591 720 656 677 656 624 c 0
 656 571 591 528 512 528 c 0
 433 528 368 571 368 624 c 0
EndSplineSet
Fore
SplineSet
320 624 m 0
 320 655.272740489 333.041701712 682.957143113 351.785514756 704.189072933 c 0
 385.765940725 742.680174915 443.486036831 768 512 768 c 0
 580.484446228 768 638.261641389 742.648931459 672.214485244 704.189072933 c 0
 690.958298288 682.957143113 704 655.272740489 704 624 c 0
 704 592.727259511 690.958298288 565.042856887 672.214485244 543.810927067 c 0
 638.234059275 505.319825085 580.513963169 480 512 480 c 0
 443.515553772 480 385.738358611 505.351068541 351.785514756 543.810927067 c 0
 333.041701712 565.042856887 320 592.727259511 320 624 c 0
EndSplineSet
EndChar

StartChar: acute
Encoding: 180 180 105
Width: 1024
Flags: HW
LayerCount: 2
Back
SplineSet
320 816 m 25
 704 1200 l 1053
EndSplineSet
Fore
SplineSet
319.993345808 768.016066486 m 0
 293.506620594 768.016066486 272.002758102 789.519928978 272.002758102 816.006654192 c 0
 272.002758102 829.250016799 277.378723725 841.247663725 286.06553 849.93447 c 2
 670.06553 1233.93447 l 2
 678.752336275 1242.62127627 690.749983201 1247.9972419 703.993345808 1247.9972419 c 0
 730.480071022 1247.9972419 751.983933514 1226.49337941 751.983933514 1200.00665419 c 0
 751.983933514 1186.76329159 746.607967891 1174.76564466 737.93447 1166.06553 c 2
 353.93447 782.06553 l 2
 345.234355341 773.392032109 333.236708415 768.016066486 319.993345808 768.016066486 c 0
EndSplineSet
EndChar

StartChar: degree
Encoding: 176 176 106
Width: 1024
Flags: HW
LayerCount: 2
Back
SplineSet
368 1072 m 4
 368 1151 433 1216 512 1216 c 4
 591 1216 656 1151 656 1072 c 4
 656 993 591 928 512 928 c 4
 433 928 368 993 368 1072 c 4
EndSplineSet
Fore
SplineSet
320 1072 m 0
 320 1177.60413187 406.395868134 1264 512 1264 c 0
 617.604131866 1264 704 1177.60413187 704 1072 c 0
 704 966.395868134 617.604131866 880 512 880 c 0
 406.395868134 880 320 966.395868134 320 1072 c 0
416 1072 m 0
 416 1019.60413187 459.604131866 976 512 976 c 0
 564.395868134 976 608 1019.60413187 608 1072 c 0
 608 1124.39586813 564.395868134 1168 512 1168 c 0
 459.604131866 1168 416 1124.39586813 416 1072 c 0
EndSplineSet
EndChar

StartChar: brokenbar
Encoding: 166 166 109
Width: 1024
Flags: HW
LayerCount: 2
Back
SplineSet
512 432 m 25
 512 -144 l 1049
512 1392 m 25
 512 816 l 1049
EndSplineSet
Fore
SplineSet
464 1392 m 2
 464 1418.49192 485.50808 1440 512 1440 c 0
 538.49192 1440 560 1418.49192 560 1392 c 2
 560 816 l 2
 560 789.50808 538.49192 768 512 768 c 0
 485.50808 768 464 789.50808 464 816 c 2
 464 1392 l 2
464 432 m 2
 464 458.49192 485.50808 480 512 480 c 0
 538.49192 480 560 458.49192 560 432 c 2
 560 -144 l 2
 560 -170.49192 538.49192 -192 512 -192 c 0
 485.50808 -192 464 -170.49192 464 -144 c 2
 464 432 l 2
EndSplineSet
EndChar

StartChar: dieresis
Encoding: 168 168 110
Width: 1024
Flags: HW
LayerCount: 2
Back
SplineSet
656 1168 m 4
 656 1194 678 1216 704 1216 c 4
 730 1216 752 1194 752 1168 c 4
 752 1142 730 1120 704 1120 c 4
 678 1120 656 1142 656 1168 c 4
272 1168 m 0
 272 1194 294 1216 320 1216 c 0
 346 1216 368 1194 368 1168 c 0
 368 1142 346 1120 320 1120 c 0
 294 1120 272 1142 272 1168 c 0
EndSplineSet
Fore
SplineSet
224 1168 m 0
 224 1220.83996357 267.160036433 1264 320 1264 c 0
 372.839963567 1264 416 1220.83996357 416 1168 c 0
 416 1115.16003643 372.839963567 1072 320 1072 c 0
 267.160036433 1072 224 1115.16003643 224 1168 c 0
608 1168 m 0
 608 1220.83996357 651.160036433 1264 704 1264 c 0
 756.839963567 1264 800 1220.83996357 800 1168 c 0
 800 1115.16003643 756.839963567 1072 704 1072 c 0
 651.160036433 1072 608 1115.16003643 608 1168 c 0
EndSplineSet
EndChar

StartChar: copyright
Encoding: 169 169 111
Width: 1024
Flags: HW
LayerCount: 2
Back
SplineSet
680 688 m 29
 680 816 l 1053
696 560 m 4
 696 486.333007812 613.5 426.666992188 512 426.666992188 c 1028
512 426.666992188 m 4
 410.5 426.666992188 328 515 328 624 c 4
 328 733 410.5 821.333007812 512 821.333007812 c 4
 586.774414062 821.333007812 651.237304688 773.393554688 680 704.567382812 c 1029
64 624 m 0
 64 871 265 1072 512 1072 c 0
 759 1072 960 871 960 624 c 0
 960 377 759 176 512 176 c 0
 265 176 64 377 64 624 c 0
EndSplineSet
Fore
SplineSet
16 624 m 0
 16 897.51147398 238.48852602 1120 512 1120 c 0
 785.51147398 1120 1008 897.51147398 1008 624 c 0
 1008 350.48852602 785.51147398 128 512 128 c 0
 238.48852602 128 16 350.48852602 16 624 c 0
112 624 m 0
 112 403.51147398 291.51147398 224 512 224 c 0
 732.48852602 224 912 403.51147398 912 624 c 0
 912 844.48852602 732.48852602 1024 512 1024 c 0
 291.51147398 1024 112 844.48852602 112 624 c 0
728 688 m 2
 728 661.50808 706.49192 640 680 640 c 0
 653.50808 640 632 661.50808 632 688 c 2
 632 694.260576554 l 1
 608.511969635 742.524641179 562.662059489 773.333007812 512 773.333007812 c 0
 439.83603116 773.333007812 376 709.369802802 376 624 c 0
 376 538.630197198 439.83603116 474.666992188 512 474.666992188 c 0
 567.742316911 474.666992188 613.022173298 497.515971754 633.518794936 522.849702581 c 0
 643.657545518 535.381152042 648 547.797807916 648 560 c 0
 648 586.49192 669.50808 608 696 608 c 0
 722.49192 608 744 586.49192 744 560 c 0
 744 523.090863958 730.009121148 489.507519833 708.184908768 462.532892905 c 0
 664.75560448 408.854470955 591.591016423 378.666992188 512 378.666992188 c 0
 381.16396884 378.666992188 280 491.369802802 280 624 c 0
 280 756.630197198 381.16396884 869.333007812 512 869.333007812 c 0
 557.397397159 869.333007812 599.387409879 855.589081637 634.789960545 832.152631355 c 1
 641.428266875 850.708326533 659.174163951 864 680 864 c 0
 706.49192 864 728 842.49192 728 816 c 2
 728 688 l 2
EndSplineSet
EndChar

StartChar: registered
Encoding: 174 174 112
Width: 1024
Flags: HW
LayerCount: 2
Back
SplineSet
64 624 m 4
 64 871 265 1072 512 1072 c 4
 759 1072 960 871 960 624 c 4
 960 377 759 176 512 176 c 4
 265 176 64 377 64 624 c 4
528 624 m 0
 598.5 624 656 562 656 485.333007812 c 1024
528 816 m 0
 607.5 816 672 773 672 720 c 0
 672 667 607.5 624 528 624 c 1024
392 624 m 25
 528 624 l 1049
728 432 m 25
 656 432 l 25
 656 485.333007812 l 1049
296 432 m 25
 480 432 l 1049
384 810.666015625 m 25
 384 437.333984375 l 1049
296 816 m 25
 528 816 l 1049
EndSplineSet
Fore
SplineSet
528 672 m 2
 564.850809083 672 599.930521944 684.628803897 616.270799983 703.220409133 c 0
 622.574283822 710.392372968 624 715.830830744 624 720 c 0
 624 724.169169256 622.574283822 729.607627032 616.270799983 736.779590867 c 0
 599.963557105 755.33360943 564.814886286 768 528 768 c 2
 432 768 l 1
 432 672 l 1
 528 672 l 2
720 720 m 0
 720 671.529197586 689.100870949 634.063179247 656.881435356 612.456317093 c 1
 686.374051774 578.648332317 704 533.523126895 704 485.333007812 c 2
 704 480 l 1
 728 480 l 2
 754.49192 480 776 458.49192 776 432 c 0
 776 405.50808 754.49192 384 728 384 c 2
 656 384 l 2
 627.360547674 384 608.050048769 408.093659126 608.050048769 432.058409179 c 2
 608 485.333007812 l 2
 608 538.744858 568.78092356 576 528 576 c 2
 432 576 l 1
 432 480 l 1
 480 480 l 2
 506.49192 480 528 458.49192 528 432 c 0
 528 405.50808 506.49192 384 480 384 c 2
 296 384 l 2
 269.50808 384 248 405.50808 248 432 c 0
 248 458.49192 269.50808 480 296 480 c 2
 336 480 l 1
 336 768 l 1
 296 768 l 2
 269.50808 768 248 789.50808 248 816 c 0
 248 842.49192 269.50808 864 296 864 c 2
 528 864 l 2
 596.677754048 864 654.464913387 838.715182662 688.395866684 800.109298021 c 0
 707.092382844 778.836817413 720 751.164164078 720 720 c 0
16 624 m 0
 16 897.51147398 238.48852602 1120 512 1120 c 0
 785.51147398 1120 1008 897.51147398 1008 624 c 0
 1008 350.48852602 785.51147398 128 512 128 c 0
 238.48852602 128 16 350.48852602 16 624 c 0
112 624 m 0
 112 403.51147398 291.51147398 224 512 224 c 0
 732.48852602 224 912 403.51147398 912 624 c 0
 912 844.48852602 732.48852602 1024 512 1024 c 0
 291.51147398 1024 112 844.48852602 112 624 c 0
EndSplineSet
EndChar

StartChar: multiply
Encoding: 215 215 113
Width: 1024
Flags: HW
LayerCount: 2
Back
SplineSet
772 884 m 25
 252 364 l 1049
252 884 m 25
 772 364 l 1049
EndSplineSet
Fore
SplineSet
772.006654192 931.983933514 m 0
 798.493379406 931.983933514 819.997241898 910.480071022 819.997241898 883.993345808 c 0
 819.997241898 870.749983201 814.621276275 858.752336275 805.93447 850.06553 c 2
 579.86894 624 l 1
 805.93447 397.93447 l 2
 814.621276275 389.247663725 819.997241898 377.250016799 819.997241898 364.006654192 c 0
 819.997241898 337.519928978 798.493379406 316.016066486 772.006654192 316.016066486 c 0
 758.763291585 316.016066486 746.765644659 321.392032109 738.06553 330.06553 c 2
 512 556.13106 l 1
 285.93447 330.06553 l 2
 277.247663725 321.378723725 265.250016799 316.002758102 252.006654192 316.002758102 c 0
 225.519928978 316.002758102 204.016066486 337.506620594 204.016066486 363.993345808 c 0
 204.016066486 377.236708415 209.392032109 389.234355341 218.06553 397.93447 c 2
 444.13106 624 l 1
 218.06553 850.06553 l 2
 209.392032109 858.765644659 204.016066486 870.763291585 204.016066486 884.006654192 c 0
 204.016066486 910.493379406 225.519928978 931.997241898 252.006654192 931.997241898 c 0
 265.250016799 931.997241898 277.247663725 926.621276275 285.93447 917.93447 c 2
 512 691.86894 l 1
 738.06553 917.93447 l 2
 746.765644659 926.607967891 758.763291585 931.983933514 772.006654192 931.983933514 c 0
EndSplineSet
EndChar

StartChar: divide
Encoding: 247 247 114
Width: 1024
Flags: HW
LayerCount: 2
Back
SplineSet
464 336 m 4
 464 362 486 384 512 384 c 4
 538 384 560 362 560 336 c 4
 560 310 538 288 512 288 c 4
 486 288 464 310 464 336 c 4
464 912 m 0
 464 938 486 960 512 960 c 0
 538 960 560 938 560 912 c 0
 560 886 538 864 512 864 c 0
 486 864 464 886 464 912 c 0
144 624 m 25
 880 624 l 1049
EndSplineSet
Fore
SplineSet
144 576 m 2
 117.50808 576 96 597.50808 96 624 c 0
 96 650.49192 117.50808 672 144 672 c 2
 880 672 l 2
 906.49192 672 928 650.49192 928 624 c 0
 928 597.50808 906.49192 576 880 576 c 2
 144 576 l 2
416 912 m 0
 416 964.839963567 459.160036433 1008 512 1008 c 0
 564.839963567 1008 608 964.839963567 608 912 c 0
 608 859.160036433 564.839963567 816 512 816 c 0
 459.160036433 816 416 859.160036433 416 912 c 0
416 336 m 0
 416 388.839963567 459.160036433 432 512 432 c 0
 564.839963567 432 608 388.839963567 608 336 c 0
 608 283.160036433 564.839963567 240 512 240 c 0
 459.160036433 240 416 283.160036433 416 336 c 0
EndSplineSet
EndChar

StartChar: dotlessi
Encoding: 305 305 115
Width: 1024
Flags: HW
AnchorPoint: "top" 464 912 basechar 0
AnchorPoint: "ogonek" 641 49 basechar 0
LayerCount: 2
Back
SplineSet
208 48 m 29
 816 48 l 1053
208 816 m 29
 512 816 l 29
 512 64 l 1053
EndSplineSet
Fore
SplineSet
512 864 m 2
 541.180144083 864 560.009176159 840.128990413 560.009176159 815.990353384 c 0
 560.009176159 575.993568923 560.00039048 335.996784461 560.00039048 96 c 1
 816 96 l 2
 842.49192 96 864 74.49192 864 48 c 0
 864 21.50808 842.49192 0 816 0 c 2
 208 0 l 2
 181.50808 0 160 21.50808 160 48 c 0
 160 74.49192 181.50808 96 208 96 c 2
 464 96 l 1
 464 768 l 1
 208 768 l 2
 181.50808 768 160 789.50808 160 816 c 0
 160 842.49192 181.50808 864 208 864 c 2
 512 864 l 2
EndSplineSet
Substitution2: "'i'/'l' with bottom serif only to the right subtable" dotlessi.ss05
EndChar

StartChar: gravecomb
Encoding: 768 768 116
Width: 1024
Flags: HW
AnchorPoint: "top" 512 1272 mark 0
LayerCount: 2
Back
SplineSet
352 1584 m 25
 672 1392 l 1053
EndSplineSet
Fore
SplineSet
304.00043504 1584.00024667 m 0
 304.00043504 1610.49200802 325.508386236 1631.99995922 352.000147586 1631.99995922 c 0
 361.007543926 1631.99995922 369.438786548 1629.51353104 376.644367895 1625.19018223 c 2
 696.746928838 1433.12864566 l 2
 710.733769167 1424.73654146 720.102421074 1409.42307512 720.102421074 1391.93871011 c 0
 720.102421074 1365.44694876 698.594469878 1343.93899756 672.102708528 1343.93899756 c 0
 663.095312189 1343.93899756 654.664069566 1346.42542575 647.355632105 1350.80981777 c 2
 327.253071162 1542.87135434 l 2
 313.369086948 1551.20241532 304.00043504 1566.51588166 304.00043504 1584.00024667 c 0
EndSplineSet
EndChar

StartChar: acutecomb
Encoding: 769 769 117
Width: 1024
Flags: HW
AnchorPoint: "top" 512 1272 mark 0
LayerCount: 2
Back
SplineSet
352 1392 m 25
 672 1584 l 1053
EndSplineSet
Fore
SplineSet
351.897291472 1343.93899756 m 0
 325.405530122 1343.93899756 303.897578926 1365.44694876 303.897578926 1391.93871011 c 0
 303.897578926 1409.42307512 313.266230833 1424.73654146 327.253071162 1433.12864566 c 2
 647.355632105 1625.19018223 l 2
 654.561213452 1629.51353104 662.992456075 1631.99995922 671.999852414 1631.99995922 c 0
 698.491613764 1631.99995922 719.99956496 1610.49200802 719.99956496 1584.00024667 c 0
 719.99956496 1566.51588166 710.631208847 1551.20192234 696.746928838 1542.87135434 c 2
 376.644367895 1350.80981777 l 2
 369.335930434 1346.42542575 360.904687811 1343.93899756 351.897291472 1343.93899756 c 0
EndSplineSet
EndChar

StartChar: uni0302
Encoding: 770 770 118
Width: 1024
Flags: HW
AnchorPoint: "top" 512 1272 mark 0
LayerCount: 2
Back
SplineSet
272 1392 m 25
 512 1584 l 25
 752 1392 l 1053
EndSplineSet
Fore
SplineSet
271.93658731 1343.96578727 m 0
 245.448664892 1343.96578727 223.943830422 1365.47062174 223.943830422 1391.95854416 c 0
 223.943830422 1407.12334023 230.992602397 1420.65479889 242.048608994 1429.49960416 c 2
 482.048608994 1621.49960416 l 2
 490.251779195 1628.06214033 500.654062197 1631.9881038 511.96606721 1631.9881038 c 0
 523.278072224 1631.9881038 533.680355226 1628.06214033 541.883525427 1621.49960416 c 2
 541.883525427 1621.49960416 781.951391006 1429.49960416 782.010284086 1429.4524897 c 0
 793.007397603 1420.65479889 800.056169578 1407.12334023 800.056169578 1391.95854416 c 0
 800.056169578 1365.47062174 778.551335108 1343.96578727 752.063412691 1343.96578727 c 0
 740.740286344 1343.96578727 730.327776396 1347.89561053 722.048608994 1354.50039584 c 2
 512 1522.53928303 l 1
 301.951391006 1354.50039584 l 2
 293.672223604 1347.89561053 283.259713656 1343.96578727 271.93658731 1343.96578727 c 0
EndSplineSet
EndChar

StartChar: tildecomb
Encoding: 771 771 119
Width: 1024
Flags: HW
AnchorPoint: "top" 512 1272 mark 0
LayerCount: 2
Back
SplineSet
256 1392 m 4
 256 1488 288 1584 384 1584 c 4
 448 1584 480 1536 512 1488 c 1029
512 1488 m 5
 544 1440 576 1392 640 1392 c 4
 736 1392 768 1488 768 1584 c 1028
EndSplineSet
Fore
SplineSet
304 1392 m 0
 304 1365.50808 282.49192 1344 256 1344 c 0
 229.50808 1344 208 1365.50808 208 1392 c 0
 208 1488.9646575 237.281163401 1575.19576126 306.09493711 1612.94503141 c 0
 328.893661332 1625.45176013 355.407200737 1632 384 1632 c 0
 476.978590368 1632 522.048292814 1559.45525899 551.967055177 1514.57711544 c 0
 586.048292814 1463.45525899 604.978590368 1440 640 1440 c 0
 654.073867403 1440 663.906007011 1442.93324161 671.834306108 1447.28247997 c 0
 706.55713211 1466.33043023 720 1526.50850454 720 1584 c 0
 720 1610.49192 741.50808 1632 768 1632 c 0
 794.49192 1632 816 1610.49192 816 1584 c 0
 816 1487.0353425 786.718836599 1400.80423874 717.90506289 1363.05496859 c 0
 695.106338668 1350.54823987 668.592799263 1344 640 1344 c 0
 547.021409632 1344 501.951707186 1416.54474101 472.032944823 1461.42288456 c 0
 437.951707186 1512.54474101 419.021409632 1536 384 1536 c 0
 369.926132597 1536 360.093992989 1533.06675839 352.165693892 1528.71752003 c 0
 317.44286789 1509.66956977 304 1449.49149546 304 1392 c 0
EndSplineSet
EndChar

StartChar: uni0306
Encoding: 774 774 120
Width: 1024
Flags: HW
AnchorPoint: "top" 512 1272 mark 0
LayerCount: 2
Back
SplineSet
704 1584 m 4
 704 1478 618 1392 512 1392 c 4
 406 1392 320 1478 320 1584 c 1028
EndSplineSet
Fore
SplineSet
656 1584 m 0
 656 1610.49192 677.50808 1632 704 1632 c 0
 730.49192 1632 752 1610.49192 752 1584 c 0
 752 1451.51379745 644.486202548 1344 512 1344 c 0
 379.513797452 1344 272 1451.51379745 272 1584 c 0
 272 1610.49192 293.50808 1632 320 1632 c 0
 346.49192 1632 368 1610.49192 368 1584 c 0
 368 1504.48620255 432.486202548 1440 512 1440 c 0
 591.513797452 1440 656 1504.48620255 656 1584 c 0
EndSplineSet
EndChar

StartChar: uni0307
Encoding: 775 775 121
Width: 1024
Flags: HW
AnchorPoint: "top" 512 1272 mark 0
LayerCount: 2
Back
SplineSet
464 1464 m 4
 464 1490 486 1512 512 1512 c 4
 538 1512 560 1490 560 1464 c 4
 560 1438 538 1416 512 1416 c 4
 486 1416 464 1438 464 1464 c 4
EndSplineSet
Fore
SplineSet
416 1464 m 0
 416 1516.83996357 459.160036433 1560 512 1560 c 0
 564.839963567 1560 608 1516.83996357 608 1464 c 0
 608 1411.16003643 564.839963567 1368 512 1368 c 0
 459.160036433 1368 416 1411.16003643 416 1464 c 0
EndSplineSet
EndChar

StartChar: uni0308
Encoding: 776 776 122
Width: 1024
Flags: HW
AnchorPoint: "top" 512 1272 mark 0
LayerCount: 2
Back
SplineSet
656 1464 m 4
 656 1490 678 1512 704 1512 c 4
 730 1512 752 1490 752 1464 c 4
 752 1438 730 1416 704 1416 c 4
 678 1416 656 1438 656 1464 c 4
272 1464 m 0
 272 1490 294 1512 320 1512 c 0
 346 1512 368 1490 368 1464 c 0
 368 1438 346 1416 320 1416 c 0
 294 1416 272 1438 272 1464 c 0
EndSplineSet
Fore
SplineSet
224 1464 m 0
 224 1516.83996357 267.160036433 1560 320 1560 c 0
 372.839963567 1560 416 1516.83996357 416 1464 c 0
 416 1411.16003643 372.839963567 1368 320 1368 c 0
 267.160036433 1368 224 1411.16003643 224 1464 c 0
608 1464 m 0
 608 1516.83996357 651.160036433 1560 704 1560 c 0
 756.839963567 1560 800 1516.83996357 800 1464 c 0
 800 1411.16003643 756.839963567 1368 704 1368 c 0
 651.160036433 1368 608 1411.16003643 608 1464 c 0
EndSplineSet
EndChar

StartChar: uni0305
Encoding: 773 773 123
Width: 1024
Flags: HW
AnchorPoint: "top" 512 1272 mark 0
LayerCount: 2
Back
SplineSet
144 1488 m 25
 880 1488 l 1053
EndSplineSet
Fore
SplineSet
144 1440 m 2
 117.50808 1440 96 1461.50808 96 1488 c 0
 96 1514.49192 117.50808 1536 144 1536 c 2
 880 1536 l 2
 906.49192 1536 928 1514.49192 928 1488 c 0
 928 1461.50808 906.49192 1440 880 1440 c 2
 144 1440 l 2
EndSplineSet
EndChar

StartChar: uni0304
Encoding: 772 772 124
Width: 1024
Flags: HW
AnchorPoint: "top" 512 1272 mark 0
LayerCount: 2
Back
SplineSet
352 1488 m 25
 672 1488 l 1053
EndSplineSet
Fore
SplineSet
352 1440 m 2
 325.50808 1440 304 1461.50808 304 1488 c 0
 304 1514.49192 325.50808 1536 352 1536 c 2
 672 1536 l 2
 698.49192 1536 720 1514.49192 720 1488 c 0
 720 1461.50808 698.49192 1440 672 1440 c 2
 352 1440 l 2
EndSplineSet
EndChar

StartChar: uni030A
Encoding: 778 778 125
Width: 1024
Flags: HW
AnchorPoint: "top" 512 1272 mark 0
LayerCount: 2
Back
SplineSet
400 1488 m 4
 400 1550 450 1600 512 1600 c 4
 574 1600 624 1550 624 1488 c 4
 624 1426 574 1376 512 1376 c 4
 450 1376 400 1426 400 1488 c 4
EndSplineSet
Fore
SplineSet
352 1488 m 0
 352 1576.43565818 423.564341821 1648 512 1648 c 0
 600.435658179 1648 672 1576.43565818 672 1488 c 0
 672 1399.56434182 600.435658179 1328 512 1328 c 0
 423.564341821 1328 352 1399.56434182 352 1488 c 0
448 1488 m 0
 448 1452.43565818 476.435658179 1424 512 1424 c 0
 547.564341821 1424 576 1452.43565818 576 1488 c 0
 576 1523.56434182 547.564341821 1552 512 1552 c 0
 476.435658179 1552 448 1523.56434182 448 1488 c 0
EndSplineSet
EndChar

StartChar: uni030B
Encoding: 779 779 126
Width: 1024
Flags: HW
AnchorPoint: "top" 512 1272 mark 0
LayerCount: 2
Back
SplineSet
544 1392 m 29
 736 1584 l 1053
288 1392 m 29
 480 1584 l 1053
EndSplineSet
Fore
SplineSet
287.993345808 1344.01606649 m 0
 261.506620594 1344.01606649 240.002758102 1365.51992898 240.002758102 1392.00665419 c 0
 240.002758102 1405.2500168 245.378723725 1417.24766373 254.06553 1425.93447 c 2
 446.06553 1617.93447 l 2
 454.752336275 1626.62127627 466.749983201 1631.9972419 479.993345808 1631.9972419 c 0
 506.480071022 1631.9972419 527.983933514 1610.49337941 527.983933514 1584.00665419 c 0
 527.983933514 1570.76329159 522.607967891 1558.76564466 513.93447 1550.06553 c 2
 321.93447 1358.06553 l 2
 313.234355341 1349.39203211 301.236708415 1344.01606649 287.993345808 1344.01606649 c 0
543.993345808 1344.01606649 m 0
 517.506620594 1344.01606649 496.002758102 1365.51992898 496.002758102 1392.00665419 c 0
 496.002758102 1405.2500168 501.378723725 1417.24766373 510.06553 1425.93447 c 2
 702.06553 1617.93447 l 2
 710.752336275 1626.62127627 722.749983201 1631.9972419 735.993345808 1631.9972419 c 0
 762.480071022 1631.9972419 783.983933514 1610.49337941 783.983933514 1584.00665419 c 0
 783.983933514 1570.76329159 778.607967891 1558.76564466 769.93447 1550.06553 c 2
 577.93447 1358.06553 l 2
 569.234355341 1349.39203211 557.236708415 1344.01606649 543.993345808 1344.01606649 c 0
EndSplineSet
EndChar

StartChar: uni030C
Encoding: 780 780 127
Width: 1024
Flags: HW
AnchorPoint: "top" 512 1271.91 mark 0
LayerCount: 2
Back
SplineSet
272 1584 m 25
 512 1392 l 25
 752 1584 l 1053
EndSplineSet
Fore
SplineSet
224.011762723 1584.00565862 m 0
 224.011762723 1610.49358104 245.516597193 1631.99841551 272.00451961 1631.99841551 c 0
 283.327645957 1631.99841551 293.740155905 1628.06859225 301.951391006 1621.49960416 c 2
 512 1453.46071697 l 1
 722.048608994 1621.49960416 l 2
 730.259844095 1628.06859225 740.672354043 1631.99841551 751.99548039 1631.99841551 c 0
 778.483402807 1631.99841551 799.988237277 1610.49358104 799.988237277 1584.00565862 c 0
 799.988237277 1568.84086255 792.949817251 1555.2964757 782.010291037 1546.54750161 c 2
 541.878782237 1354.50039584 l 2
 533.159398332 1347.52488871 522.561546974 1344.03713515 511.963695616 1344.03713515 c 0
 501.365844258 1344.03713515 490.7679929 1347.52488871 482.048608994 1354.50039584 c 2
 482.048608994 1354.50039584 242.048608994 1546.50039584 241.989715914 1546.5475103 c 0
 231.060534698 1555.30940389 224.011762723 1568.84086255 224.011762723 1584.00565862 c 0
EndSplineSet
EndChar

StartChar: uni030F
Encoding: 783 783 128
Width: 1024
Flags: HW
AnchorPoint: "top" 512 1272 mark 0
LayerCount: 2
Back
SplineSet
480 1392 m 29
 288 1584 l 1053
736 1392 m 29
 544 1584 l 1053
EndSplineSet
Fore
SplineSet
783.983933514 1391.99334581 m 0
 783.983933514 1365.50662059 762.480071022 1344.0027581 735.993345808 1344.0027581 c 0
 722.749983201 1344.0027581 710.752336275 1349.37872373 702.06553 1358.06553 c 2
 510.06553 1550.06553 l 2
 501.378723725 1558.75233627 496.002758102 1570.7499832 496.002758102 1583.99334581 c 0
 496.002758102 1610.48007102 517.506620594 1631.98393351 543.993345808 1631.98393351 c 0
 557.236708415 1631.98393351 569.234355341 1626.60796789 577.93447 1617.93447 c 2
 769.93447 1425.93447 l 2
 778.607967891 1417.23435534 783.983933514 1405.23670841 783.983933514 1391.99334581 c 0
527.983933514 1391.99334581 m 0
 527.983933514 1365.50662059 506.480071022 1344.0027581 479.993345808 1344.0027581 c 0
 466.749983201 1344.0027581 454.752336275 1349.37872373 446.06553 1358.06553 c 2
 254.06553 1550.06553 l 2
 245.378723725 1558.75233627 240.002758102 1570.7499832 240.002758102 1583.99334581 c 0
 240.002758102 1610.48007102 261.506620594 1631.98393351 287.993345808 1631.98393351 c 0
 301.236708415 1631.98393351 313.234355341 1626.60796789 321.93447 1617.93447 c 2
 513.93447 1425.93447 l 2
 522.607967891 1417.23435534 527.983933514 1405.23670841 527.983933514 1391.99334581 c 0
EndSplineSet
EndChar

StartChar: uni0237
Encoding: 567 567 130
Width: 1024
Flags: HW
AnchorPoint: "top" 656 912 basechar 0
AnchorPoint: "ogonek" 401 -351 basechar 0
LayerCount: 2
Back
SplineSet
656 -96 m 25
 656 816 l 25
 384 816 l 1049
656 -96 m 0
 656 -237 541 -352 400 -352 c 0
 259 -352 144 -237 144 -96 c 1024
144 -48 m 0
 144 -22 166 0 192 0 c 0
 218 0 240 -22 240 -48 c 0
 240 -74 218 -96 192 -96 c 0
 166 -96 144 -74 144 -48 c 0
EndSplineSet
Fore
SplineSet
96 -48 m 0
 96 4.83996356663 139.160036433 48 192 48 c 0
 244.839963567 48 288 4.83996356663 288 -48 c 0
 288 -98.9674515788 247.844723416 -140.928883157 197.579577539 -143.838887443 c 1
 219.315209853 -235.420650268 301.980996219 -304 400 -304 c 0
 514.469572763 -304 608 -210.469572763 608 -96 c 2
 608 768 l 1
 384 768 l 2
 357.50808 768 336 789.50808 336 816 c 0
 336 842.49192 357.50808 864 384 864 c 2
 656 864 l 2
 682.49192 864 704 842.49192 704 816 c 2
 704 -96 l 2
 704 -263.530427237 567.530427237 -400 400 -400 c 0
 232.469572763 -400 96 -263.530427237 96 -96 c 0
 96 -88.9539865977 97.5214640786 -82.2605259817 100.253499059 -76.2305115234 c 1
 97.4893726964 -67.297457144 96 -57.8157468007 96 -48 c 0
EndSplineSet
EndChar

StartChar: breve
Encoding: 728 728 320
Width: 1024
Flags: HW
AnchorPoint: "top" 512 1272 mark 0
LayerCount: 2
Back
SplineSet
704 1584 m 4
 704 1478 618 1392 512 1392 c 4
 406 1392 320 1478 320 1584 c 1028
EndSplineSet
Fore
SplineSet
656 1584 m 0
 656 1610.49192 677.50808 1632 704 1632 c 0
 730.49192 1632 752 1610.49192 752 1584 c 0
 752 1451.51379745 644.486202548 1344 512 1344 c 0
 379.513797452 1344 272 1451.51379745 272 1584 c 0
 272 1610.49192 293.50808 1632 320 1632 c 0
 346.49192 1632 368 1610.49192 368 1584 c 0
 368 1504.48620255 432.486202548 1440 512 1440 c 0
 591.513797452 1440 656 1504.48620255 656 1584 c 0
EndSplineSet
EndChar

StartChar: dotaccent
Encoding: 729 729 321
Width: 1024
Flags: HW
AnchorPoint: "top" 512 1272 mark 0
LayerCount: 2
Back
SplineSet
464 1464 m 4
 464 1490 486 1512 512 1512 c 4
 538 1512 560 1490 560 1464 c 4
 560 1438 538 1416 512 1416 c 4
 486 1416 464 1438 464 1464 c 4
EndSplineSet
Fore
SplineSet
416 1464 m 0
 416 1516.83996357 459.160036433 1560 512 1560 c 0
 564.839963567 1560 608 1516.83996357 608 1464 c 0
 608 1411.16003643 564.839963567 1368 512 1368 c 0
 459.160036433 1368 416 1411.16003643 416 1464 c 0
EndSplineSet
EndChar

